<svg xmlns="http://www.w3.org/2000/svg" xml:space="preserve" style="background-color:#fff;fill-rule:evenodd;clip-rule:evenodd;stroke-linejoin:round;stroke-miterlimit:2" viewBox="0 0 64 64"><path d="m273.952 334.302-42.886-74.168c-5.057-8.734-12.702-13.096-22.692-13.096h-85.537c-9.984 0-17.638 4.362-22.694 13.096l-42.806 74.168c-5.031 8.746-4.974 17.555.026 26.201l42.781 74.189c5.056 8.734 12.709 13.095 22.694 13.095h85.537c9.99 0 17.635-4.361 22.692-13.095l42.857-74.189c5.004-8.646 5.058-17.455.03-26.201" style="fill:#c2122b;fill-rule:nonzero" transform="translate(-6.434 -48.609)scale(.23203)"/><path d="M222.778 364.895h-9.121v-14.969h6.353c8.797 0 12.379 2.185 12.379 8.066 0 5.05-3.421 6.903-9.611 6.903m-9.121-37.704h6.272c5.292 0 10.584.423 10.584 6.074 0 6.259-4.394 7.461-11.237 7.461h-5.619zm19.546 18.287v-2.111c7.655-.981 10.75-5.578 10.75-11.759 0-11.76-11.076-14.024-21.255-14.024h-22.479v57.217h21.828c11.482 0 24.269-1.659 24.269-16.433 0-8.591-6.679-12.061-13.113-12.89m-64.779 30.228c-7.082 0-13.273-.602-20.278-2.27v-10.358c6.19 1.291 10.751 1.969 16.941 1.969 6.272 0 12.299-.917 12.299-7.248 0-12.815-28.67-1.618-28.67-24.836 0-12.437 11.238-16.282 22.886-16.282 5.458 0 10.911.454 16.369 1.112v10.058c-4.968-.66-8.305-.962-13.272-.962-5.136 0-11.649-.18-11.649 5.698 0 10.704 29.236 2.188 29.236 24.575 0 14.247-12.377 18.544-23.862 18.544m-58.587-11.036h-6.761v-36.876h7.493c7.005 0 18.161 2.381 18.161 17.835 0 13.644-7.329 19.041-18.893 19.041m2.036-47.086H89.068v57.217h24.516c6.352 0 29.4-4.07 29.4-28.722 0-23.594-15.717-28.495-31.111-28.495" style="fill:#fff;fill-rule:nonzero" transform="translate(-6.434 -48.609)scale(.23203)"/></svg>