<svg xmlns="http://www.w3.org/2000/svg" xml:space="preserve" style="background-color:#163489;fill-rule:evenodd;clip-rule:evenodd;stroke-linejoin:round;stroke-miterlimit:2" viewBox="0 0 64 64"><path d="m122.7 24.6 6.3-7.4H76.9c-.6 0-1.2-.5-1.2-1.2V0h-7.4v20.4c0 4.8-1.3 9.5-3.8 13.6-2.5-4.1-3.8-8.8-3.8-13.6V0h-7.4v16.1c0 .6-.5 1.2-1.2 1.2H0l6.3 7.4h46.2c-1.7 4.5-5.9 7.4-10.7 7.4H12.6l6.3 7.4h22.8c5.3 0 10.4-2.3 14-6.2 1 2.3 2.2 4.6 3.7 6.6-5.1 4.5-11.6 7-18.5 7H25.3l6.3 7.4h9.5c8.6 0 17-3.2 23.4-8.9 6.4 5.8 14.8 8.9 23.4 8.9h9.5l6.3-7.4H87.9c-6.8 0-13.4-2.5-18.5-7 1.5-2.1 2.7-4.3 3.7-6.6 3.6 4 8.7 6.2 14 6.2H110l6.3-7.4H87.2c-4.8 0-9-3-10.7-7.4h46.2zM79.6 80.8c0 2.7-.1 5.8-5.5 5.8h-2.7l3.8 5.4h1.5c8.1 0 10.2-3.5 10.2-10.3V66.8H71.3v5.7h8.2v8.3zm-13.1-14h-7.2v13.9l-9.8-13.9h-7.3V92h7.3V78.2L59.1 92h7.4z" style="fill:#fff;fill-rule:nonzero" transform="translate(5.5 13.1)scale(.41085)"/></svg>