<svg xmlns="http://www.w3.org/2000/svg" xml:space="preserve" style="background-color:#fff;fill-rule:evenodd;clip-rule:evenodd;stroke-linejoin:round;stroke-miterlimit:2" viewBox="0 0 64 64"><path d="M19.56 26.24v-.07a6.4 6.4 0 0 0-.32-1A2.3 2.3 0 0 0 18.09 24a2.15 2.15 0 0 0-.91-.19q-.408.004-.8.12c-.682.198-1.382.329-2.09.39h-1.1a6.7 6.7 0 0 1-3.2-.7 5.83 5.83 0 0 1-2.56-2.87A10.66 10.66 0 0 1 6.66 16a8.77 8.77 0 0 1 1.13-4.14 6.13 6.13 0 0 1 5.56-2.8c.807.005 1.612.095 2.4.27q.518.13 1.05.15.17.015.34 0a2.4 2.4 0 0 0 1.54-1 3.8 3.8 0 0 0 .48-1.38q.048-.173.08-.35a5 5 0 0 0 .15-.79c0-.28-.16-.41-.94-.67l-.24-.08a16.5 16.5 0 0 0-2.81-.72 19 19 0 0 0-3-.24q-1.054 0-2.1.12a11.73 11.73 0 0 0-6.58 2.88 11.66 11.66 0 0 0-3.37 6.29 16.4 16.4 0 0 0 .2 7.62 10.15 10.15 0 0 0 4.22 6 12.87 12.87 0 0 0 7 1.81c1.764.04 3.524-.169 5.23-.62a13.3 13.3 0 0 0 2.45-1c.25-.12.26-.19.26-.22a3 3 0 0 0-.14-.88c-.09-.285 0 0 0-.06m46.3 0v-.06a7.6 7.6 0 0 0-.32-1.05 2.3 2.3 0 0 0-1.15-1.17 2.15 2.15 0 0 0-.91-.19 2.8 2.8 0 0 0-.8.12c-.682.198-1.382.329-2.09.39h-1.1a6.7 6.7 0 0 1-3.2-.7 5.78 5.78 0 0 1-2.56-2.87A10.6 10.6 0 0 1 53 16a8.54 8.54 0 0 1 1.13-4.14 6.13 6.13 0 0 1 5.56-2.8c.807.005 1.612.095 2.4.27a5 5 0 0 0 1 .15q.17.015.34 0a2.32 2.32 0 0 0 1.53-1c.251-.424.417-.893.49-1.38 0-.11 0-.23.08-.35a5 5 0 0 0 .15-.79c0-.28-.17-.41-.94-.67l-.24-.08a16.5 16.5 0 0 0-2.81-.72 19 19 0 0 0-3-.24 18 18 0 0 0-2.1.12A11.67 11.67 0 0 0 50 7.25a11.66 11.66 0 0 0-3.37 6.29c-.531 2.52-.466 5.13.19 7.62a10.23 10.23 0 0 0 4.22 6 12.9 12.9 0 0 0 7 1.81 18.6 18.6 0 0 0 5.21-.61 14.2 14.2 0 0 0 2.46-.94c.25-.13.25-.2.26-.23a2.7 2.7 0 0 0-.15-.88c-.098-.283 0-.07 0-.11M38.88.73a8 8 0 0 1 4.87 4.57 9.35 9.35 0 0 1-.51 7.7 25 25 0 0 1-5.72 6.93c-1.08 1-2.23 1.93-3.33 2.85-.84.69-1.7 1.41-2.53 2.13l-1.2 1.05h10.08a3.4 3.4 0 0 1 1.8.33 2.85 2.85 0 0 1 1.41 2.65v2.34H24.34a1.94 1.94 0 0 1-1-.17c-.08 0-.31-.18-.36-.85s0-1.15 0-1.72v-1a8 8 0 0 1 0-1 2.25 2.25 0 0 1 .76-1.36c1.38-1.33 2.82-2.65 4.21-3.93 1.61-1.46 3.27-3 4.85-4.54a31 31 0 0 0 3.6-4 7.23 7.23 0 0 0 1.47-3.18 3.57 3.57 0 0 0-1.6-3.59 5.4 5.4 0 0 0-2.8-.67h-.69c-.948.104-1.88.315-2.78.63q-.776.26-1.52.6l-.14.07a5 5 0 0 1-.59.24 2.542 2.542 0 0 1-2.99-1.31l-.22-.44c-.42-.8-.71-1.45-.38-1.82.215-.2.458-.368.72-.5l.12-.09c.42-.24.84-.46 1.26-.67A20.5 20.5 0 0 1 29 .89 18 18 0 0 1 34.43 0a13.3 13.3 0 0 1 4.45.73" style="fill:#bb0b80;fill-rule:nonzero" transform="translate(6.016 19.676)scale(.7878)"/></svg>