<svg xmlns="http://www.w3.org/2000/svg" xml:space="preserve" style="background-color:#fff;fill-rule:evenodd;clip-rule:evenodd;stroke-linejoin:round;stroke-miterlimit:2" viewBox="0 0 64 64"><path d="M50.9 69c-13 0-23.5-8.4-23.6-23.9.1-15.5 10.6-23.9 23.6-23.9 5.8 0 10.4.9 14.3 2.4 1.3-4.6 2.9-14.9-7.6-17.9-4.1-1.1-5.7-1.5-12.1-1.5-25.3 0-41.6 16.3-41.6 40.9C3.9 69.6 20.2 86 45.5 86c6.4 0 8.1-.4 12.1-1.5 10.5-2.9 8.9-13.3 7.6-17.9-3.9 1.5-8.5 2.4-14.3 2.4" style="fill:#81c7ed;fill-rule:nonzero" transform="translate(9.815 3.443)scale(.63334)"/><path d="M45.4 4.2C26.1 4.2 11.8 15.1 11.8 34v1.7c.1 2.5.4 4.9 1 7.2v1.6c3.6 12.1 13.4 21.1 31.7 23.9-13.7-2.7-23.7-15.7-23.7-31.3C20.8 19.6 34 5.3 50.2 5.3c3.8 0 7.7.8 11.1 2.3-2.6-2.3-9.5-3.6-15.9-3.4" style="fill:#0067b2;fill-rule:nonzero" transform="translate(9.815 3.443)scale(.63334)"/><path d="M65.1 66.6c-5.4 4.4-12.9 6.8-22.5 7-18 .5-34-11.2-38.7-27C4.6 70.3 20.6 86 45.5 86c6.4 0 8.1-.4 12.1-1.5 10.5-3 8.8-13.3 7.5-17.9" style="fill:#109bd5;fill-rule:nonzero" transform="translate(9.815 3.443)scale(.63334)"/><path d="M50.7 5.3c-16.2 0-29.4 14.2-29.4 31.8 0 15.6 10 28.6 23.7 31.3-10.1-2.2-17.6-10.2-17.7-23.3.1-15.5 10.6-23.9 23.6-23.9 5.8 0 10.4.9 14.3 2.4 1.1-3.9 2.4-11.7-3.3-15.9-3.6-1.6-7.4-2.4-11.2-2.4" style="fill:#1c2d47;fill-rule:nonzero" transform="translate(9.815 3.443)scale(.63334)"/></svg>