<svg xmlns="http://www.w3.org/2000/svg" xml:space="preserve" style="background-color:#4C3049;fill-rule:evenodd;clip-rule:evenodd;stroke-linejoin:round;stroke-miterlimit:2" viewBox="0 0 64 64"><path d="m28.715 2-.839.839V24.76h4.729l.839-.839h-4.729zM45.841 10.524l-.839 1.273V24.76h4.795l.838-.839h-4.794zM35.21 14.499l3.563 5.413.791-.791L35.21 12.5zM.839 2 0 2.839V24.76h16.692l.839-.839H.839z" style="fill:#b29baa;fill-rule:nonzero" transform="translate(5.657 24.606)scale(.63719)"/><path d="M2.605.239h16.538v4.289H7.394v4.45h10.333v4.289H7.394v4.604h11.897v4.289H2.605z" style="fill:#fff;fill-rule:nonzero" transform="translate(5.657 24.606)scale(.63719)"/><path d="M15.961 15.027H7.395v.839h7.733z" style="fill:#b29baa;fill-rule:nonzero" transform="translate(5.657 24.606)scale(.63719)"/><path d="M30.481.239h5.2l5.764 9.268L47.209.239h5.199V22.16H47.62V7.848l-6.235 9.458-6.174-9.363V22.16h-4.73z" style="fill:#fff;fill-rule:nonzero" transform="translate(5.657 24.606)scale(.63719)"/><path d="M17.222 6.444H7.395v.845h8.982zM61.974 2l-.839.839V24.76h4.824l.839-.839h-4.824zM70.587 16.907h-2.023v.839h1.184l4.7 7.013h5.633l.839-.838-5.633.006z" style="fill:#b29baa;fill-rule:nonzero" transform="translate(5.657 24.606)scale(.63719)"/><path d="M63.734.239h10.03c2.79 0 4.949.785 6.389 2.225 1.219 1.22 1.879 2.945 1.879 5.009v.065c0 3.54-1.909 5.765-4.699 6.794l5.354 7.828h-5.64l-4.699-7.013h-3.789v7.013h-4.825zm9.715 10.642c2.349 0 3.694-1.255 3.694-3.099v-.065c0-2.064-1.44-3.129-3.79-3.129h-4.788v6.293z" style="fill:#fff;fill-rule:nonzero" transform="translate(5.657 24.606)scale(.63719)"/><path d="M71.426 6.444h-2.862v.839h2.184c2.409 0 3.729 1.059 3.729 3.04v.065c0 .119-.005.25-.023.387l-.006.024c.25-.048.482-.107.696-.185.077-.291.125-.6.125-.898v-.065c.006-2.029-1.398-3.207-3.843-3.207" style="fill:#b29baa;fill-rule:nonzero" transform="translate(5.657 24.606)scale(.63719)"/></svg>