<svg xmlns="http://www.w3.org/2000/svg" xml:space="preserve" style="background-color:#fff;fill-rule:evenodd;clip-rule:evenodd;stroke-linejoin:round;stroke-miterlimit:2" viewBox="0 0 64 64"><path d="M25.5 14.4c-2.6-2.3-6.1-3.7-9.9-3.7-8.3 0-15 6.7-15 15s6.7 15 15 15c3.8 0 7.2-1.4 9.9-3.7v2.4c-.4 5.1-4.7 9.1-9.9 9.1-3.8 0-7.1-2.2-8.8-5.3H1.4c1.9 6 7.6 10.4 14.2 10.4 8 0 14.8-6.3 15.3-14.2V11.5h-5.4zm-9.8 21.2c-5.5 0-9.9-4.4-9.9-9.9s4.4-9.9 9.9-9.9 9.9 4.4 9.9 9.9c0 5.4-4.5 9.9-9.9 9.9" style="fill:#d70428;fill-rule:nonzero" transform="translate(5.853 5.686)scale(.7979)"/><path d="M210.2 14.4c-2.6-2.3-6.1-3.7-9.9-3.7-8.3 0-15 6.7-15 15s6.7 15 15 15c3.8 0 7.2-1.4 9.9-3.7v2.9h5.4V11.5h-5.4zm-9.9 21.2c-5.5 0-9.9-4.4-9.9-9.9s4.4-9.9 9.9-9.9 9.9 4.4 9.9 9.9c0 5.4-4.4 9.9-9.9 9.9" style="fill:#495965;fill-rule:nonzero" transform="translate(-114.694 5.632)scale(.80007)"/></svg>