<svg xmlns="http://www.w3.org/2000/svg" xml:space="preserve" style="background-color:#1E1D50;fill-rule:evenodd;clip-rule:evenodd;stroke-linejoin:round;stroke-miterlimit:2" viewBox="0 0 64 64"><path d="M11.233 13.746c-.98-.574-1.786-.881-4.358-1.49-2.159-.502-2.834-1.009-2.834-2.161 0-1.045.988-1.86 2.291-1.86 1.354 0 2.099.682 2.27 2.027h3.71V5.707H9.48v1.151C8.495 5.81 7.486 5.403 5.766 5.403c-3.379 0-5.768 2.094-5.768 4.995 0 2.37 1.448 3.986 4.215 4.76l.706.213.683.157.672.207c.74.21 1.31.407 1.584.51.947.368 1.353.909 1.353 1.753 0 1.245-.982 2.023-2.507 2.023-1.582 0-2.491-.778-2.77-2.428H.024v4.931H2.96v-1.452c1.217 1.247 2.47 1.75 4.35 1.75 3.482 0 5.952-2.159 5.952-5.2 0-1.65-.777-3.103-2.03-3.876" style="fill:#fff;fill-rule:nonzero" transform="translate(6.194 10.324)scale(1.53543)"/><path d="M86.88 12.667c.602-2.434 2.63-4.057 5.026-4.057 2.463 0 4.427 1.546 5.192 4.057zm5.026-7.428c-4.894 0-8.74 3.944-8.74 8.908 0 4.962 3.875 8.848 8.838 8.848 3.516 0 6.517-2.026 8.005-5.374h-4.016c-1.053 1.386-2.268 1.998-3.989 1.998-2.528 0-4.424-1.491-5.096-4.016h13.603c.074-.645.105-.95.105-1.386 0-5.133-3.75-8.978-8.71-8.978" style="fill:#00b5f0;fill-rule:nonzero" transform="translate(-96.68 10.324)scale(1.53543)"/></svg>