<svg xmlns="http://www.w3.org/2000/svg" xml:space="preserve" style="background-color:#fff;fill-rule:evenodd;clip-rule:evenodd;stroke-linejoin:round;stroke-miterlimit:2" viewBox="0 0 64 64"><path d="M75.9 115.8c.8 1.1 2.5 1.1 3.8 0 1.3-1 1.6-2.8.8-3.8-.8-1.1-2.6-1.1-3.8 0-1.3 1.1-1.7 2.8-.8 3.8M84 109.1c.9 1.2 2.8 1.2 4.1 0 1.4-1.1 1.7-3 .8-4.2s-2.8-1.2-4.2 0c-1.3 1.2-1.6 3-.7 4.2M97.1 102.4c1.5-1.2 1.9-3.3.9-4.5-1-1.3-3-1.3-4.5 0-1.5 1.2-1.9 3.2-.9 4.5 1.1 1.2 3.1 1.2 4.5 0M88.5 87.6c1 1.2 3 1.3 4.5 0 1.5-1.2 1.9-3.3.9-4.5-1-1.3-3-1.3-4.5 0s-1.9 3.3-.9 4.5M82.2 83.1c-1.5 1.2-1.9 3.2-.9 4.5 1 1.2 3 1.3 4.5 0 1.5-1.2 1.9-3.2.9-4.5-1-1.2-3-1.2-4.5 0M74.6 87.5c.9 1.1 2.8 1.2 4.1 0 1.4-1.1 1.7-3 .8-4.2s-2.8-1.2-4.2 0c-1.2 1.1-1.6 3-.7 4.2M80 94.9c.9 1.2 2.8 1.2 4.1 0 1.4-1.2 1.7-3 .8-4.2s-2.8-1.2-4.2 0c-1.3 1.2-1.7 3.1-.7 4.2M67.8 122.6c.8 1 2.3 1 3.5 0 1.1-1 1.5-2.5.7-3.5s-2.3-1-3.5 0c-1.2.9-1.5 2.5-.7 3.5M73 94.9c.9 1.1 2.8 1.2 4.2 0 1.4-1.1 1.7-3 .8-4.2-.9-1.1-2.8-1.2-4.2 0-1.3 1.2-1.7 3.1-.8 4.2M69.4 98.2c-.8-1.1-2.5-1.1-3.8 0-1.3 1-1.6 2.7-.7 3.8.8 1.1 2.5 1.1 3.8 0 1.2-1 1.5-2.7.7-3.8M66.3 94.8c.8 1.1 2.5 1.1 3.8 0 1.3-1 1.6-2.7.8-3.8s-2.5-1.1-3.8 0c-1.3 1-1.6 2.7-.8 3.8M71.7 102c.8 1.1 2.5 1.1 3.8 0 1.3-1 1.6-2.7.8-3.8s-2.6-1.1-3.8 0c-1.3 1.1-1.6 2.8-.8 3.8M90.3 98.1c-.9-1.2-2.8-1.2-4.2 0-1.4 1.1-1.7 3-.8 4.1.9 1.2 2.8 1.2 4.1 0 1.5-1.1 1.8-3 .9-4.1M68.5 83.3c-1.4 1.1-1.7 3-.8 4.2.9 1.1 2.8 1.2 4.2 0 1.4-1.1 1.7-3 .8-4.2-.9-1.1-2.8-1.2-4.2 0M64 91c-.8-1.1-2.5-1.1-3.8 0s-1.6 2.8-.8 3.8c.8 1.1 2.5 1.1 3.8 0s1.6-2.8.8-3.8M58.1 101.9c.8 1 2.3 1 3.5 0 1.1-.9 1.4-2.5.7-3.5-.8-1-2.3-1-3.5 0-1.2.9-1.5 2.5-.7 3.5M73.3 112.2c-.8-1-2.3-1-3.5 0-1.1 1-1.5 2.5-.7 3.5s2.3 1 3.5 0 1.5-2.5.7-3.5M63.6 108.8c.8 1 2.3 1 3.5 0 1.1-.9 1.5-2.5.7-3.5s-2.3-1-3.5 0c-1.1.9-1.4 2.5-.7 3.5M82.5 102.2c1.4-1.1 1.7-3 .8-4.2s-2.8-1.2-4.2 0c-1.4 1.1-1.7 3-.8 4.2.9 1.1 2.8 1.2 4.2 0M81.8 105.1c-.8-1.1-2.5-1.1-3.8 0-1.3 1-1.6 2.8-.8 3.8.8 1.1 2.5 1.1 3.8 0 1.3-1 1.7-2.7.8-3.8M91.2 95.1c1.5-1.2 1.9-3.3.9-4.5-1-1.3-3-1.3-4.5 0-1.5 1.2-1.9 3.2-.9 4.5s3 1.3 4.5 0M74.9 105.1c-.8-1.1-2.5-1.1-3.8 0s-1.6 2.8-.8 3.8c.8 1.1 2.5 1.1 3.8 0 1.3-1 1.6-2.7.8-3.8M59.7 129.3c.7.9 2.1.9 3.1 0s1.3-2.3.6-3.1c-.7-.9-2.1-.9-3.1 0-1 .8-1.3 2.2-.6 3.1M21.8 149.3c.4.5 1.2.5 1.7 0 .6-.5.7-1.2.3-1.7s-1.2-.5-1.7 0-.7 1.2-.3 1.7M10.7 135.5c.4.5 1.2.5 1.7 0 .6-.5.7-1.2.3-1.7s-1.2-.5-1.7 0c-.5.4-.7 1.2-.3 1.7M16.3 142.4c.4.5 1.2.5 1.7 0 .6-.5.7-1.2.3-1.7s-1.2-.5-1.7 0c-.6.4-.7 1.2-.3 1.7M20.6 156c.3.4.9.4 1.4 0s.6-1 .3-1.4-.9-.4-1.4 0c-.4.4-.6 1.1-.3 1.4M19.3 163c.3.4.9.4 1.4 0s.6-1 .3-1.4-.9-.4-1.4 0-.7 1-.3 1.4M15.1 149.1c.3.4.9.4 1.4 0s.6-1 .3-1.4-.9-.4-1.4 0-.6 1-.3 1.4M9.5 142.2c.3.4.9.4 1.4 0s.6-1 .3-1.4-.9-.4-1.4 0c-.4.4-.6 1-.3 1.4M18.8 128.8c.5.6 1.4.6 2.1 0s.9-1.5.4-2.1-1.4-.6-2.1 0-.9 1.5-.4 2.1M27.4 156.2c.4.5 1.2.5 1.7 0 .6-.5.7-1.2.3-1.7s-1.2-.5-1.7 0c-.6.5-.7 1.2-.3 1.7M62.3 115.7c.8 1 2.3 1 3.5 0 1.1-1 1.5-2.5.7-3.5s-2.3-1-3.5 0c-1.2.9-1.5 2.5-.7 3.5M24.4 135.7c.4.6 1.4.6 2.1 0s.9-1.5.4-2.1-1.4-.6-2.1 0-.9 1.5-.4 2.1M17.6 135.5c.4.5 1.2.5 1.7 0 .6-.5.7-1.2.3-1.7s-1.2-.5-1.7 0c-.5.4-.6 1.2-.3 1.7M23.2 142.4c.4.5 1.2.5 1.7 0 .6-.5.7-1.2.3-1.7s-1.2-.5-1.7 0c-.5.4-.7 1.2-.3 1.7M29.9 142.6c.5.6 1.4.6 2.1 0s.9-1.5.4-2.1-1.4-.6-2.1 0-.9 1.5-.4 2.1M.1 155.8c.2.3.7.3 1 0s.4-.7.2-.9c-.2-.3-.7-.3-1 0-.3.2-.4.7-.2.9M5.7 162.7c.2.3.7.3 1 0s.4-.7.2-.9c-.2-.3-.7-.3-1 0-.4.3-.5.7-.2.9M13.7 156c.3.4.9.4 1.4 0s.6-1 .3-1.4-.9-.4-1.4 0-.6 1.1-.3 1.4M2.6 142.2c.3.4.9.4 1.4 0s.6-1 .3-1.4-.9-.4-1.4 0-.6 1-.3 1.4M8.2 149.1c.3.4.9.4 1.4 0s.6-1 .3-1.4-.9-.4-1.4 0-.6 1.1-.3 1.4M1.5 148.9c.2.3.6.3 1 0 .3-.3.4-.7.2-.9-.2-.3-.7-.3-1 0-.3.2-.4.6-.2.9M7 155.8c.2.3.7.3 1 0s.4-.7.2-.9c-.2-.3-.7-.3-1 0-.3.2-.4.7-.2.9M12.6 162.7c.2.3.7.3 1 0s.4-.7.2-.9c-.2-.3-.7-.3-1 0s-.4.7-.2.9M28.7 149.3c.4.5 1.2.5 1.7 0 .6-.5.7-1.2.3-1.7s-1.2-.5-1.7 0-.6 1.2-.3 1.7M47.4 122.2c.6.8 1.8.8 2.8 0 .9-.8 1.2-2 .6-2.8s-1.8-.8-2.8 0c-.9.8-1.2 2-.6 2.8M48.6 115.5c.7.9 2.1.9 3.1 0s1.3-2.3.6-3.1c-.7-.9-2.1-.9-3.1 0-1 .8-1.3 2.2-.6 3.1M43.1 108.6c.7.9 2.1.9 3.1 0s1.3-2.3.6-3.1c-.7-.9-2.1-.9-3.1 0-1 .8-1.3 2.2-.6 3.1M53 129.1c.6.8 1.8.8 2.8 0 .9-.8 1.2-2 .6-2.8s-1.9-.8-2.8 0c-1 .8-1.2 2-.6 2.8M41.9 115.3c.6.8 1.8.8 2.8 0 .9-.8 1.2-2 .6-2.8s-1.9-.8-2.8 0c-1 .8-1.2 2-.6 2.8M51.6 136c.6.8 1.9.8 2.8 0s1.2-2 .5-2.8c-.6-.8-1.9-.8-2.8 0-.8.8-1.1 2-.5 2.8M46.1 129.1c.6.8 1.9.8 2.8 0s1.2-2 .5-2.8c-.6-.8-1.8-.8-2.8 0-.9.8-1.1 2-.5 2.8M51.2 101.9c.8 1 2.3 1 3.5 0 1.1-.9 1.5-2.5.7-3.5s-2.3-1-3.5 0c-1.2.9-1.5 2.5-.7 3.5M61.1 122.4c.7.9 2.1.9 3.1 0s1.3-2.3.6-3.1c-.7-.9-2.1-.9-3.1 0-1 .8-1.3 2.2-.6 3.1M56.7 108.8c.8 1 2.3 1 3.5 0 1.1-.9 1.5-2.5.7-3.5s-2.3-1-3.5 0c-1.2.9-1.5 2.5-.7 3.5M54.2 122.4c.7.9 2.1.9 3.1 0s1.3-2.3.6-3.1c-.7-.9-2.1-.9-3.1 0-1 .8-1.3 2.2-.6 3.1M55.5 115.5c.7.9 2.1.9 3.1 0s1.3-2.3.6-3.1c-.7-.9-2.1-.9-3.1 0-1 .8-1.3 2.2-.6 3.1M50 108.6c.7.9 2.1.9 3.1 0s1.3-2.2.6-3.1-2.1-.9-3.1 0c-1 .8-1.3 2.2-.6 3.1M32.4 128.9c.5.7 1.6.7 2.4 0s1-1.8.5-2.4c-.5-.7-1.6-.7-2.4 0s-1 1.8-.5 2.4M36.8 142.6c.5.6 1.4.6 2.1 0s.9-1.5.4-2.1-1.4-.6-2.1 0-.8 1.5-.4 2.1M38 135.8c.5.7 1.6.7 2.4 0s1-1.8.5-2.4c-.5-.7-1.6-.7-2.4 0s-1.1 1.8-.5 2.4M26.9 122c.5.7 1.6.7 2.4 0s1-1.8.5-2.4c-.5-.7-1.6-.7-2.4 0s-1 1.8-.5 2.4M35.4 149.5c.5.6 1.4.6 2.1 0s.9-1.5.4-2.1-1.4-.6-2.1 0c-.6.6-.8 1.5-.4 2.1M31.3 135.7c.5.6 1.4.6 2.1 0s.9-1.5.4-2.1-1.4-.6-2.1 0-.9 1.5-.4 2.1M25.7 128.8c.4.6 1.4.6 2.1 0s.9-1.5.4-2.1-1.4-.6-2.1 0-.8 1.5-.4 2.1M33.8 122c.5.7 1.6.7 2.4 0s1-1.8.5-2.4c-.5-.7-1.6-.7-2.4 0s-1 1.8-.5 2.4M43.5 142.7c.5.7 1.6.7 2.4 0s1-1.8.5-2.4c-.5-.7-1.6-.7-2.4 0s-1 1.8-.5 2.4M35 115.3c.6.8 1.9.8 2.8 0s1.2-2 .6-2.8-1.9-.8-2.8 0c-1 .8-1.2 2-.6 2.8M44.9 135.8c.5.7 1.6.7 2.4 0s1-1.7.5-2.4-1.6-.7-2.4 0-1 1.8-.5 2.4M40.5 122.2c.6.8 1.8.8 2.8 0 .9-.8 1.2-2 .6-2.8s-1.9-.8-2.8 0-1.2 2-.6 2.8M39.4 128.9c.5.7 1.6.7 2.4 0s1-1.8.5-2.4c-.5-.7-1.6-.7-2.4 0-.9.7-1.1 1.8-.5 2.4M88.9 51.2c.8 1 2.5 1 3.8 0 1.2-1.1 1.6-2.8.7-3.8-.8-1.1-2.5-1-3.8 0-1.3 1.1-1.6 2.8-.7 3.8M94.5 58.3c.9 1.1 2.8 1.1 4.2 0s1.7-3 .8-4.2c-.9-1.1-2.8-1.1-4.2 0-1.4 1.2-1.7 3.1-.8 4.2M101.3 60.9c-1.5 1.2-1.9 3.3-.9 4.5s3 1.2 4.5 0 1.9-3.3.9-4.5c-1-1.3-3-1.3-4.5 0M90 80.1c1 1.2 3 1.2 4.5 0s1.9-3.3.9-4.5-3-1.2-4.5 0c-1.5 1.3-1.9 3.3-.9 4.5M87.3 80.1c1.5-1.3 1.9-3.3.9-4.5s-3-1.2-4.5 0-1.9 3.3-.9 4.5c1 1.3 3 1.3 4.5 0M76 80c.9 1.1 2.8 1.1 4.2 0s1.7-3 .8-4.2c-.9-1.1-2.8-1.1-4.1 0-1.4 1.2-1.8 3-.9 4.2M84.6 72.5c.9 1.2 2.8 1.1 4.2 0 1.4-1.2 1.7-3 .8-4.2-.9-1.1-2.8-1.1-4.1 0-1.5 1.2-1.9 3.1-.9 4.2M83.4 44.2c.8.9 2.3.9 3.5 0 1.1-1 1.4-2.5.7-3.5-.8-1-2.3-.9-3.5 0-1.2 1-1.4 2.5-.7 3.5M77.6 72.5c.9 1.1 2.8 1.1 4.2 0s1.7-3 .8-4.2c-.9-1.1-2.8-1.1-4.2 0-1.3 1.2-1.7 3.1-.8 4.2M76.9 61.2c-.9-1-2.6-1-3.8 0-1.3 1.1-1.6 2.8-.7 3.8s2.6 1 3.8 0 1.5-2.7.7-3.8M70.9 72.3c.9 1 2.6 1 3.8 0 1.3-1.1 1.6-2.8.7-3.8-.9-1.1-2.6-1-3.8 0-1.2 1.1-1.5 2.8-.7 3.8M79.3 65c.9 1 2.6 1 3.8 0 1.3-1.1 1.6-2.8.7-3.8-.9-1.1-2.6-1-3.8 0-1.3 1.1-1.6 2.8-.7 3.8M98.1 61c-.9-1.1-2.8-1.1-4.2 0s-1.7 3-.8 4.1c.9 1.2 2.8 1.1 4.2 0s1.8-2.9.8-4.1M73.3 80c1.4-1.2 1.7-3 .8-4.2-.9-1.1-2.8-1.1-4.2 0s-1.7 3-.8 4.2c.9 1.1 2.8 1.1 4.2 0M68.5 68.5c-.8-1.1-2.6-1-3.8 0-1.3 1.1-1.6 2.8-.7 3.8s2.6 1 3.8 0c1.2-1.1 1.6-2.8.7-3.8M65.6 64.9c.8 1 2.3 1 3.5 0 1.1-1 1.4-2.5.7-3.5-.8-.9-2.3-.9-3.5 0-1.2 1-1.5 2.5-.7 3.5M86.2 47.6c-.8-1-2.3-.9-3.5 0-1.1 1-1.4 2.5-.7 3.5.8 1 2.3.9 3.5 0 1.2-1 1.5-2.6.7-3.5M73.9 58c.8 1 2.3.9 3.5 0 1.1-1 1.4-2.5.7-3.5-.8-1-2.3-.9-3.5 0-1.2 1-1.5 2.5-.7 3.5M86.8 61.1c-1.4 1.2-1.7 3-.8 4.2.9 1.1 2.8 1.1 4.2 0s1.7-3 .8-4.2c-1-1.2-2.9-1.2-4.2 0M92.1 54.3c-.9-1.1-2.6-1-3.8 0-1.3 1.1-1.6 2.8-.7 3.8s2.6 1 3.8 0 1.5-2.7.7-3.8M92.3 68.2c-1.5 1.2-1.9 3.3-.9 4.5s3 1.2 4.5 0 1.9-3.3.9-4.5c-1-1.3-3-1.3-4.5 0M85.1 54.3c-.8-1-2.6-1-3.8 0-1.3 1.1-1.6 2.8-.7 3.8s2.6 1 3.8 0c1.3-1 1.6-2.7.7-3.8M78 37.1c.7.9 2.1.9 3.1 0s1.3-2.3.6-3.1c-.7-.9-2.1-.9-3.1 0-1 .8-1.3 2.2-.6 3.1M48.1 15.7c.4.5 1.2.5 1.7 0 .6-.5.7-1.2.3-1.7s-1.2-.5-1.7 0c-.5.4-.6 1.2-.3 1.7M31.6 29.5c.4.5 1.2.5 1.7 0 .6-.5.7-1.3.3-1.7-.4-.5-1.2-.5-1.7 0-.5.4-.6 1.2-.3 1.7M39.9 22.6c.4.5 1.2.5 1.7 0 .6-.5.7-1.2.3-1.7s-1.2-.5-1.7 0-.7 1.2-.3 1.7M49.7 8.6c.3.4.9.4 1.4 0s.6-1 .3-1.4-.9-.4-1.4 0-.6 1-.3 1.4M51 1.7c.3.4.9.4 1.4 0s.6-1 .3-1.4-.9-.4-1.4 0-.6 1-.3 1.4M41.4 15.5c.3.4.9.4 1.4 0s.6-1 .3-1.4-.9-.4-1.4 0-.6 1-.3 1.4M33.2 22.4c.3.4 1 .4 1.4 0 .5-.4.6-1 .3-1.4s-.9-.4-1.4 0-.7 1-.3 1.4M37 36.6c.5.6 1.4.6 2.1 0s.9-1.5.4-2.1-1.4-.6-2.1 0c-.6.6-.8 1.5-.4 2.1M56.4 8.8c.4.5 1.2.5 1.7 0 .6-.5.7-1.2.3-1.7s-1.2-.5-1.7 0c-.5.4-.7 1.2-.3 1.7M75.2 51.1c.8 1 2.3 1 3.5 0 1.1-1 1.4-2.5.7-3.5-.8-1-2.3-.9-3.5 0-1.2 1-1.5 2.5-.7 3.5M45.3 29.7c.5.6 1.4.6 2.1 0s.9-1.5.4-2.1-1.4-.6-2.1 0-.9 1.5-.4 2.1M38.6 29.5c.4.5 1.2.5 1.7 0 .6-.5.7-1.2.3-1.7s-1.2-.5-1.7 0c-.6.5-.7 1.2-.3 1.7M46.8 22.6c.4.5 1.2.5 1.7 0 .6-.5.7-1.2.3-1.7s-1.2-.5-1.7 0-.6 1.2-.3 1.7M53.6 22.8c.5.6 1.4.6 2.1 0s.9-1.5.4-2.1-1.4-.6-2.1 0-.9 1.5-.4 2.1M29.1 8.4c.2.3.7.3 1 0s.4-.7.2-.9c-.2-.3-.7-.3-1 0-.3.2-.4.6-.2.9M37.4 1.4c.2.3.7.3 1 0s.4-.7.2-.9c-.2-.3-.7-.3-1 0-.4.3-.5.7-.2.9M42.7 8.6c.3.4.9.4 1.4 0s.6-1 .3-1.4-.9-.4-1.4 0-.6 1-.3 1.4M26.2 22.4c.3.4.9.4 1.4 0s.6-1 .3-1.4-1-.4-1.4 0c-.5.4-.6 1-.3 1.4M34.5 15.5c.3.4.9.4 1.4 0s.6-1 .3-1.4-.9-.4-1.4 0-.6 1-.3 1.4M27.8 15.3c.2.3.7.3 1 0s.4-.7.2-.9c-.2-.3-.7-.2-1 0s-.4.6-.2.9M36 8.4c.2.3.7.3 1 0 .3-.2.4-.7.2-.9-.2-.3-.7-.3-1 0-.3.2-.4.6-.2.9M44.3 1.5c.2.2.7.3 1 0s.4-.7.2-.9c-.2-.3-.7-.3-1 0-.3.2-.4.6-.2.9M55.1 15.7c.4.5 1.2.5 1.7 0 .6-.5.7-1.3.3-1.7-.4-.5-1.2-.5-1.7 0-.6.4-.7 1.2-.3 1.7M63 43.8c.6.8 1.9.8 2.8 0s1.1-2 .5-2.8-1.9-.8-2.8 0c-.8.8-1.1 2.1-.5 2.8M61.5 50.9c.7.9 2.1.9 3.1 0s1.3-2.3.6-3.1c-.7-.9-2.1-.9-3.1 0-1 .8-1.3 2.2-.6 3.1M53.3 57.8c.7.9 2.1.9 3.1 0s1.3-2.3.6-3.1c-.7-.9-2.1-.8-3.1 0-1.1.8-1.3 2.2-.6 3.1M71.3 36.9c.6.8 1.9.8 2.8 0s1.1-2 .5-2.8-1.9-.8-2.8 0-1.1 2.1-.5 2.8M54.8 50.7c.6.8 1.9.8 2.8 0s1.1-2 .5-2.8-1.9-.7-2.8 0c-.9.8-1.1 2.1-.5 2.8M72.6 30c.6.8 1.9.8 2.8 0s1.1-2 .5-2.8-1.9-.7-2.8 0c-.9.8-1.1 2.1-.5 2.8M64.4 36.9c.6.8 1.9.8 2.8 0s1.1-2 .5-2.8-1.9-.8-2.8 0-1.1 2.1-.5 2.8M58.7 64.9c.8 1 2.3 1 3.5 0 1.1-1 1.4-2.5.7-3.5-.8-1-2.3-1-3.5 0s-1.5 2.5-.7 3.5M76.7 44c.7.9 2.1.8 3.1 0 1-.9 1.3-2.3.6-3.1-.7-.9-2.1-.9-3.1 0-1 .8-1.3 2.2-.6 3.1M66.9 58c.8 1 2.3 1 3.5 0 1.1-1 1.4-2.5.7-3.5-.8-1-2.3-.9-3.5 0-1.2 1-1.4 2.5-.7 3.5M69.8 44c.7.9 2.1.9 3.1 0s1.3-2.3.6-3.1c-.7-.9-2.1-.9-3.1 0-1.1.8-1.3 2.2-.6 3.1M68.5 50.9c.7.9 2.1.9 3.1 0s1.3-2.3.6-3.1c-.7-.9-2.1-.9-3.1 0-1.1.8-1.3 2.2-.6 3.1M60.2 57.8c.7.9 2.1.8 3.1 0 1-.9 1.3-2.3.6-3.1-.7-.9-2.1-.9-3.1 0-1 .8-1.3 2.2-.6 3.1M50.7 36.7c.5.7 1.6.7 2.4 0s1-1.8.5-2.4c-.5-.7-1.6-.7-2.4 0s-1 1.8-.5 2.4M60.5 22.8c.5.6 1.4.6 2.1 0s.9-1.5.4-2.1-1.4-.6-2.1 0-.9 1.5-.4 2.1M59 29.9c.5.7 1.6.7 2.4 0s1-1.8.5-2.4c-.5-.7-1.6-.7-2.4 0-.9.6-1.1 1.7-.5 2.4M42.5 43.6c.5.7 1.6.7 2.4 0s1-1.8.5-2.4c-.5-.7-1.6-.7-2.4 0-.9.7-1.1 1.8-.5 2.4M61.8 15.9c.5.6 1.4.6 2.1 0s.9-1.5.4-2.1-1.4-.6-2.1 0-.9 1.5-.4 2.1M52.2 29.7c.5.6 1.4.6 2.1 0s.9-1.5.4-2.1-1.4-.6-2.1 0-.8 1.5-.4 2.1M44 36.6c.5.6 1.4.6 2.1 0s.9-1.5.4-2.1-1.4-.6-2.1 0-.9 1.5-.4 2.1M49.4 43.6c.5.7 1.6.7 2.4 0s1-1.8.5-2.4c-.5-.7-1.6-.7-2.4 0s-1.1 1.8-.5 2.4M67.2 23c.5.7 1.6.7 2.4 0s1-1.8.5-2.4c-.5-.7-1.6-.7-2.4 0-.8.6-1 1.7-.5 2.4M47.9 50.7c.6.8 1.9.8 2.8 0s1.1-2 .5-2.8-1.9-.8-2.8 0-1.2 2.1-.5 2.8M65.9 29.8c.5.7 1.6.7 2.4 0s1-1.8.5-2.4c-.6-.7-1.6-.7-2.4 0s-1 1.8-.5 2.4M56.1 43.8c.6.8 1.9.8 2.8 0s1.1-2 .5-2.8-1.9-.8-2.8 0-1.1 2.1-.5 2.8M57.6 36.8c.5.7 1.6.7 2.4 0s1-1.8.5-2.4c-.5-.7-1.6-.7-2.4 0-.8.6-1 1.7-.5 2.4M106.8 68c-1.6 1.3-2 3.5-1 4.9 1.1 1.3 3.2 1.3 4.8 0s2-3.5 1-4.9-3.2-1.4-4.8 0M106.1 95.3c1.6-1.3 2-3.5.9-4.9-1.1-1.3-3.3-1.3-4.9 0s-2 3.5-.9 4.9c1.1 1.3 3.3 1.3 4.9 0M103.7 83c-1.6 1.3-2 3.5-.9 4.8s3.3 1.3 4.8 0c1.6-1.3 2-3.5.9-4.9-1-1.3-3.2-1.3-4.8.1" style="fill:#15397f;fill-rule:nonzero" transform="translate(.534 7.867)scale(.29556)"/><path d="M105.2 75.5c-1.6 1.3-2 3.5-.9 4.9 1.1 1.3 3.3 1.3 4.8 0 1.6-1.3 2-3.5.9-4.9-1-1.4-3.2-1.4-4.8 0M96.5 83c-1.6 1.3-2 3.5-.9 4.8s3.3 1.3 4.9 0 2-3.5.9-4.9c-1.1-1.3-3.3-1.3-4.9.1" style="fill:#15397f;fill-rule:nonzero" transform="translate(.534 7.867)scale(.29556)"/><path d="M98.1 75.5c-1.6 1.3-2 3.5-.9 4.9 1.1 1.3 3.3 1.3 4.9 0s2-3.5.9-4.9-3.3-1.4-4.9 0M99.7 68c-1.6 1.3-2 3.5-.9 4.8s3.3 1.3 4.9 0c1.6-1.4 2-3.5.9-4.9-1.2-1.3-3.3-1.3-4.9.1M95 90.4c-1.6 1.3-2 3.5-.9 4.8s3.3 1.3 4.9 0c1.6-1.4 2-3.5.9-4.9-1.1-1.2-3.3-1.2-4.9.1" style="fill:#15397f;fill-rule:nonzero" transform="translate(.534 7.867)scale(.29556)"/><path d="M137.1 47.4c-.8-1.1-2.5-1.1-3.8 0-1.3 1-1.6 2.8-.8 3.8.8 1.1 2.5 1.1 3.8 0 1.3-1 1.6-2.7.8-3.8M128.7 54.2c-.9-1.1-2.8-1.2-4.2 0-1.4 1.1-1.7 3-.8 4.2.9 1.1 2.8 1.2 4.2 0s1.7-3.1.8-4.2M124.4 75.6c-1-1.2-3-1.3-4.5 0-1.5 1.2-1.9 3.2-.9 4.5s3 1.3 4.5 0c1.5-1.2 1.9-3.2.9-4.5M130.7 80.1c1.5-1.2 1.9-3.3.9-4.5s-3-1.3-4.5 0c-1.5 1.2-1.9 3.2-.9 4.5s3 1.3 4.5 0M138.3 75.8c-.9-1.1-2.8-1.1-4.1 0-1.4 1.1-1.7 3-.8 4.2s2.8 1.2 4.2 0c1.3-1.2 1.6-3 .7-4.2M133 68.3c-.9-1.2-2.8-1.2-4.2 0-1.4 1.1-1.7 3-.8 4.2.9 1.1 2.8 1.2 4.2 0 1.3-1.1 1.7-3 .8-4.2M145.1 40.7c-.8-1-2.3-1-3.5 0s-1.5 2.5-.7 3.5 2.3 1 3.5 0 1.5-2.5.7-3.5M139.9 68.3c-.9-1.1-2.8-1.2-4.2 0-1.4 1.1-1.7 3-.8 4.2.9 1.1 2.8 1.2 4.2 0 1.3-1.1 1.7-3 .8-4.2M143.6 65c.8 1.1 2.5 1.1 3.8 0 1.3-1 1.6-2.8.8-3.8-.8-1.1-2.6-1.1-3.8 0-1.3 1.1-1.7 2.8-.8 3.8M146.6 68.5c-.8-1.1-2.5-1.1-3.8 0-1.3 1-1.6 2.7-.8 3.8s2.6 1.1 3.8 0c1.3-1 1.6-2.7.8-3.8M141.2 61.2c-.8-1.1-2.5-1.1-3.8 0-1.3 1-1.6 2.7-.8 3.8s2.5 1.1 3.8 0c1.3-1 1.7-2.7.8-3.8M122.4 65.2c.9 1.2 2.8 1.2 4.2 0 1.4-1.1 1.7-3 .8-4.1s-2.8-1.2-4.1 0c-1.5 1.1-1.8 2.9-.9 4.1M144.4 80c1.4-1.1 1.7-3 .8-4.2s-2.8-1.2-4.2 0c-1.4 1.1-1.7 3-.8 4.2 1 1.1 2.8 1.1 4.2 0M149 72.3c.8 1.1 2.5 1.1 3.8 0s1.6-2.8.8-3.8c-.8-1.1-2.5-1.1-3.8 0-1.3 1-1.7 2.7-.8 3.8M154.9 61.4c-.8-1-2.3-1-3.5 0-1.1 1-1.5 2.5-.7 3.5s2.3 1 3.5 0c1.1-1 1.4-2.5.7-3.5M139.6 51.1c.8 1 2.3 1 3.5 0 1.1-1 1.4-2.5.7-3.5-.8-1-2.3-1-3.5 0-1.1.9-1.4 2.5-.7 3.5M149.3 54.5c-.8-1-2.3-1-3.5 0-1.1 1-1.5 2.5-.7 3.5s2.3 1 3.5 0 1.5-2.5.7-3.5M130.4 61c-1.4 1.1-1.7 3-.8 4.2s2.8 1.2 4.2 0c1.4-1.1 1.7-3 .8-4.2-1-1.1-2.9-1.1-4.2 0M131.1 58.1c.8 1.1 2.5 1.1 3.8 0s1.6-2.7.8-3.8-2.5-1.1-3.8 0-1.6 2.8-.8 3.8M121.5 68.1c-1.5 1.2-1.9 3.3-.9 4.5s3 1.3 4.5 0c1.5-1.2 1.9-3.2.9-4.5-1-1.2-3-1.2-4.5 0M138 58.1c.8 1.1 2.5 1.1 3.8 0s1.6-2.8.7-3.8c-.8-1.1-2.5-1.1-3.8 0-1.2 1.1-1.5 2.8-.7 3.8M153.2 34c-.7-.9-2.1-.9-3.1 0s-1.3 2.3-.6 3.1c.7.9 2.1.9 3.1 0s1.3-2.3.6-3.1M191.1 14c-.4-.5-1.2-.5-1.7 0-.6.5-.7 1.2-.3 1.7s1.2.5 1.7 0c.6-.5.7-1.3.3-1.7M202.2 27.8c-.4-.5-1.2-.5-1.7 0-.6.5-.7 1.2-.3 1.7s1.2.5 1.7 0c.6-.5.7-1.3.3-1.7M196.7 20.9c-.4-.5-1.2-.5-1.7 0-.6.5-.7 1.2-.3 1.7s1.2.5 1.7 0 .7-1.2.3-1.7M192.3 7.2c-.3-.4-.9-.4-1.4 0s-.6 1-.3 1.4.9.4 1.4 0 .6-1 .3-1.4M193.7.3c-.3-.4-.9-.4-1.4 0s-.6 1-.3 1.4.9.4 1.4 0 .6-1 .3-1.4M197.9 14.1c-.3-.4-.9-.4-1.4 0s-.6 1-.3 1.4.9.4 1.4 0c.4-.4.6-1 .3-1.4M203.4 21c-.3-.4-.9-.4-1.4 0s-.6 1-.3 1.4.9.4 1.4 0 .6-1 .3-1.4M194.1 34.5c-.5-.6-1.4-.6-2.1 0s-.9 1.5-.4 2.1 1.4.6 2.1 0 .9-1.5.4-2.1M185.6 7c-.4-.5-1.1-.5-1.7 0s-.7 1.2-.4 1.7c.4.5 1.2.5 1.7 0 .6-.4.8-1.2.4-1.7M150.7 47.6c-.8-1-2.3-1-3.5 0-1.1 1-1.5 2.5-.7 3.5s2.3 1 3.5 0 1.5-2.5.7-3.5M188.6 27.6c-.5-.6-1.4-.6-2.1 0s-.9 1.5-.4 2.1 1.4.6 2.1 0 .9-1.5.4-2.1M195.3 27.8c-.4-.5-1.2-.5-1.7 0-.6.5-.7 1.2-.3 1.7s1.2.5 1.7 0 .7-1.2.3-1.7M189.8 20.9c-.4-.5-1.2-.5-1.7 0-.6.5-.7 1.2-.3 1.7s1.2.5 1.7 0 .6-1.2.3-1.7M183 20.7c-.5-.6-1.4-.6-2.1 0s-.9 1.5-.4 2.1 1.4.6 2.1 0 .9-1.5.4-2.1M212.8 7.4c-.2-.3-.7-.3-1 0s-.4.7-.2.9c.2.3.7.3 1 0 .4-.2.4-.6.2-.9M207.3.5c-.2-.3-.7-.3-1 0s-.4.7-.2.9c.2.3.7.3 1 0 .3-.2.4-.6.2-.9M199.2 7.2c-.3-.4-.9-.4-1.4 0s-.6 1-.3 1.4.9.4 1.4 0 .6-1 .3-1.4M210.3 21c-.3-.4-.9-.4-1.4 0s-.6 1-.3 1.4.9.4 1.4 0 .6-1 .3-1.4M204.8 14.1c-.3-.4-.9-.4-1.4 0s-.6 1-.3 1.4.9.4 1.4 0 .6-1 .3-1.4M211.4 14.4c-.2-.3-.6-.3-1 0-.3.3-.4.7-.2.9.2.3.7.3 1 0 .4-.3.5-.7.2-.9M205.9 7.4c-.2-.3-.6-.3-1 0-.3.2-.4.7-.2.9.2.3.7.3 1 0 .3-.2.4-.6.2-.9M200.4.5c-.2-.3-.7-.3-1 0s-.4.7-.2.9c.2.3.7.2 1 0s.4-.6.2-.9M184.2 14c-.4-.5-1.2-.5-1.7 0-.6.5-.7 1.2-.3 1.7s1.2.5 1.7 0 .7-1.3.3-1.7M165.5 41c-.6-.8-1.9-.8-2.8 0s-1.2 2-.6 2.8 1.9.8 2.8 0c1-.7 1.2-2 .6-2.8M164.3 47.8c-.7-.9-2.1-.9-3.1 0s-1.3 2.3-.6 3.1c.7.9 2.1.9 3.1 0s1.3-2.3.6-3.1M169.9 54.7c-.7-.9-2.1-.9-3.1 0s-1.3 2.3-.6 3.1c.7.9 2.1.9 3.1 0s1.3-2.3.6-3.1M159.9 34.2c-.6-.8-1.8-.8-2.8 0-.9.8-1.2 2-.5 2.8.6.8 1.8.8 2.8 0 .9-.8 1.2-2.1.5-2.8M171 47.9c-.6-.8-1.9-.8-2.8 0s-1.2 2-.6 2.8 1.8.8 2.8 0c1-.7 1.3-2 .6-2.8M161.3 27.2c-.6-.8-1.9-.8-2.8 0s-1.2 2-.6 2.8 1.9.8 2.8 0c1-.7 1.2-2 .6-2.8M166.9 34.2c-.6-.8-1.8-.8-2.8 0-.9.8-1.2 2-.6 2.8s1.9.8 2.8 0 1.2-2.1.6-2.8M161.8 61.4c-.8-1-2.3-1-3.5 0-1.1.9-1.5 2.5-.7 3.5s2.3 1 3.5 0 1.5-2.5.7-3.5M151.9 40.9c-.7-.9-2.1-.9-3.1 0s-1.3 2.3-.6 3.1c.7.9 2.1.9 3.1 0s1.2-2.3.6-3.1M156.2 54.5c-.8-1-2.3-1-3.5 0-1.1 1-1.5 2.5-.7 3.5s2.3 1 3.5 0 1.5-2.5.7-3.5M158.8 40.9c-.7-.9-2.1-.9-3.1 0s-1.3 2.3-.6 3.1c.7.9 2.1.9 3.1 0s1.3-2.3.6-3.1M157.4 47.8c-.7-.9-2.1-.9-3.1 0s-1.3 2.2-.6 3.1 2.1.9 3.1 0 1.3-2.3.6-3.1M162.9 54.7c-.7-.9-2.1-.9-3.1 0s-1.3 2.2-.6 3.1 2.1.9 3.1 0c1.1-.9 1.3-2.3.6-3.1M180.5 34.3c-.5-.7-1.6-.7-2.4 0s-1 1.8-.5 2.4c.5.7 1.6.7 2.4 0 .8-.6 1-1.7.5-2.4M176.1 20.7c-.5-.6-1.4-.6-2.1 0s-.9 1.5-.4 2.1 1.4.6 2.1 0 .9-1.5.4-2.1M175 27.4c-.5-.7-1.6-.7-2.4 0s-1 1.8-.5 2.4c.5.7 1.6.7 2.4 0 .8-.6 1-1.7.5-2.4M186.1 41.2c-.5-.7-1.6-.7-2.4 0s-1 1.8-.5 2.4c.5.7 1.6.7 2.4 0 .8-.6 1-1.7.5-2.4M177.5 13.8c-.5-.6-1.4-.6-2.1 0s-.9 1.5-.4 2.1 1.4.6 2.1 0 .9-1.5.4-2.1M181.7 27.6c-.5-.6-1.4-.6-2.1 0s-.9 1.5-.4 2.1 1.4.6 2.1 0c.6-.6.8-1.5.4-2.1M187.2 34.5c-.5-.6-1.4-.6-2.1 0s-.9 1.5-.4 2.1 1.4.6 2.1 0 .9-1.5.4-2.1M179.1 41.2c-.5-.7-1.6-.7-2.4 0s-1 1.8-.5 2.4c.5.7 1.6.7 2.4 0 .9-.6 1.1-1.7.5-2.4M169.4 20.5c-.5-.7-1.6-.7-2.4 0s-1 1.8-.5 2.4c.5.7 1.6.7 2.4 0 .8-.6 1-1.7.5-2.4M178 47.9c-.6-.8-1.8-.8-2.8 0-.9.8-1.2 2-.6 2.8s1.9.8 2.8 0c.9-.7 1.2-2 .6-2.8M168 27.4c-.5-.7-1.6-.7-2.4 0s-1 1.8-.5 2.4c.5.7 1.6.7 2.4 0 .9-.6 1.1-1.7.5-2.4M172.4 41c-.6-.8-1.8-.8-2.8 0-.9.8-1.2 2-.6 2.8s1.9.8 2.8 0c1-.7 1.2-2 .6-2.8M173.6 34.3c-.5-.7-1.6-.7-2.4 0s-1 1.8-.5 2.4c.5.7 1.6.7 2.4 0 .8-.6 1-1.7.5-2.4M124 112c-.9-1-2.6-1-3.8 0-1.3 1-1.6 2.8-.7 3.8.9 1.1 2.6 1 3.8 0 1.3-1 1.6-2.7.7-3.8M118.4 104.9c-.9-1.1-2.8-1.1-4.2 0-1.4 1.2-1.7 3-.8 4.2.9 1.1 2.8 1.1 4.1 0 1.5-1.2 1.8-3 .9-4.2M122.9 83.1c-1-1.2-3-1.2-4.5 0s-1.9 3.3-.9 4.5 3 1.2 4.5 0 1.9-3.2.9-4.5M125.5 83.1c-1.5 1.3-1.9 3.3-.8 4.5 1 1.2 3 1.2 4.5 0 1.5-1.3 1.9-3.3.9-4.5-1.1-1.2-3.1-1.2-4.6 0M136.8 83.3c-.9-1.2-2.8-1.1-4.2 0s-1.7 3-.8 4.2c.9 1.1 2.8 1.1 4.2 0 1.4-1.2 1.7-3.1.8-4.2" style="fill:#bbc2db;fill-rule:nonzero" transform="translate(.534 7.867)scale(.29556)"/><path d="M116.3 80.3c1.6-1.3 2-3.5 1-4.9-1.1-1.3-3.2-1.3-4.8 0s-2 3.5-1 4.8c1 1.5 3.2 1.5 4.8.1" style="fill:#15397f;fill-rule:nonzero" transform="translate(.534 7.867)scale(.29556)"/><path d="M110.8 83c-1.6 1.3-2 3.5-.9 4.8s3.2 1.3 4.8 0 2-3.5.9-4.9c-1-1.3-3.2-1.3-4.8.1" style="fill:#15397f;fill-rule:nonzero" transform="translate(.534 7.867)scale(.29556)"/><path d="M115.7 60.9c-1.5 1.2-1.9 3.3-.9 4.5 1 1.3 3 1.3 4.5 0 1.5-1.2 1.9-3.3.9-4.5-1-1.3-3.1-1.3-4.5 0" style="fill:#bbc2db;fill-rule:nonzero" transform="translate(.534 7.867)scale(.29556)"/><path d="M113 72.8c1.1 1.3 3.2 1.4 4.8 0 1.6-1.3 2-3.5 1-4.9-1.1-1.3-3.2-1.4-4.9 0-1.5 1.4-2 3.6-.9 4.9M111.6 102.4c1.5-1.2 1.9-3.3.9-4.5s-3-1.2-4.5 0-1.9 3.3-.9 4.5 3.1 1.2 4.5 0M108.3 95.3c1.1 1.3 3.3 1.3 4.9 0s2-3.5.9-4.9c-1.1-1.3-3.3-1.3-4.9 0-1.5 1.4-1.9 3.6-.9 4.9M128.3 90.8c-.9-1.1-2.8-1.1-4.2 0s-1.7 3-.8 4.2c.9 1.1 2.8 1.1 4.2 0 1.4-1.2 1.7-3.1.8-4.2M129.4 119.1c-.8-1-2.3-1-3.5 0-1.1 1-1.4 2.5-.7 3.5.8 1 2.3.9 3.5 0 1.2-1 1.5-2.6.7-3.5M135.2 90.8c-.9-1.1-2.8-1.1-4.2 0s-1.7 3-.8 4.2c.9 1.1 2.8 1.1 4.2 0 1.4-1.2 1.8-3.1.8-4.2M136 102c.9 1 2.6 1 3.8 0 1.3-1.1 1.6-2.8.7-3.8-.9-1.1-2.6-1-3.8 0-1.2 1.1-1.6 2.8-.7 3.8M142 91c-.8-1.1-2.6-1-3.8 0-1.2 1.1-1.6 2.8-.7 3.8.9 1.1 2.6 1.1 3.8 0s1.5-2.8.7-3.8M133.6 98.2c-.9-1-2.6-1-3.8 0-1.3 1.1-1.6 2.8-.7 3.8.9 1.1 2.6 1 3.8 0s1.6-2.7.7-3.8M114.8 102.2c.9 1.1 2.8 1.1 4.2 0s1.7-3 .8-4.1c-.9-1.2-2.8-1.1-4.2 0s-1.8 3-.8 4.1M139.6 83.3c-1.4 1.2-1.7 3-.8 4.2.9 1.1 2.8 1.1 4.2 0s1.7-3 .8-4.2c-1-1.2-2.9-1.1-4.2 0M144.4 94.8c.9 1 2.6 1 3.8 0 1.3-1.1 1.6-2.8.7-3.8s-2.6-1-3.8 0c-1.3 1-1.6 2.7-.7 3.8M147.3 98.4c-.8-1-2.3-.9-3.5 0-1.1 1-1.4 2.5-.7 3.5.8 1 2.3 1 3.5 0 1.1-1 1.4-2.6.7-3.5M126.6 115.7c.8 1 2.3.9 3.5 0 1.1-1 1.4-2.5.7-3.5-.8-1-2.3-.9-3.5 0-1.1 1-1.4 2.5-.7 3.5M139 105.3c-.8-1-2.3-1-3.5 0-1.1 1-1.4 2.5-.7 3.5.8 1 2.3 1 3.5 0s1.5-2.6.7-3.5M126.1 102.2c1.4-1.2 1.7-3 .8-4.2-.9-1.1-2.8-1.1-4.2 0s-1.7 3-.8 4.2c1 1.2 2.8 1.2 4.2 0M120.8 108.9c.9 1.1 2.6 1.1 3.8 0 1.3-1.1 1.6-2.8.7-3.8s-2.6-1-3.8 0c-1.2 1.1-1.5 2.8-.7 3.8M120.5 95.1c1.5-1.2 1.9-3.3.9-4.5s-3-1.2-4.5 0-1.9 3.3-.9 4.5c1 1.3 3 1.3 4.5 0M127.7 108.9c.9 1 2.6 1 3.8 0 1.2-1.1 1.6-2.8.7-3.8s-2.6-1-3.8 0c-1.2 1.1-1.5 2.8-.7 3.8M134.8 126.2c-.7-.9-2.1-.9-3.1 0s-1.3 2.3-.6 3.1c.7.9 2.1.9 3.1 0 1.1-.9 1.3-2.3.6-3.1M164.7 147.6c-.4-.5-1.2-.5-1.7 0-.6.5-.7 1.2-.3 1.7s1.2.5 1.7 0c.6-.5.7-1.2.3-1.7M181.2 133.8c-.4-.5-1.2-.5-1.7 0-.6.5-.7 1.3-.3 1.7.4.5 1.2.5 1.7 0 .6-.5.7-1.3.3-1.7M173 140.7c-.4-.5-1.2-.5-1.7 0-.6.5-.7 1.3-.3 1.7.4.5 1.2.5 1.7 0s.7-1.3.3-1.7M163.2 154.7c-.3-.4-.9-.4-1.4 0s-.6 1-.3 1.4.9.4 1.4 0 .6-1.1.3-1.4M161.9 161.6c-.3-.4-.9-.4-1.4 0s-.6 1-.3 1.4 1 .4 1.4 0c.5-.4.6-1 .3-1.4M171.5 147.7c-.3-.4-.9-.4-1.4 0s-.6 1-.3 1.4.9.4 1.4 0 .6-1 .3-1.4M179.7 140.8c-.3-.4-.9-.4-1.4 0-.4.4-.6 1-.3 1.4s.9.4 1.4 0 .6-1 .3-1.4M175.8 126.7c-.5-.6-1.4-.6-2.1 0s-.9 1.5-.4 2.1 1.4.6 2.1 0 .9-1.5.4-2.1M156.5 154.5c-.4-.5-1.2-.5-1.7 0-.6.5-.7 1.3-.3 1.7.4.5 1.2.5 1.7 0s.7-1.2.3-1.7M137.7 112.2c-.8-1-2.3-.9-3.5 0-1.1 1-1.4 2.5-.7 3.5.8.9 2.3.9 3.5 0 1.2-1 1.5-2.6.7-3.5M167.6 133.6c-.5-.6-1.4-.6-2.1 0s-.9 1.5-.4 2.1 1.4.6 2.1 0 .8-1.5.4-2.1M174.3 133.8c-.4-.5-1.2-.5-1.7 0-.6.5-.7 1.2-.3 1.7s1.2.5 1.7 0 .7-1.3.3-1.7M166 140.7c-.4-.5-1.2-.5-1.7 0-.6.5-.7 1.2-.3 1.7s1.2.5 1.7 0c.6-.5.7-1.3.3-1.7M159.3 140.5c-.5-.6-1.4-.6-2.1 0s-.9 1.5-.4 2.1 1.4.6 2.1 0 .9-1.5.4-2.1M183.8 154.9c-.2-.3-.7-.3-1 0s-.4.7-.2.9c.2.3.7.3 1 0 .3-.2.4-.7.2-.9M175.5 161.8c-.2-.3-.7-.3-1 0s-.4.7-.2.9c.2.3.7.3 1 0 .3-.2.4-.6.2-.9M170.1 154.7c-.3-.4-.9-.4-1.4 0s-.6 1-.3 1.4.9.4 1.4 0 .7-1.1.3-1.4M186.6 140.8c-.3-.4-.9-.4-1.4 0s-.6 1-.3 1.4 1 .4 1.4 0c.5-.4.7-1 .3-1.4M178.4 147.7c-.3-.4-.9-.4-1.4 0s-.6 1-.3 1.4 1 .4 1.4 0c.5-.3.6-1 .3-1.4M185.1 148c-.2-.3-.7-.3-1 0s-.4.7-.2.9c.2.3.7.3 1 0s.4-.7.2-.9M176.8 154.9c-.2-.3-.7-.3-1 0s-.4.7-.2.9c.2.3.7.3 1 0 .4-.2.4-.7.2-.9M168.6 161.8c-.2-.3-.7-.3-1 0s-.4.7-.2.9c.2.3.7.3 1 0 .3-.2.4-.6.2-.9M157.8 147.6c-.4-.5-1.2-.5-1.7 0-.6.5-.7 1.2-.3 1.7s1.2.5 1.7 0 .7-1.2.3-1.7M149.8 119.4c-.6-.8-1.9-.8-2.8 0s-1.1 2-.5 2.8 1.9.8 2.8 0 1.1-2 .5-2.8M151.4 112.4c-.7-.9-2.1-.9-3.1 0s-1.3 2.3-.6 3.1c.7.9 2.1.9 3.1 0s1.2-2.3.6-3.1M159.6 105.5c-.7-.9-2.1-.9-3.1 0s-1.3 2.3-.6 3.1c.7.9 2.1.9 3.1 0s1.3-2.3.6-3.1M141.6 126.3c-.6-.8-1.9-.8-2.8 0s-1.1 2-.5 2.8 1.9.8 2.8 0 1.1-2 .5-2.8M158.1 112.5c-.6-.8-1.9-.8-2.8 0s-1.1 2-.5 2.8 1.9.7 2.8 0c.9-.8 1.1-2 .5-2.8M140.2 133.2c-.6-.8-1.9-.8-2.8 0s-1.1 2-.5 2.8 1.9.8 2.8 0 1.2-2 .5-2.8M148.5 126.3c-.6-.8-1.9-.8-2.8 0s-1.2 2-.5 2.8c.6.8 1.9.8 2.8 0s1.1-2 .5-2.8M154.2 98.4c-.8-.9-2.3-.9-3.5 0-1.1 1-1.4 2.5-.7 3.5.8 1 2.3 1 3.5 0s1.5-2.6.7-3.5M136.2 119.3c-.7-.9-2.1-.8-3.1 0-1 .9-1.3 2.3-.6 3.1.7.9 2.1.9 3.1 0s1.3-2.3.6-3.1M145.9 105.3c-.8-1-2.3-1-3.5 0-1.1 1-1.4 2.5-.7 3.5.8 1 2.3.9 3.5 0 1.2-1 1.5-2.6.7-3.5M143.1 119.3c-.7-.9-2.1-.9-3.1 0s-1.3 2.3-.6 3.1c.7.9 2.1.9 3.1 0s1.3-2.3.6-3.1M144.4 112.4c-.7-.9-2.1-.8-3.1 0-1 .9-1.3 2.3-.6 3.1.7.9 2.1.9 3.1 0 1.1-.9 1.3-2.3.6-3.1M152.7 105.5c-.7-.9-2.1-.9-3.1 0s-1.3 2.3-.6 3.1c.7.9 2.1.9 3.1 0s1.3-2.3.6-3.1M162.2 126.5c-.5-.7-1.6-.7-2.4 0s-1 1.8-.5 2.4c.5.7 1.6.7 2.4 0 .8-.6 1-1.7.5-2.4M152.4 140.5c-.5-.6-1.4-.6-2.1 0s-.9 1.5-.4 2.1 1.4.6 2.1 0 .9-1.5.4-2.1M153.9 133.4c-.5-.7-1.6-.7-2.4 0s-1 1.8-.5 2.4c.5.7 1.6.7 2.4 0 .8-.6 1.1-1.7.5-2.4M170.4 119.6c-.5-.7-1.6-.7-2.4 0s-1 1.8-.5 2.4c.5.7 1.6.7 2.4 0 .8-.6 1.1-1.7.5-2.4M151.1 147.4c-.5-.6-1.4-.6-2.1 0s-.9 1.5-.4 2.1 1.4.6 2.1 0 .8-1.5.4-2.1M160.6 133.6c-.5-.6-1.4-.6-2.1 0s-.9 1.5-.4 2.1 1.4.6 2.1 0 .9-1.5.4-2.1M168.9 126.7c-.5-.6-1.4-.6-2.1 0s-.9 1.5-.4 2.1 1.4.6 2.1 0 .9-1.5.4-2.1M163.5 119.6c-.5-.7-1.6-.7-2.4 0s-1 1.8-.5 2.4c.5.7 1.6.7 2.4 0 .8-.6 1-1.7.5-2.4M145.7 140.3c-.5-.7-1.6-.7-2.4 0s-1 1.8-.5 2.4c.5.7 1.6.7 2.4 0 .8-.6 1-1.7.5-2.4M165 112.5c-.6-.8-1.9-.8-2.8 0s-1.1 2-.5 2.8 1.9.8 2.8 0 1.1-2 .5-2.8M147 133.4c-.5-.7-1.6-.7-2.4 0s-1 1.8-.5 2.4c.5.7 1.6.7 2.4 0 .8-.6 1-1.7.5-2.4M156.8 119.4c-.6-.8-1.9-.8-2.8 0s-1.1 2-.5 2.8 1.9.8 2.8 0c.8-.8 1.1-2 .5-2.8M155.2 126.5c-.5-.7-1.6-.7-2.4 0s-1 1.8-.5 2.4c.6.7 1.6.7 2.4 0 .9-.6 1.1-1.7.5-2.4" style="fill:#bbc2db;fill-rule:nonzero" transform="translate(.534 7.867)scale(.29556)"/></svg>