<svg xmlns="http://www.w3.org/2000/svg" xml:space="preserve" style="background-color:#fff;fill-rule:evenodd;clip-rule:evenodd;stroke-linejoin:round;stroke-miterlimit:2" viewBox="0 0 64 64"><path d="m233.7 9.309 10.807 3.039q.439.13.883.272.462.152.882.4l4.221-11.106q.19-.512.316-.815c.074-.157.117-.327.128-.5a.49.49 0 0 0-.284-.444 1.5 1.5 0 0 0-.726-.155q-.471 0-.94.055l-9.64 1.152a4.4 4.4 0 0 0-.853.255 1.53 1.53 0 0 0-.758.7zm3.876 28.51 8.286-22.277q.284-.8-.11-1.152a2.7 2.7 0 0 0-1.024-.545l-30.559-8.864c-.358-.086-.689-.158-.992-.225a7 7 0 0 0-.916-.126 10 10 0 0 0-.96-.017q-.504.016-1.135.08l-16.035 1.921q-1.2.128-1.2.607 0 .417 1.1.737l34.749 9.954-15.91 28.006a2.04 2.04 0 0 0-.284.992.96.96 0 0 0 .329.767c.287.214.636.326.994.32a4.4 4.4 0 0 0 1.733-.385l19.282-7.233a5.7 5.7 0 0 0 1.575-.942 3.85 3.85 0 0 0 1.07-1.618m40.578-13.572q-.062-.45-.977-.7l-28.986-8.383c.047.144.063.296.046.447q-.012.28-.11.545l-2.42 6.974 18.933 5.377a7.2 7.2 0 0 0 1.938.27 4.7 4.7 0 0 0 1.529-.27l9.293-3.488q.823-.32.758-.771" style="fill:#ca123f;fill-rule:nonzero" transform="translate(-115.102 17.013)scale(.62452)"/></svg>