<svg xmlns="http://www.w3.org/2000/svg" xml:space="preserve" style="background-color:#fff;fill-rule:evenodd;clip-rule:evenodd" viewBox="0 0 64 64"><path d="m-101.445 396.935 95.884-121.618c34.341-34.767 66.692-51.985 112.104-50.515 9.693.387 33.132 2.573 33.132 2.573" style="fill:#f9b129;fill-rule:nonzero;stroke:#f9b129;stroke-width:1.4px" transform="translate(13.894 9.532)scale(.07456)"/><path d="M137.117 226.88 41.233 348.498c-34.341 34.767-66.692 51.984-112.104 50.515-9.693-.388-33.132-2.573-33.132-2.573" style="fill:#f9b129;fill-rule:nonzero;stroke:#f9b129;stroke-width:1.4px" transform="translate(13.894 9.532)scale(.07456)"/><path d="m47.982 396.771 95.884-121.618c34.342-34.767 66.692-51.985 112.104-50.515 9.693.387 33.133 2.573 33.133 2.573" style="fill:#539f3b;fill-rule:nonzero;stroke:#539f3b;stroke-width:1.4px" transform="translate(13.894 9.532)scale(.07456)"/><path d="m287.043 227.215-95.884 121.618c-34.341 34.767-66.692 51.984-112.104 50.515-9.693-.388-33.132-2.573-33.132-2.573" style="fill:#539f3b;fill-rule:nonzero;stroke:#539f3b;stroke-width:1.4px" transform="translate(13.894 9.532)scale(.07456)"/><path d="m199.264 397.51 95.885-121.618c34.341-34.767 66.692-51.985 112.104-50.516 9.692.388 33.132 2.574 33.132 2.574" style="fill:#0097cc;fill-rule:nonzero;stroke:#0098cc;stroke-width:1.4px" transform="translate(13.894 9.532)scale(.07456)"/><path d="m438.325 227.953-95.884 121.618c-34.341 34.768-66.692 51.985-112.104 50.516-9.693-.388-33.132-2.574-33.132-2.574" style="fill:#0097cc;fill-rule:nonzero;stroke:#0098cc;stroke-width:1.4px" transform="translate(13.894 9.532)scale(.07456)"/><path d="m348.597 397.269 95.884-121.617c34.342-34.768 66.692-51.985 112.104-50.516 9.693.388 33.133 2.574 33.133 2.574" style="fill:#171717;fill-rule:nonzero;stroke:#171717;stroke-width:1.4px" transform="translate(13.894 9.532)scale(.07456)"/><path d="m587.658 227.713-95.884 121.618c-34.342 34.767-66.692 51.985-112.104 50.515-9.693-.387-33.133-2.573-33.133-2.573" style="fill:#171717;fill-rule:nonzero;stroke:#171717;stroke-width:1.4px" transform="translate(13.894 9.532)scale(.07456)"/></svg>