<svg xmlns="http://www.w3.org/2000/svg" xml:space="preserve" style="background-color:#fff;fill-rule:evenodd;clip-rule:evenodd;stroke-linejoin:round;stroke-miterlimit:2" viewBox="0 0 64 64"><path d="m139.994 76.627-10.438 18.077h77.09l-21.742 37.663H80.538c-12.4 0-16.687-10.146-9.526-22.547l19.163-33.193z" style="fill-rule:nonzero" transform="translate(-15.75 7.344)scale(.32364)"/><path d="M150.436 58.543h77.094l-10.437 18.083h-77.098z" style="fill:#ffd500;fill-rule:nonzero" transform="translate(-15.75 7.344)scale(.32364)"/><path d="M145.419 20h27.271l-22.253 38.543h-49.82l9.235-15.995C117.013 30.146 133.017 20 145.419 20" style="fill:#e31b18;fill-rule:nonzero" transform="translate(-15.75 7.344)scale(.32364)"/><path d="M145.419 20h27.271l-22.253 38.543h-49.82l9.235-15.995C117.013 30.146 133.017 20 145.419 20" style="fill:#e30613;fill-rule:nonzero" transform="translate(-15.75 7.344)scale(.32364)"/></svg>