<svg xmlns="http://www.w3.org/2000/svg" xml:space="preserve" style="background-color:#fff;fill-rule:evenodd;clip-rule:evenodd;stroke-linejoin:round;stroke-miterlimit:2" viewBox="0 0 64 64"><path d="m41.1 8.7-.4.9h-6c-.9 0-1.5.4-1.9 1.2l-3.6 8.1c-.2.2-.2.3-.2.5 0 .5.4.8 1 .8h6.4l-.6 1.4c-1.1 2.4-2.3 2.7-5 2.7H24c-1.7 0-2.7-.8-2.7-2.1q0-.45.3-1.2l5.8-12.8c1.1-2.4 2.4-2.7 5-2.7h6.4c1.7 0 2.7.8 2.7 2.1-.1.2-.2.6-.4 1.1M24.5 9.4l1.8-3.9h-6.6l-1.8 3.9zM16.9 11.7l-5.7 12.6h6.5l5.8-12.6z" style="fill:#d15e23" transform="translate(-4.313 17.1)"/><path d="M25.5 6c-.4.9-1.2 2.6-1.4 3h-5.5c.4-.9 1.2-2.6 1.4-3zm-5.8-1c-.2 0-.4.1-.4.3l-1.8 4c-.1.2-.1.3 0 .5.1.1.2.2.4.2h6.6c.2 0 .4-.1.4-.3l1.8-4c.1-.2.1-.3 0-.5-.1-.1-.3-.2-.4-.2zM22.7 12.2c-.6 1.2-5 11.1-5.3 11.6h-5.5c.6-1.2 5-11.1 5.3-11.6zm-5.8-1c-.2 0-.4.1-.4.3l-5.7 12.6c-.1.2-.1.3 0 .5.1.1.2.2.4.2h6.6c.2 0 .4-.1.4-.3l5.7-12.6c.1-.2.1-.3 0-.5-.1-.1-.2-.2-.4-.2zM61 8.6s-.2.5-.3.7h-5.8c-1.1 0-1.8.5-2.2 1.4l-3.6 8.1c-.1.2-.1.4-.1.6 0 .7.5 1.1 1.3 1.1h5.9c-.2.4-.4.9-.4.9-1 2.2-2.1 2.5-4.7 2.5h-6.3c.7-.4 1.2-1.2 1.7-2.2l.6-1.4c.1-.1 0-.3 0-.4-.1-.1-.2-.2-.3-.2h-3.9l4.4-9.7h3.8c.2 0 .3-.1.4-.2l.4-.9c.2-.5.4-1 .4-1.3 0-.7-.3-1.3-.7-1.7h7.6c1.5 0 2.4.6 2.4 1.8-.3 0-.4.4-.6.9M46.3 10l-4.4 9.7h-1.8c-.3 0-.6-.1-.6-.4 0-.1 0-.1.1-.3l3.6-8.1c.3-.7.7-1 1.5-1zm-10.1.1-4.3 9.6H30c-.1 0-.5 0-.5-.3 0-.1 0-.1.1-.2l3.6-8.1c.3-.6.7-.9 1.5-.9h1.5zm-3.4 13.5c-.5.1-.8.1-1.2.1h-7.7c-1.4 0-2.2-.6-2.2-1.6 0-.2 0-.5.3-1l5.8-12.8c1-2.1 2-2.4 4.6-2.4h6.3c.6 0 .8 0 1.3.2s.9.6.9 1.4c0 .1 0 .5-.3 1 0 0-.2.3-.3.6h-5.7q-1.65 0-2.4 1.5l-3.6 8.1s-.2.3-.2.7c0 .7.6 1.3 1.5 1.3h5.6c-.2.4-.3.7-.3.7-.6 1.4-1.2 2-2.4 2.2m10.1.2c-.7-.3-1.1-.8-1.1-1.5 0-.3.1-.7.3-1.1l.3-.6h3.5l-.4.8c-.6 1.3-1.2 1.9-2.2 2.2-.1.1-.3.1-.4.2m6.3-17.9v.5c.2-.2.5-.3.8-.4h.1c.7.3 1.1.8 1.1 1.5 0 .2 0 .5-.3 1l-.3.6h-3.3l.4-.8c.1-.3.2-.5.4-.7V6.5c-.4.4-.6.9-1 1.6l-.5 1.1h-1.8c-1.1 0-1.9.5-2.3 1.4l-3.6 8.1c-.1.2-.2.4-.2.6 0 .7.6 1.2 1.4 1.2h1.5l-.1.3c-.2.5-.4 1-.4 1.4 0 .6.3 1.2.7 1.6h-7.2c.6-.5 1.1-1.1 1.5-2.1l.6-1.4c.1-.2.1-.3 0-.5-.1-.1-.2-.2-.4-.2h-3.6L37 10h3.6c.2 0 .4-.1.4-.3l.4-.9c.2-.5.4-1 .4-1.4 0-.7-.2-1.2-.6-1.6h7.5c-.3.2-.5.4-.7.6v1.1q.45-.9 1.2-1.2zm12.7 1.7c0-1.5-1.2-2.4-3-2.4h-6.4c-.8 0-1.5 0-2.1.2-.4-.2-.9-.2-1.5-.2h-6.4c-.9 0-1.6 0-2.3.2-.4-.2-1-.3-1.6-.3h-6.4c-2.8 0-4.3.4-5.5 3l-5.8 12.8c-.2.5-.4 1-.4 1.4 0 1.5 1.2 2.5 3.2 2.5h6.8c.9 0 1.7 0 2.4-.2.3.1.7.1 1 .1h6.8c.9 0 1.6 0 2.3-.2.3.1.6.1.9.1h6.8c2.8 0 4.2-.4 5.3-2.9l.6-1.4V20c-.1-.1-.2-.1-.3-.1h-6.4c-.4 0-.6-.2-.6-.5 0-.1 0-.2.1-.3L53 11c.3-.7.8-1 1.6-1h6c.1 0 .2-.1.3-.2.1-.3.4-.9.4-.9.5-.6.6-1.1.6-1.3" style="fill:#133058" transform="translate(-4.313 17.1)"/></svg>