<svg xmlns="http://www.w3.org/2000/svg" xml:space="preserve" style="fill-rule:evenodd;clip-rule:evenodd;stroke-linejoin:round;stroke-miterlimit:2" viewBox="0 0 64 64"><path d="M497.3 522.4c2.8 0 6.8-1.7 6.8-8.8s-4-8.8-6.8-8.8-6.8 1.7-6.8 8.8 3.9 8.8 6.8 8.8" style="background-color:#fff;fill:#de342b;fill-rule:nonzero" transform="translate(-5.13 -5.06)scale(.07423)"/><path d="m214.8 153.4-3.2 10h6.4zM531.1 153.4h-.1l-3.2 10h6.4z" style="fill:#de342b;fill-rule:nonzero" transform="translate(5.7 21.166)scale(.07423)"/><path d="M573.8 522.4c2.8 0 6.8-1.7 6.8-8.8s-4-8.8-6.8-8.8-6.8 1.7-6.8 8.8 4 8.8 6.8 8.8M323.2 505.4h-6.5v6.7h6.2c2.7 0 4.1-.9 4.1-3.4-.1-1.4-.7-3.3-3.8-3.3" style="fill:#de342b;fill-rule:nonzero" transform="translate(-5.13 -5.06)scale(.07423)"/><path d="M406 242.3h100.4l21.6-26H384.4z" style="fill:#de342b;fill-rule:nonzero" transform="translate(5.7 21.166)scale(.07423)"/><path d="M458.4 505.4h-4.2v7.4h4.9c3.9 0 3.9-2.8 3.9-3.9 0-2.5-1.3-3.5-4.6-3.5" style="fill:#de342b;fill-rule:nonzero" transform="translate(-5.13 -5.06)scale(.07423)"/><path d="M331.4 520.5c0-4.7-1.1-5.5-3.2-6.4 2.5-.8 3.9-3.2 3.9-6 0-2.2-1.2-7.1-7.9-7.1h-12.7v25.1h5.1v-9.8h5.4c3.9 0 4.1 1.3 4.1 4.8a15.2 15.2 0 0 0 .6 5.1h5.8v-.7c-1.1-.4-1.1-1.3-1.1-5m-8.6-8.4h-6.2v-6.7h6.5c3.1 0 3.7 1.9 3.7 3.3.1 2.5-1.3 3.4-4 3.4M357.7 501.1l-8.9 25.1h5.5l1.7-5.2h9.3l1.6 5.2h5.7l-8.9-25.1zm-.2 15.6 3.2-9.9h.1l3.1 9.9z" style="fill:#f2eb38;fill-rule:nonzero" transform="translate(-5.13 -5.06)scale(.07423)"/><path d="M243.7 147.8h5.2v25.1h-5.2z" style="fill:#f2eb38" transform="translate(5.7 21.166)scale(.07423)"/><path d="M273 147.8h-5.2v25.1h17.7v-4.6H273z" style="fill:#f2eb38;fill-rule:nonzero" transform="translate(5.7 21.166)scale(.07423)"/><path d="M460.5 501.1H449v25.1h5.2v-9h6c6.8 0 8-5.7 8-8 .1-5-2.8-8.1-7.7-8.1m-1.4 11.7h-4.9v-7.4h4.2c3.3 0 4.6 1 4.6 3.5 0 1.1 0 3.9-3.9 3.9M497.3 526.8c3.3 0 12.1-1.4 12.1-13.2s-8.7-13.2-12.1-13.2-12.1 1.4-12.1 13.2 8.7 13.2 12.1 13.2m0-22c2.8 0 6.8 1.7 6.8 8.8s-4 8.8-6.8 8.8-6.8-1.7-6.8-8.8 3.9-8.8 6.8-8.8" style="fill:#f2eb38;fill-rule:nonzero" transform="translate(-5.13 -5.06)scale(.07423)"/><path d="M399.4 168.3h-12.5v-20.5h-5.3v25.1h17.8z" style="fill:#f2eb38;fill-rule:nonzero" transform="translate(5.7 21.166)scale(.07423)"/><path d="M573.8 526.8c3.3 0 12-1.4 12-13.2s-8.7-13.2-12-13.2-12.1 1.4-12.1 13.2 8.8 13.2 12.1 13.2m0-22c2.8 0 6.8 1.7 6.8 8.8s-4 8.8-6.8 8.8-6.8-1.7-6.8-8.8 4-8.8 6.8-8.8" style="fill:#f2eb38;fill-rule:nonzero" transform="translate(-5.13 -5.06)scale(.07423)"/><path d="M462.8 155h.1l10.2 17.9h5.3v-25.1h-4.9v17.4h-.1l-10-17.4h-5.5v25.1h4.9z" style="fill:#f2eb38;fill-rule:nonzero" transform="translate(5.7 21.166)scale(.07423)"/><path d="M497 147.8h5.3v25.1H497z" style="fill:#f2eb38" transform="translate(5.7 21.166)scale(.07423)"/><path d="M672.3 521h9.3l1.6 5.2h5.7l-8.8-25.1H674l-8.9 25.1h5.5zm4.6-14.3 3.2 9.9h-6.4z" style="fill:#f2eb38;fill-rule:nonzero" transform="translate(-5.13 -5.06)scale(.07423)"/><path d="M601 430.2c-7.5-12-15.3-24.2-19.7-30.2-8.5-11.6-34.2-46.7-81.1-46.7s-72.7 35.2-81.1 46.7c-3.4 4.7-9.2 13.5-17.6 26.9-.7 1.1-1.4 2.2-2 3.3H145.9l179 214.8h82.3l4.2-5 16.5-19.8h-91.3L198.7 455h214.4c2.4-3.9 5.7-9.2 9.2-14.9 6.2-9.8 13-20.5 16.6-25.5 7.3-10 26.8-36.6 61.2-36.6s53.8 26.6 61.2 36.6c5.7 7.8 19.3 29.7 25.9 40.3h214.4L663.9 620.3h-91.3l19.3 23.2 1.3 1.6h82.3l179-214.8H601z" style="fill:#de342b;fill-rule:nonzero" transform="translate(-5.13 -5.06)scale(.07423)"/><path d="m477.4 544.8-7.8-9.4h32.2l7.8 9.4h184.9l54.3-65.1H505.6L484.9 455h73.2c-6.2-9.9-13.2-21-16.7-25.7-5.8-7.9-19.4-26.5-41.2-26.5s-35.4 18.5-41.2 26.5c-4.1 5.6-13.1 19.9-19.9 30.9l18.6 22.3 7.8 9.4h-32.2l-4.3-5.2-3.5-4.2-2.2-2.7H251.6l54.3 65.1h139.3l20.6 24.8H326.5l21.6 26h132.6l-36.3 43.6-1.5 1.8-3.4 4.1H561l-16.4-19.7zM674 501.1h6.1l8.8 25.1h-5.7l-1.6-5.2h-9.3l-1.8 5.2H665zm-31.1 0h5.3v25.1h-5.3zm-39.1 0h5.5l10 17.5h.1v-17.5h4.9v25.1H619l-10.2-17.9h-.1v17.9h-4.9zm-30-.7c3.3 0 12 1.4 12 13.2s-8.7 13.2-12 13.2-12.1-1.4-12.1-13.2 8.8-13.2 12.1-13.2m-46.3.7h5.3v20.6h12.5v4.5h-17.7v-25.1zm-30.2-.7c3.3 0 12.1 1.4 12.1 13.2s-8.7 13.2-12.1 13.2-12.1-1.4-12.1-13.2 8.7-13.2 12.1-13.2m-164.8 25.8h-5.8a15.2 15.2 0 0 1-.6-5.1c0-3.4-.2-4.8-4.1-4.8h-5.4v9.8h-5.1V501h12.7c6.7 0 7.9 4.9 7.9 7.1a6.01 6.01 0 0 1-3.9 6c2.1.9 3.2 1.7 3.2 6.4 0 3.7 0 4.6 1.1 5zm34.4 0-1.6-5.2H356l-1.7 5.2h-5.5l8.9-25.1h6.1l8.9 25.1zm27.9 0h-5.2v-25.1h5.2zm36.6 0h-17.7v-25.1h5.2v20.6h12.5zm28.9-9.1h-6v9H449V501h11.5c4.9 0 7.8 3.1 7.8 8 0 2.4-1.3 8.1-8 8.1" style="fill:#de342b;fill-rule:nonzero" transform="translate(-5.13 -5.06)scale(.07423)"/><path d="m265.5 286.8-4.2 5zM297 287.6l-3.5 4.2z" style="fill:#f2eb38;fill-rule:nonzero" transform="translate(5.7 21.166)scale(.07423)"/><path d="M801.7 455H587.2c-6.5-10.6-20.1-32.5-25.9-40.3-7.3-10-26.8-36.6-61.2-36.6s-53.8 26.6-61.2 36.6c-3.6 5-10.5 15.6-16.6 25.5-3.5 5.6-6.9 11-9.2 14.9H198.7l137.8 165.3h91.3l-16.5 19.8-4.1 5h32.2l3.4-4.1 1.5-1.8 36.3-43.6H348.1l-21.6-26h139.3l-20.6-24.8H305.8l-54.3-65.1h171.6l2.2 2.7 3.5 4.2 4.3 5.2h32.2l-7.8-9.4-18.6-22.3c6.8-10.9 15.8-25.3 19.9-30.9 5.8-7.9 19.4-26.5 41.2-26.5s35.4 18.5 41.2 26.5c3.5 4.7 10.5 15.8 16.7 25.7h-73.2l20.6 24.8h243.3l-54.3 65.1H509.7l-7.8-9.4h-32.2l7.8 9.4 67.1 80.5 16.4 19.7h32.2l-1.3-1.6-19.3-23.2h91.3zM551.9 595.6l-21.6-26h143.6l-21.6 26z" style="fill:#f2eb38;fill-rule:nonzero" transform="translate(-5.13 -5.06)scale(.07423)"/></svg>