<svg xmlns="http://www.w3.org/2000/svg" width="512" height="512" fill="none">
  <rect id="a" width="512" height="512" x="0" y="0" fill="#4B61D1" stroke="#FFF" stroke-opacity="100%" stroke-width="0" paint-order="stroke" rx="128"/>
  <svg xmlns="http://www.w3.org/2000/svg" width="352" height="352" x="80" y="80" stroke="currentColor" stroke-linecap="round" stroke-linejoin="round" stroke-width="2" alignment-baseline="middle" style="color:#fff;width:352px;height:352px" viewBox="0 0 24 24">
    <path d="M8 3.1V7a4 4 0 0 0 8 0V3.1M9 15l-1-1M15 15l1-1"/>
    <path d="M9 19c-2.8 0-5-2.2-5-5v-4a8 8 0 0 1 16 0v4c0 2.8-2.2 5-5 5ZM8 19l-2 3M16 19l2 3"/>
  </svg>
</svg>
