<svg xmlns="http://www.w3.org/2000/svg" width="64" height="64" fill="none" viewBox="0 0 512 512">
  <rect width="464" height="464" x="24" y="24" fill="#4B61D1" stroke="#FFF" stroke-opacity="100%" stroke-width="48" paint-order="stroke" rx="112"/>
  <svg xmlns="http://www.w3.org/2000/svg" width="352" height="352" x="80" y="80" stroke="#fff" stroke-linecap="round" stroke-linejoin="round" stroke-width="2" alignment-baseline="middle" viewBox="0 0 24 24">
    <path d="M8 3.1V7a4 4 0 0 0 8 0V3.1M9 15l-1-1m7 1 1-1"/>
    <path d="M9 19c-2.8 0-5-2.2-5-5v-4a8 8 0 0 1 16 0v4c0 2.8-2.2 5-5 5Zm-1 0-2 3m10-3 2 3"/>
  </svg>
</svg>
