<svg xmlns="http://www.w3.org/2000/svg" xml:space="preserve" style="background-color:#fff;fill-rule:evenodd;clip-rule:evenodd;stroke-linejoin:round;stroke-miterlimit:2" viewBox="0 0 64 64"><path d="M0 0h-7.714l-5.106 5.293c-1.526 1.581-3.288 2.024-4.865 2.024h-23.637c-1.307 0-2.899.457-4.243 1.63l-1.918 1.872h34.377c2.556 0 4.101-.433 6.114-2.756zm-51.844 16.002c2.013-2.323 3.558-2.757 6.113-2.757h34.378l-1.919 1.873c-1.343 1.172-2.936 1.629-4.242 1.629h-23.637c-1.577 0-3.34.444-4.865 2.024l-5.106 5.294h-7.714z" style="fill:#f1511b;fill-rule:nonzero" transform="matrix(.89143 0 0 -.89143 58.224 42.726)"/></svg>