<svg width="512" height="512" viewBox="0 0 512 512" fill="none" xmlns="http://www.w3.org/2000/svg" xmlns:xlink="http://www.w3.org/1999/xlink"><rect id="_r_12_" width="512" height="512" x="0" y="0" rx="128" fill="#6363FF" stroke="#FFFFFF" stroke-width="0" stroke-opacity="100%" paint-order="stroke"></rect><clipPath id="clip"><use xlink:href="#_r_12_"></use></clipPath><defs><linearGradient id="_r_13_" gradientUnits="userSpaceOnUse" gradientTransform="rotate(45)" style="transform-origin: center center;"><stop stop-color="#6363FF"></stop><stop offset="1" stop-color="#4A00E0"></stop></linearGradient><radialGradient id="_r_14_" cx="0" cy="0" r="1" gradientUnits="userSpaceOnUse" gradientTransform="translate(256) rotate(90) scale(512)"><stop stop-color="white"></stop><stop offset="1" stop-color="white" stop-opacity="0"></stop></radialGradient></defs><svg xmlns="http://www.w3.org/2000/svg" width="352" height="352" viewBox="0 0 24 24" x="80" y="80" alignment-baseline="middle" style="color: rgb(255, 255, 255); width: 352px; height: 352px;"><path fill="currentColor" d="M13.588 22.413Q13 21.825 13 21q0-.575.275-1.025T14 19.25v-5.525q-.45-.275-.725-.712T13 12q0-.825.588-1.412T15 10t1.413.588T17 12q0 .575-.275 1.013t-.725.712V16.6l4-1.325v-1.55q-.45-.275-.725-.712T19 12q0-.825.588-1.412T21 10t1.413.588T23 12q0 .575-.275 1.013t-.725.712v1.525q0 .65-.375 1.175t-1 .725L16 18.7v.55q.45.275.725.725T17 21q0 .825-.587 1.413T15 23t-1.412-.587M4 20q-.825 0-1.412-.587T2 18V6q0-.825.588-1.412T4 4h5.175q.4 0 .763.15t.637.425L12 6h9q.425 0 .713.288T22 7t-.288.713T21 8h-6q-1.65 0-2.825 1.175T11 12q0 .775.263 1.45t.737 1.2v3.7q-.325.35-.537.762t-.338.888z"></path></svg></svg>