<svg xmlns="http://www.w3.org/2000/svg" xml:space="preserve" style="background-color:#fff;fill-rule:evenodd;clip-rule:evenodd;stroke-linejoin:round;stroke-miterlimit:2" viewBox="0 0 64 64"><path d="M24.5 46.29c-12.547 0-22.755-10-22.755-22.29S11.953 1.71 24.5 1.71s22.755 10 22.755 22.29S37.047 46.29 24.5 46.29M24.5 0C10.97 0 0 10.745 0 24s10.97 24 24.5 24S49 37.255 49 24 38.03 0 24.5 0M12.43 19.034h24.143V17.38H12.43v1.655zm0-3.31h24.143v-1.655H12.43zm0-3.31h24.143v-1.656H12.43zm7.041 9.93h10.06V20.69H19.47v1.656zm-.001 16.552h10.061v-1.655H19.47zm0-3.31h10.061V33.93H19.47zm.001-6.62h10.06V27.31H19.47v1.655zm-.001 3.31h10.061v-1.655H19.47zm.001-6.62h10.06V24H19.47v1.655z" style="fill:red" transform="translate(5.5 6.04)scale(1.08163)"/></svg>