<svg xmlns="http://www.w3.org/2000/svg" xml:space="preserve" style="background-color:#09292f;fill-rule:evenodd;clip-rule:evenodd;stroke-linejoin:round;stroke-miterlimit:2" viewBox="0 0 64 64"><path d="M262.3 115.3c.1.5.1 1.2.2 2 0-.8-.1-1.4-.2-2m.2 2.3v.6zm-.1.9v.6zm0 1c0 .2 0 .4-.1.6 0-.2.1-.4.1-.6m-.1 1c0 .2-.1.5-.1.8 0-.3 0-.5.1-.8m-.4 2.4c.1-.4.2-.8.2-1.2-.1.4-.2.8-.2 1.2m-13.6 36.6s-.5-7.9-.4-7.9l6.1-7.4 1.5-1.8-5.6-5.7.5-1.1 2.5-5.4 1.9-4.1c2.4-5.9 2.2-9.4 2-10.9v-.1c0-.1 0-.3-.1-.4.1-.3.3-.7.4-1 .1-.2.2-.5.2-.7 0-.1 0-.2.1-.2.1-.3.2-.6.2-.9.1-.3.1-.6.2-.9.7-3.9-.6-7-3.8-7.9-1-.3-2.1-.2-3.3 0-1.1-1-2.2-1.9-3.3-2.5-3.6-2.2-8.8-3.7-15.4-4.5-7.7-.9-17.4-5.9-25.5-10.4-4-2.3-12.5-7.3-15.7-9.1l-3.9-2.6.3-3 .6-6.3c.2-1.4.5-3.9.7-6.1.8-7 6-13.1 10.6-16.2 2.2-1.5 4-3.7 4.3-4.6-.2-.4-.3-.9-.3-1.3-3.4.4-8.2.8-11.6-.2-5.5-1.6-14.2-.2-20.3 1.1 3.7 9 .8 24.3-1.4 33.3-.1.4-2.1 7.8-2.2 8.2-3.4 16.4 12.8 26.6 16.1 28.6l.1 33.7s-.2.5-1 1.3l-4.3-31.2c-15.3-10.2-18.5-24.2-15.8-34.4.1-.2 1.7-6 1.7-6.3 2.4-9.6 5.1-24.8 1.6-31.7l-2.4-4.7c.2-.3.6-.6 1-.7.7-.2 18.1-5.6 28.5-2.5 3.8 1.1 11.4-.2 12.7-.5 1-.2 2 .1 2.7.8.7.8.9 1.9.5 2.8-.2.6-.4 1.3-.4 1.7 1.9 4.5-3.9 9.6-6.4 11.3-3.7 2.4-7.9 7.7-8.5 13 0 .2-.1.5-.2.7-.4 3.9-.7 7.7-.8 8.8 0 .5 0 1.5 1 2.1.1.1 1.3.8 1.6 1 12.3 7 26.4 16.3 38.9 18.1 7.5 1.1 13.9 3.4 18.5 6.1.6.4 1.3.9 2 1.4 2 .1 4 .5 5.3 1.3 2.8 1.8 3.8 4.7 3.9 8.1 0 1.3-.4 2.8-1.1 4.2l-.6 1c.1.5.1 1 .1 1.6.3 2.1.3 4.9-.6 8.4-.8 3.3-2.4 7.3-5.1 12 0 .2 0 .4.1.5 1.9 2.3 6 6.8 6 6.8s-6.1 7.5-11.1 13.6h-.1c-1.7 2-2.6 3.1-2.9 3.4zm-10.9-23.2c.6-.8.5-.5 1.3-1.8l4.7-6.8-7.2-2.6-24.1-8.7c-12.1-3.6-17.7 1.9-19.3 3.3v1c4.6-1.3 6.4-2.1 16.7.8 7.5 2.1 23.2 8.1 23.6 8.3 3.5 1.1 3.4 5.7 3.4 5.7 0 .1.1.4.9.8M184.8 23.2l-30.3-.2c-1.8 0-3.5-.2-5.1-.5-5.4-1-10.3-3.5-13.7-7.5-3.9-4.5-5.7-9.4-6.6-15h.8c3.7 12 13.6 17.1 24.8 17.1 0 0-6.3-4.9-8.3-16.9h1.2c2.3 12.3 14.5 17.4 25.3 17.4 0 0-7-7-8.6-17.2h1.1c2.3 9.1 11.1 17 27.1 17.2 8.6.1 14-2.5 17.9-7.5 2.6-3.2 5.1-6.7 5.8-9.2h1.2c0 1.1-1.8 7.8-4.7 11.9s-3.7 4.6-3.7 4.6l-.3.5c12.8 0 22.6-11.9 24.3-16.8h1.2c-.3 1.1-2.2 7-5.6 11.1-4.9 6-11.5 11.3-29.3 11.2z" style="fill:#fff;fill-rule:nonzero" transform="translate(-31.994 6.028)scale(.32567)"/></svg>