<svg xmlns="http://www.w3.org/2000/svg" xml:space="preserve" style="background-color:#fff;fill-rule:evenodd;clip-rule:evenodd;stroke-linejoin:round;stroke-miterlimit:2" viewBox="0 0 64 64"><path d="M0 0c0-15.297-12.558-27.698-28.053-27.698-15.493 0-28.054 12.401-28.054 27.698s12.561 27.698 28.054 27.698C-12.558 27.698 0 15.297 0 0" style="fill:#f08300;fill-rule:nonzero" transform="matrix(.85065 0 0 -.85065 55.963 32.039)"/><path d="M0 0c-14.969 0-27.148-12.179-27.148-27.15 0-14.968 12.179-27.147 27.148-27.147 14.97 0 27.148 12.179 27.148 27.147C27.148-12.179 14.97 0 0 0m0-58.225c-17.135 0-31.076 13.94-31.076 31.075C-31.076-10.012-17.135 3.927 0 3.927S31.076-10.012 31.076-27.15c0-17.135-13.941-31.075-31.076-31.075" style="fill:#0d0d0d;fill-rule:nonzero" transform="matrix(.85065 0 0 -.85065 32 8.906)"/><path d="M0 0c-1.746.155-4.451.971-6.054 2.761-3.06 3.413-3.829 12.648-.518 17.697 2.962 4.52 7.78 4.658 9.291 4.578l.037 3.85c-2.072.152-8.462.057-12.614-6.275-4.062-6.199-3.667-17.403.88-22.472C-5.863-3.334-.782-3.987 1.238-3.987c.505 0 .826.024.884.029l1.805.144V16.12H0z" style="fill:#0d0d0d;fill-rule:nonzero" transform="matrix(.85065 0 0 -.85065 27.428 42.503)"/><path d="M0 0c0 11.083 8.116 12.557 8.609 12.635l-.014.182-.236 1.767.224-1.593-.264 3.552C6.336 16.127-3.928 13.326-3.928 0c0-14.74 12.108-16.163 12.231-16.176l.416 3.905C8.362-12.229 0-11.125 0 0" style="fill:#0d0d0d;fill-rule:nonzero" transform="matrix(.85065 0 0 -.85065 37.647 32.107)"/></svg>