<svg xmlns="http://www.w3.org/2000/svg" xml:space="preserve" style="background-color:#fff;fill-rule:evenodd;clip-rule:evenodd;stroke-linejoin:round;stroke-miterlimit:2" viewBox="0 0 64 64"><path d="M538.6 319.64 432.45 1.06 326.29 319.64 246.65 80.71H193.5l132.8 398.22 106.16-318.58L538.6 478.93 671.38 80.71h-53.13zm325.3-56.89c0-41.506-34.154-75.66-75.66-75.66H673.65v212.2h50.3v-61.1h56.2l28.56 61.1h55.18l-34.13-73.5c20.6-13.7 34.03-36.8 34.13-63.02v-.02zM723.93 237.5h64.29c13.857 0 25.26 11.403 25.26 25.26s-11.403 25.26-25.26 25.26h-64.85zm-551.48 30.38h-58.6v50.4h41.2v21.85a62.6 62.6 0 0 1-41.261 15.529c-34.331 0-62.58-28.249-62.58-62.58 0-34.33 28.249-62.58 62.58-62.58 15.21 0 29.91 5.545 41.331 15.591l-.07-.05 21.73-46.65a110.66 110.66 0 0 0-62.47-19.12h-.47.02C51.57 180.33 1.1 230.84 1.1 293.14 1.11 355.47 51.64 406 113.98 406c37.5 0 70.73-18.3 91.26-46.44l.22-.32V268.2z" style="fill:#0a493e;fill-rule:nonzero" transform="translate(5.533 18.134)scale(.0612)"/></svg>