<svg xmlns="http://www.w3.org/2000/svg" xml:space="preserve" style="background-color:#fff;fill-rule:evenodd;clip-rule:evenodd;stroke-linejoin:round;stroke-miterlimit:2" viewBox="0 0 64 64"><path d="M108.6 39.6c-.2 0-.4 0-.5-.1-.4-.1-.8-.5-1-.9-.3-.7-.1-1.6.6-2l27.5-15.9c-2.7 1.3-5 2.3-7 3.3-8.7 4-8.8 3.9-9.6 3.6-.4-.1-.7-.4-.9-.8-.3-.7-.1-1.5.6-2l18.1-12.1c-.1 0-.2 0-.3-.1l.5-1.5-.6-1.4c.1 0 .5-.3 1.2-.6 15-7.5 15.4-7.4 16.3-7.1.4.1.7.4.9.8.3.7.1 1.5-.6 2l-18.6 12.5c10.5-4.9 24-11.4 34.5-16.5.8-.4 1.7-.1 2.1.7s.1 1.7-.6 2.1l-38.1 22c14.1-6.7 31.4-15.1 44.4-21.5.8-.4 1.7-.1 2.1.7s.1 1.7-.7 2.1c-.2.1-17 8.4-34 16.6-29.8 14.3-34.9 16.1-36.3 16.1" style="fill:#e50071;fill-rule:nonzero" transform="translate(6.232 9.968)scale(.24356)"/><path d="M107.7 181.1c-.2 0-.3 0-.5-.1-.4-.1-.7-.4-.9-.8-.3-.7-.1-1.6.6-2 7.3-4.8 17.2-11.4 24.8-16.5-3.9 1.9-8.1 3.9-11.8 5.7-20.8 10.2-20.9 10.1-21.9 9.8-.4-.1-.7-.5-.9-.8-.6-1.3.6-2.1 1-2.4s.9-.6 1.6-1.1c1.3-.8 3.2-2 5.8-3.5 4.8-2.9 11.4-6.7 18.4-10.8 4.8-2.8 10.1-5.9 15.2-8.9l-48.2 22.5c-.8.4-1.7 0-2.1-.8-.2-.4-.5-1.4.9-2.2.2-.1.5-.3.8-.5.7-.4 1.7-.9 3-1.7 2.4-1.3 5.9-3.2 10.7-5.8 6.7-3.6 14.8-8 23.2-12.5-14.5 6.8-30.3 14.3-43.4 20.5-.8.4-1.7.1-2.1-.7s-.1-1.7.6-2.1l61.1-34.3c-13.1 6.2-27.5 13.1-39.3 18.6-8.2 3.8-14.2 6.6-18.6 8.6-8.1 3.6-8.3 3.5-9.1 3.3-.4-.1-.7-.5-.9-.8-.8-1.7.8-3 4.9-5.6 1.8-1.1 4.1-2.5 6.9-4.1-16.6 7.8-17.1 7.6-18 7.3-.4-.1-.7-.4-.9-.8-.8-1.7.8-3 5.7-5.9 1.6-1 3.7-2.1 6.1-3.4-13.8 6.1-14.9 5.7-15.6 5.4-.5-.2-.8-.5-1-.9-.4-.8 0-1.7.7-2.1 34.2-17.1 79.9-40.2 108.4-55.2-11.1 5.4-24.1 11.7-36.4 17.8-17.8 8.7-36.1 17.8-50.2 24.5C62 150.3 61 149.9 59.9 149.6c-.5-.2-.8-.5-1-.9-.7-1.4.7-2.3 2.1-3.2 1-.7 2.6-1.6 4.6-2.7 3.7-2.1 9.2-5.2 16.4-9.1 10.8-5.8 25.4-13.6 43.5-23.1-13 6.3-25.8 12.4-36.9 17.7-34 16-35.3 15.6-36.4 15.2-.4-.2-.8-.5-1-.9-.1-.1-.6-1.4.8-2.1.1-.1.3-.2.5-.3.4-.2 1.1-.6 1.9-1 1.5-.8 3.8-2 7-3.6 6-3 14.5-7.4 24.3-12.3 27.1-13.7 69.6-35.3 96.5-49.2-12.4 5.7-30.4 14.1-56.7 26.6-38.7 18.5-76.9 37.1-77.2 37.2-.4.2-.8.2-1.2.1s-.7-.4-.9-.8c-.8-1.7 1.1-3.1 3.3-4.6 2-1.3 4.9-3.1 8.8-5.3 6.9-3.9 17.2-9.3 30.5-16 2.2-1.1 4.5-2.3 6.8-3.4-1.3.6-2.7 1.3-4 1.9-13.6 6.6-25.4 12.2-34.1 16.3C43 133 43 133 42.1 132.7c-.4-.1-.7-.4-.9-.8-.7-1.5.9-2.5 2-3.2 1-.7 2.5-1.5 4.5-2.7 3.7-2 9-4.8 16.4-8.6 13.7-7 32.1-16.1 51.6-25.7 21.6-10.7 44-21.8 61.4-30.7 7.4-3.8 13.1-6.8 17.4-9.1-3.2 1.5-7.1 3.3-11.8 5.6-14.5 7-33 16.1-52.5 25.9-21.8 10.8-44.3 22-61.7 30.3-29.8 14.2-31.4 13.6-32.6 13.2-.5-.2-.9-.5-1.1-1-.8-1.7 1.2-3 2.8-4.1s4-2.5 7.1-4.3c1.1-.6 2.2-1.2 3.4-1.9-15 6.4-16.4 5.9-17.3 5.6-.5-.2-.9-.5-1.1-1-.4-.8 0-1.7.7-2.1L101 82.8c-18.3 8.6-33.4 15.6-45 21-8.8 4.1-15.7 7.3-20.4 9.4-2.5 1.2-4.5 2-5.8 2.6-2.5 1.1-2.6 1.2-3.3.9-.4-.1-.7-.4-.9-.8-.4-.8 0-1.7.7-2.1 39-18.9 89.3-43.6 126.2-62.1-7.5 3.7-15.2 7.5-22.6 11.2-24.2 12-49.3 24.5-69.2 33.9-34.3 16.3-36.2 15.6-37.5 15.2-.5-.2-.9-.5-1.1-1-.8-1.7.7-3.2 7.5-7.3 4.4-2.7 11-6.3 19.7-10.8 14.5-7.6 34.9-17.9 60.5-30.5 16.7-8.2 33.5-16.4 48-23.3-14 6.5-31.4 14.8-51.9 24.7-23.6 11.6-47 23.2-63.3 31.3l-22.5 11.3c-.8.4-1.7.1-2.1-.7s-.1-1.7.7-2.1c.2-.1 9-4.5 22.5-11.3l52.3-26.2L18.6 101q-.6.3-1.2 0c-.4-.1-.7-.4-.9-.8-.9-1.8.8-3.4 7.9-7.5C29 90 35.8 86.5 45.1 81.9c17.1-8.6 40.2-19.5 62.5-30.1 20.2-9.6 39.3-18.6 54.1-26 10-4.9 16.2-8.2 20-10.3-2 .8-4.7 1.9-8.2 3.3-7.7 3.3-18 8-31.5 14.4C117.4 44.9 87.1 59.9 62.7 72c-13.8 6.9-25.6 12.8-34.3 17-14.5 7-14.7 6.9-15.6 6.6-.4-.1-.7-.5-.9-.8-.7-1.6 1-2.8 2.2-3.5 1.2-.8 2.9-1.8 5.3-3.2 4.3-2.4 10.6-5.7 19.2-10 3.2-1.6 6.7-3.3 10.3-5.1-3 1.4-5.8 2.7-8.5 3.9-27.7 12.7-28.6 12.4-29.6 12-.4-.2-.8-.5-1-.9-.7-1.5.8-2.4 3.2-3.8 1.6-1 4-2.3 7.3-4.1C26.4 76.8 35 72.3 44 67.5c12.5-6.6 26.6-14 37.7-20.1 6.2-3.4 10.5-5.8 13.4-7.6-6.6 2.8-18.9 8.3-41.5 19.4C31.1 70.3 9.2 81.4 9 81.5c-.4.2-.8.2-1.2.1s-.7-.4-.9-.8c-.7-1.6.8-2.5 4.4-4.6 2.4-1.4 5.8-3.4 10.4-5.9 8.6-4.8 20.4-11.1 31.7-17.3l11.7-6.3c-4.5 2.1-9.1 4.3-13.6 6.4-11.1 5.3-22.6 10.7-31.1 14.7-4.5 2.1-7.9 3.7-10.3 4.8-4.5 2.1-4.5 2.1-5.2 1.8-.4-.1-.7-.4-.9-.8-.6-1.3.5-2 1.5-2.6.6-.4 1.5-.9 2.7-1.7 2.2-1.3 5.5-3.2 9.7-5.7 7.1-4.1 17.1-9.9 29.6-17 5.1-2.9 10.1-5.8 14.9-8.5-5.8 2.8-11.8 5.8-17.1 8.5-10.4 5.1-20.2 10-27.8 13.7-13 6-13.7 5.8-14.5 5.5-.4-.1-.8-.5-1-.9-.7-1.5.8-2.4 2.4-3.4 1.2-.8 3-1.8 5.3-3.2 4.1-2.4 10.2-5.7 18-10 3.1-1.7 6.4-3.5 9.7-5.3L2.3 59.5c-.4.2-.8.2-1.2.1s-.7-.4-.9-.8c-.7-1.6.9-2.8 3.6-4.6 2-1.4 5-3.2 8.9-5.5 6.5-3.9 15.7-9.1 27.3-15.4.6-.3 1.2-.7 1.8-1-7.8 3.8-15.3 7.4-20.9 10.2-5.1 2.5-9.5 4.6-12.6 6.1C2.7 51.3 2.7 51.3 2 51c-.4-.1-.7-.4-.9-.8-.3-.7-.1-1.6.7-2L40 26.5c-4.8 2.3-9.5 4.6-13.6 6.5-5.9 2.9-11 5.3-14.8 7.1-6.7 3.2-6.7 3.2-7.4 2.9-.4-.1-.7-.4-.9-.8-.7-1.4.6-2.3 3-3.9 1.6-1.1 3.9-2.6 6.9-4.4 5.1-3.2 12.2-7.5 21.2-12.9.8-.5 1.7-1 2.5-1.5C12.7 31.6 9.8 32.7 8.4 32.2c-.4-.2-.8-.5-1-.9-.1-.1-.6-1.3.7-2.1.1-.1.2-.1.4-.3q.6-.3 1.5-.9c1.3-.8 3.2-1.9 5.5-3.3 3.2-2 7.2-4.4 11.5-6.9-12.3 5.8-12.8 5.7-13.6 5.4-.4-.1-.8-.5-.9-.9-.3-.7-.1-1.5.5-2 4.1-2.8 9-6.1 13.6-9.2-.1 0-.3-.1-.4-.1-.4-.1-.7-.4-.9-.8-.4-.8 0-1.7.8-2.1.1 0 .2-.1.3-.1 1.1-.5 10.2-4.7 15.8-7.4.4-.2.8-.2 1.2-.1s.7.4.9.8c.6 1.2-.5 1.9-.8 2.2q-.3.3-.9.6c-.8.5-1.9 1.3-3.3 2.2-2.7 1.8-6.3 4.3-10 6.7l-.1.1c5.6-2.7 11.5-5.6 15.9-7.7 3.2-1.6 6-2.9 8-3.9 3.8-1.8 3.8-1.8 4.5-1.6.4.1.7.4.9.8.3.7.1 1.6-.6 2C51 7.1 41.5 12.8 32.8 18c2-1 4-2 5.9-2.9C64 2.4 65.3 2 66.6 2.5c.4.1.8.5 1 .9.3.7.1 1.6-.6 2-12.5 7.3-28.4 16.8-40.8 24.4 10-4.8 21.1-10.2 30.2-14.4 16.9-8 17.3-7.8 18.2-7.5.4.1.7.4.9.8.3.7.1 1.6-.7 2L48.6 25.3c28.9-13.9 31.4-14.4 32.6-14 .4.2.8.5 1 .9.4.8 0 1.7-.7 2.1-.2.1-19.1 10.1-38.1 20.6-9 4.9-16 8.9-21.5 12l65.3-30.4c.8-.4 1.7 0 2.1.8.2.4.5 1.4-.9 2.2-.2.1-.5.3-.9.5-.7.4-1.8 1-3.2 1.7-2.8 1.5-6.7 3.6-11.3 6-9.4 5-24.9 13.3-38.8 20.8 3.3-1.6 6.6-3.3 9.8-4.8 11-5.5 22.3-11.1 31.1-15.2 15.2-7.2 16-7 16.9-6.6.4.2.8.5 1 .9.3.7.1 1.6-.6 2-17.7 10.1-40.3 23-57.9 33 5.1-2.4 10.5-5 15.7-7.4C61.8 44.7 73.9 39 82.9 34.7c4.9-2.3 8.5-4 11-5.1 4.8-2.2 4.8-2.2 5.5-1.9.4.1.7.4.9.8.6 1.4-.7 2.2-1.4 2.8-.6.4-1.6 1-2.8 1.8-2.3 1.4-5.6 3.2-10.1 5.8-5.8 3.1-13 7-20.5 11.1 34.9-16.7 36.8-16.1 37.9-15.7.5.2.9.5 1.1 1 .7 1.5-.9 2.7-1.6 3.3-.9.7-2.2 1.6-4 2.7-3.2 2-7.7 4.6-13.9 8.1-11.4 6.3-26.3 14.2-39.5 21.1-3.3 1.7-6.6 3.5-9.8 5.2C70.7 59.8 136 28.5 183.5 5.5c.4-.2.8-.2 1.2-.1s.7.4.9.8c.7 1.6-1 2.8-2.2 3.6s-3 1.9-5.4 3.2c-1.6.9-3.5 1.9-5.7 3.1 14.5-6.2 16-5.7 16.9-5.4.5.2.9.5 1.1 1 .8 1.8-1.1 3.3-7 6.6-4 2.3-10 5.4-18.1 9.4-15.1 7.5-35.2 17-56.4 27.1-19 9-38.5 18.3-54.5 26.1l140-65.3c.8-.4 1.7 0 2.1.7.4.8.1 1.7-.7 2.1l-9.9 4.9c11.6-4.7 12.9-4.2 13.7-4 .5.2.9.5 1.1 1 .4.8 0 1.7-.8 2.1-.4.2-43 20.4-85.6 41.3-54.6 26.8-76 38.4-84.3 43.5 5-2 14.1-5.9 30.5-13.7 19.7-9.4 44.3-21.6 68.1-33.4 19.2-9.5 37.2-18.5 50.9-25 23-11 23.9-10.7 24.9-10.3.4.2.8.5 1 .9.7 1.5-.9 2.5-2.4 3.4-1.2.8-3.1 1.8-5.5 3.2-4.5 2.5-11.2 6-19.9 10.4-5.9 3-12.8 6.5-20.5 10.4 17.7-8.3 34.5-16.2 48.4-22.7.8-.4 1.7 0 2.1.7.4.8.1 1.7-.7 2.1L57.6 108.1c13.6-6.1 34.3-15.7 65.8-31 42.4-20.6 84.2-41.5 84.6-41.7s.8-.2 1.2-.1.7.4.9.8c.7 1.4-.8 2.3-1.8 3-.9.5-2.2 1.3-3.9 2.2-3.2 1.7-7.9 4.1-14.3 7.3-12 6-28.7 14.2-46.4 22.8-23.1 11.3-49.3 24.1-69.5 34.3-14.2 7.2-22.9 11.8-28.2 14.8 4.7-2 11.9-5.2 22.7-10.4 17.2-8.2 39.2-19.2 60.5-29.8 20.1-10 39.1-19.4 53.8-26.5 24.8-11.8 26-11.3 27.1-11 .5.2.8.5 1 .9.7 1.6-1.1 2.8-2.4 3.7q-1.95 1.35-6 3.6c-4.9 2.7-11.9 6.5-21.5 11.4-10.4 5.3-22.7 11.5-35.6 17.9 7.5-3.6 14.7-7 21.5-10.2 41.1-19.3 42.2-18.9 43.3-18.5.4.2.8.5 1 .9.6 1.4-.7 2.2-1.4 2.5-.5.3-1.3.7-2.3 1.2-1.9 1-4.7 2.4-8.5 4.3-7.2 3.6-17.4 8.5-29.1 14.2-23.5 11.4-52.8 25.7-76.9 37.8-1.7.9-3.4 1.7-5 2.6 11.7-5.6 24.8-11.9 37.9-18.2 23-11 41.6-19.7 55.1-25.9 26-11.9 27-11.5 27.9-11.2.4.2.8.5 1 .9.6 1.3-.7 2.2-1.4 2.6-.6.4-1.4.9-2.5 1.5-2.1 1.2-5.2 2.9-9.2 5-7.2 3.8-17.7 9.3-31.2 16.2-17.5 9-38.1 19.5-56.7 28.9 14.4-6.9 29.9-14.4 44.1-21.3 13.9-6.7 27-13.1 36.5-17.6 15.9-7.6 16.2-7.5 17-7.2.4.1.7.5.9.8.4.8 0 1.7-.7 2.1-41 21.2-97.4 50.6-126.3 66.3 1.8-.8 3.7-1.7 5.8-2.7 13.9-6.6 31.8-15.4 49-23.9 16.4-8.1 32-15.7 43.9-21.4 20.4-9.7 21.2-9.4 22.2-9.1.4.2.8.5 1 .9.7 1.4-.8 2.4-1.9 3.2-.9.6-2.4 1.5-4.3 2.6-3.5 2-8.6 4.8-15.3 8.3-11.2 6-26.9 14.1-46.7 24.2l-18.1 9.2c5.3-2.5 11.1-5.3 17.6-8.4 31.6-15.2 62.6-30.6 62.9-30.7.4-.2.8-.2 1.2-.1s.7.4.9.8c.7 1.5-.9 2.7-1.6 3.2-.9.7-2.2 1.5-4 2.5-3.2 1.9-7.9 4.3-14.3 7.6-11.9 6-28.1 13.9-43.8 21.5-7 3.4-14.2 6.9-21 10.2 6.4-3.1 13-6.2 19.2-9.2 14.4-6.9 28-13.5 38.4-18.4 17.9-8.4 18.2-8.3 19.1-8 .4.1.7.5.9.8.4.8 0 1.7-.7 2.1-.3.1-27.4 13.3-54.8 27-20.1 10.1-33.2 17-41.8 21.7 16.3-7.6 40.6-19.2 57.7-27.3 8.8-4.2 16.4-7.8 22-10.5 3-1.4 5.1-2.4 6.6-3.1 2.9-1.3 3-1.4 3.7-1.1.4.1.7.4.9.8.4.7.1 1.6-.7 2l-61 34.3c.9-.4 1.7-.8 2.6-1.2 12.7-6 22.8-10.7 30.1-14.1 14.3-6.6 14.4-6.6 15.3-6.3.4.1.7.4.9.8.1.2.5 1.4-.8 2.1q-.15.15-.6.3-.75.45-2.1 1.2c-1.7 1-4.3 2.3-7.7 4.2-6.4 3.5-15.1 8.1-24.2 13.1-.1.1-.3.1-.4.2l25.2-11.7c.8-.4 1.7 0 2.1.8.6 1.3-.6 2.2-1.3 2.7-.6.4-1.4 1-2.5 1.7-2 1.3-4.9 3.1-8.9 5.4-6.6 4-15 8.8-23.4 13.7 15.4-7.4 15.7-7.3 16.6-7 .4.1.7.4.9.8.6 1.3-.6 2.3-1.9 3.3-.9.7-2.3 1.7-4.1 3-3 2.1-7.2 5-12.5 8.6-2.1 1.4-4.2 2.8-6.2 4.2.1.1.2.3.3.5.4.8 0 1.7-.7 2.1 0 0-2.9 1.4-5.9 2.8-1.5.7-3 1.4-4.1 1.9-1.7.7-2.2 1-2.6 1M26.8 8c.6 0 1.2.3 1.4.9-.3-.7-1.1-1-1.7-.9z" style="fill:#e50071;fill-rule:nonzero" transform="translate(6.232 9.968)scale(.24356)"/></svg>