<svg xmlns="http://www.w3.org/2000/svg" xml:space="preserve" style="background-color:#fff;fill-rule:evenodd;clip-rule:evenodd;stroke-linejoin:round;stroke-miterlimit:2" viewBox="0 0 64 64"><path d="M43.65 233.86a6.01 6.01 0 0 1-5.655 3.995 6.01 6.01 0 0 1-5.655-3.995L1.21 150.73a25.93 25.93 0 0 1 0-15.65L32.34 52a6.06 6.06 0 0 1 5.655-3.9A6.06 6.06 0 0 1 43.65 52l31.14 83.13a25.93 25.93 0 0 1 0 15.65zM95.89 93.38a6.07 6.07 0 0 1-5.67 3.921 6.07 6.07 0 0 1-5.67-3.921L53.42 10.26c-.14-.37-.25-.77-.36-1.18a6.5 6.5 0 0 1-.21-1.71c0-3.54 2.91-6.455 6.45-6.46h61.83c3.544 0 6.46 2.916 6.46 6.46a6.5 6.5 0 0 1-.21 1.71c-.12.41-.22.81-.36 1.18zm104.53 0a6.07 6.07 0 0 1-5.67 3.921 6.07 6.07 0 0 1-5.67-3.921L158 10.26c-.14-.37-.25-.77-.36-1.18a6.5 6.5 0 0 1-.21-1.71c0-3.525 2.885-6.433 6.41-6.46h61.83c3.544 0 6.46 2.916 6.46 6.46a6.5 6.5 0 0 1-.21 1.71c-.12.41-.22.81-.36 1.18z" style="fill:#63666a;fill-rule:nonzero" transform="translate(6.396 6.474)scale(.17954)"/><path d="M148.25 233.86a6.01 6.01 0 0 1-5.655 3.995 6.01 6.01 0 0 1-5.655-3.995l-31.13-83.12a25.93 25.93 0 0 1 0-15.65L136.94 52a6.06 6.06 0 0 1 5.655-3.9 6.06 6.06 0 0 1 5.655 3.9l31.14 83.13a25.93 25.93 0 0 1 0 15.65z" style="fill:#ff8200;fill-rule:nonzero" transform="translate(6.396 6.474)scale(.17954)"/><path d="M252.85 233.86a6.01 6.01 0 0 1-5.655 3.995 6.01 6.01 0 0 1-5.655-3.995l-31.13-83.12a25.93 25.93 0 0 1 0-15.65L241.53 52a6.06 6.06 0 0 1 5.655-3.9 6.06 6.06 0 0 1 5.655 3.9L284 135.08a25.93 25.93 0 0 1 0 15.65zM95.89 191a6.07 6.07 0 0 0-5.67-3.921A6.07 6.07 0 0 0 84.55 191l-31.13 83.08c-.14.37-.25.77-.36 1.18a6.5 6.5 0 0 0-.209 1.64c0 3.556 2.904 6.492 6.459 6.53h61.83c3.555-.038 6.459-2.974 6.459-6.53 0-.553-.07-1.104-.209-1.64-.12-.41-.22-.81-.36-1.18zm104.53 0a6.07 6.07 0 0 0-5.67-3.921 6.07 6.07 0 0 0-5.67 3.921L158 274.08c-.14.37-.25.77-.36 1.18a6.5 6.5 0 0 0-.209 1.64c0 3.556 2.904 6.492 6.459 6.53h61.83c3.555-.038 6.459-2.974 6.459-6.53 0-.553-.07-1.104-.209-1.64-.12-.41-.22-.81-.36-1.18z" style="fill:#63666a;fill-rule:nonzero" transform="translate(6.396 6.474)scale(.17954)"/></svg>