<svg xmlns="http://www.w3.org/2000/svg" xml:space="preserve" style="background-color:#fff;fill-rule:evenodd;clip-rule:evenodd;stroke-linejoin:round;stroke-miterlimit:2" viewBox="0 0 64 64"><path d="M469.468 249.985c0 89.079-72.266 161.316-161.345 161.316-89.094 0-161.294-72.237-161.294-161.316 0-89.072 72.2-161.279 161.294-161.279 89.079 0 161.345 72.208 161.345 161.279M308.123 0C170.039 0 58.108 111.931 58.108 249.985 58.108 388.062 170.039 500 308.123 500c138.062 0 249.985-111.938 249.985-250.015C558.108 111.931 446.185 0 308.123 0" style="fill:#ee7623;fill-rule:nonzero" transform="translate(5.332 10.33)scale(.08668)"/><path d="M0 199.517h615.335v101.127H0z" style="fill:#000f9f" transform="translate(5.332 10.33)scale(.08668)"/></svg>