<svg xmlns="http://www.w3.org/2000/svg" xml:space="preserve" style="background-color:#fff;fill-rule:evenodd;clip-rule:evenodd;stroke-linejoin:round;stroke-miterlimit:2" viewBox="0 0 64 64"><path d="M171.22 85.61c0 47.28-38.33 85.6-85.61 85.6S0 132.89 0 85.61 38.33 0 85.61 0s85.61 38.33 85.61 85.61m-43.65 36.14V75.52c0-23.06-18.76-41.83-41.83-41.83S43.9 52.46 43.9 75.52v46.24a5.505 5.505 0 1 0 11.01 0V75.52c0-16.99 13.83-30.82 30.83-30.82s30.83 13.83 30.83 30.82v46.24c0 3.04 2.46 5.51 5.5 5.51a5.52 5.52 0 0 0 5.5-5.52" style="fill:#223261;fill-rule:nonzero" transform="translate(6.39 6.391)scale(.29915)"/></svg>