<svg xmlns="http://www.w3.org/2000/svg" xml:space="preserve" style="background-color:#fff;fill-rule:evenodd;clip-rule:evenodd;stroke-linejoin:round;stroke-miterlimit:2" viewBox="0 0 64 64"><path d="M75.9 115.8c.8 1.1 2.5 1.1 3.8 0 1.3-1 1.6-2.8.8-3.8-.8-1.1-2.6-1.1-3.8 0-1.3 1.1-1.7 2.8-.8 3.8m8.1-6.7c.9 1.2 2.8 1.2 4.1 0 1.4-1.1 1.7-3 .8-4.2s-2.8-1.2-4.2 0c-1.3 1.2-1.6 3-.7 4.2m13.1-6.7c1.5-1.2 1.9-3.3.9-4.5-1-1.3-3-1.3-4.5 0-1.5 1.2-1.9 3.2-.9 4.5 1.1 1.2 3.1 1.2 4.5 0m-8.6-14.8c1 1.2 3 1.3 4.5 0 1.5-1.2 1.9-3.3.9-4.5-1-1.3-3-1.3-4.5 0s-1.9 3.3-.9 4.5m-6.3-4.5c-1.5 1.2-1.9 3.2-.9 4.5 1 1.2 3 1.3 4.5 0 1.5-1.2 1.9-3.2.9-4.5-1-1.2-3-1.2-4.5 0m-7.6 4.4c.9 1.1 2.8 1.2 4.1 0 1.4-1.1 1.7-3 .8-4.2s-2.8-1.2-4.2 0c-1.2 1.1-1.6 3-.7 4.2m5.4 7.4c.9 1.2 2.8 1.2 4.1 0 1.4-1.2 1.7-3 .8-4.2s-2.8-1.2-4.2 0c-1.3 1.2-1.7 3.1-.7 4.2m-12.2 27.7c.8 1 2.3 1 3.5 0 1.1-1 1.5-2.5.7-3.5s-2.3-1-3.5 0c-1.2.9-1.5 2.5-.7 3.5M73 94.9c.9 1.1 2.8 1.2 4.2 0 1.4-1.1 1.7-3 .8-4.2-.9-1.1-2.8-1.2-4.2 0-1.3 1.2-1.7 3.1-.8 4.2m-3.6 3.3c-.8-1.1-2.5-1.1-3.8 0-1.3 1-1.6 2.7-.7 3.8.8 1.1 2.5 1.1 3.8 0 1.2-1 1.5-2.7.7-3.8m-3.1-3.4c.8 1.1 2.5 1.1 3.8 0 1.3-1 1.6-2.7.8-3.8s-2.5-1.1-3.8 0c-1.3 1-1.6 2.7-.8 3.8m5.4 7.2c.8 1.1 2.5 1.1 3.8 0 1.3-1 1.6-2.7.8-3.8s-2.6-1.1-3.8 0c-1.3 1.1-1.6 2.8-.8 3.8m18.6-3.9c-.9-1.2-2.8-1.2-4.2 0-1.4 1.1-1.7 3-.8 4.1.9 1.2 2.8 1.2 4.1 0 1.5-1.1 1.8-3 .9-4.1M68.5 83.3c-1.4 1.1-1.7 3-.8 4.2.9 1.1 2.8 1.2 4.2 0 1.4-1.1 1.7-3 .8-4.2-.9-1.1-2.8-1.2-4.2 0M64 91c-.8-1.1-2.5-1.1-3.8 0s-1.6 2.8-.8 3.8c.8 1.1 2.5 1.1 3.8 0s1.6-2.8.8-3.8m-5.9 10.9c.8 1 2.3 1 3.5 0 1.1-.9 1.4-2.5.7-3.5-.8-1-2.3-1-3.5 0-1.2.9-1.5 2.5-.7 3.5m15.2 10.3c-.8-1-2.3-1-3.5 0-1.1 1-1.5 2.5-.7 3.5s2.3 1 3.5 0 1.5-2.5.7-3.5m-9.7-3.4c.8 1 2.3 1 3.5 0 1.1-.9 1.5-2.5.7-3.5s-2.3-1-3.5 0c-1.1.9-1.4 2.5-.7 3.5m18.9-6.6c1.4-1.1 1.7-3 .8-4.2s-2.8-1.2-4.2 0c-1.4 1.1-1.7 3-.8 4.2.9 1.1 2.8 1.2 4.2 0m-.7 2.9c-.8-1.1-2.5-1.1-3.8 0-1.3 1-1.6 2.8-.8 3.8.8 1.1 2.5 1.1 3.8 0 1.3-1 1.7-2.7.8-3.8m9.4-10c1.5-1.2 1.9-3.3.9-4.5-1-1.3-3-1.3-4.5 0-1.5 1.2-1.9 3.2-.9 4.5s3 1.3 4.5 0m-16.3 10c-.8-1.1-2.5-1.1-3.8 0s-1.6 2.8-.8 3.8c.8 1.1 2.5 1.1 3.8 0 1.3-1 1.6-2.7.8-3.8m-15.2 24.2c.7.9 2.1.9 3.1 0s1.3-2.3.6-3.1c-.7-.9-2.1-.9-3.1 0-1 .8-1.3 2.2-.6 3.1m-37.9 20c.4.5 1.2.5 1.7 0 .6-.5.7-1.2.3-1.7s-1.2-.5-1.7 0-.7 1.2-.3 1.7m-11.1-13.8c.4.5 1.2.5 1.7 0 .6-.5.7-1.2.3-1.7s-1.2-.5-1.7 0c-.5.4-.7 1.2-.3 1.7m5.6 6.9c.4.5 1.2.5 1.7 0 .6-.5.7-1.2.3-1.7s-1.2-.5-1.7 0c-.6.4-.7 1.2-.3 1.7m4.3 13.6c.3.4.9.4 1.4 0s.6-1 .3-1.4-.9-.4-1.4 0c-.4.4-.6 1.1-.3 1.4m-1.3 7c.3.4.9.4 1.4 0s.6-1 .3-1.4-.9-.4-1.4 0-.7 1-.3 1.4m-4.2-13.9c.3.4.9.4 1.4 0s.6-1 .3-1.4-.9-.4-1.4 0-.6 1-.3 1.4m-5.6-6.9c.3.4.9.4 1.4 0s.6-1 .3-1.4-.9-.4-1.4 0c-.4.4-.6 1-.3 1.4m9.3-13.4c.5.6 1.4.6 2.1 0s.9-1.5.4-2.1-1.4-.6-2.1 0-.9 1.5-.4 2.1m8.6 27.4c.4.5 1.2.5 1.7 0 .6-.5.7-1.2.3-1.7s-1.2-.5-1.7 0c-.6.5-.7 1.2-.3 1.7m34.9-40.5c.8 1 2.3 1 3.5 0 1.1-1 1.5-2.5.7-3.5s-2.3-1-3.5 0c-1.2.9-1.5 2.5-.7 3.5m-37.9 20c.4.6 1.4.6 2.1 0s.9-1.5.4-2.1-1.4-.6-2.1 0-.9 1.5-.4 2.1m-6.8-.2c.4.5 1.2.5 1.7 0 .6-.5.7-1.2.3-1.7s-1.2-.5-1.7 0c-.5.4-.6 1.2-.3 1.7m5.6 6.9c.4.5 1.2.5 1.7 0 .6-.5.7-1.2.3-1.7s-1.2-.5-1.7 0c-.5.4-.7 1.2-.3 1.7m6.7.2c.5.6 1.4.6 2.1 0s.9-1.5.4-2.1-1.4-.6-2.1 0-.9 1.5-.4 2.1M.1 155.8c.2.3.7.3 1 0s.4-.7.2-.9c-.2-.3-.7-.3-1 0-.3.2-.4.7-.2.9m5.6 6.9c.2.3.7.3 1 0s.4-.7.2-.9c-.2-.3-.7-.3-1 0-.4.3-.5.7-.2.9m8-6.7c.3.4.9.4 1.4 0s.6-1 .3-1.4-.9-.4-1.4 0-.6 1.1-.3 1.4M2.6 142.2c.3.4.9.4 1.4 0s.6-1 .3-1.4-.9-.4-1.4 0-.6 1-.3 1.4m5.6 6.9c.3.4.9.4 1.4 0s.6-1 .3-1.4-.9-.4-1.4 0-.6 1.1-.3 1.4m-6.7-.2c.2.3.6.3 1 0 .3-.3.4-.7.2-.9-.2-.3-.7-.3-1 0-.3.2-.4.6-.2.9m5.5 6.9c.2.3.7.3 1 0s.4-.7.2-.9c-.2-.3-.7-.3-1 0-.3.2-.4.7-.2.9m5.6 6.9c.2.3.7.3 1 0s.4-.7.2-.9c-.2-.3-.7-.3-1 0s-.4.7-.2.9m16.1-13.4c.4.5 1.2.5 1.7 0 .6-.5.7-1.2.3-1.7s-1.2-.5-1.7 0-.6 1.2-.3 1.7m18.7-27.1c.6.8 1.8.8 2.8 0 .9-.8 1.2-2 .6-2.8s-1.8-.8-2.8 0c-.9.8-1.2 2-.6 2.8m1.2-6.7c.7.9 2.1.9 3.1 0s1.3-2.3.6-3.1c-.7-.9-2.1-.9-3.1 0-1 .8-1.3 2.2-.6 3.1m-5.5-6.9c.7.9 2.1.9 3.1 0s1.3-2.3.6-3.1c-.7-.9-2.1-.9-3.1 0-1 .8-1.3 2.2-.6 3.1m9.9 20.5c.6.8 1.8.8 2.8 0 .9-.8 1.2-2 .6-2.8s-1.9-.8-2.8 0c-1 .8-1.2 2-.6 2.8m-11.1-13.8c.6.8 1.8.8 2.8 0 .9-.8 1.2-2 .6-2.8s-1.9-.8-2.8 0c-1 .8-1.2 2-.6 2.8m9.7 20.7c.6.8 1.9.8 2.8 0s1.2-2 .5-2.8c-.6-.8-1.9-.8-2.8 0-.8.8-1.1 2-.5 2.8m-5.5-6.9c.6.8 1.9.8 2.8 0s1.2-2 .5-2.8c-.6-.8-1.8-.8-2.8 0-.9.8-1.1 2-.5 2.8m5.1-27.2c.8 1 2.3 1 3.5 0 1.1-.9 1.5-2.5.7-3.5s-2.3-1-3.5 0c-1.2.9-1.5 2.5-.7 3.5m9.9 20.5c.7.9 2.1.9 3.1 0s1.3-2.3.6-3.1c-.7-.9-2.1-.9-3.1 0-1 .8-1.3 2.2-.6 3.1m-4.4-13.6c.8 1 2.3 1 3.5 0 1.1-.9 1.5-2.5.7-3.5s-2.3-1-3.5 0c-1.2.9-1.5 2.5-.7 3.5m-2.5 13.6c.7.9 2.1.9 3.1 0s1.3-2.3.6-3.1c-.7-.9-2.1-.9-3.1 0-1 .8-1.3 2.2-.6 3.1m1.3-6.9c.7.9 2.1.9 3.1 0s1.3-2.3.6-3.1c-.7-.9-2.1-.9-3.1 0-1 .8-1.3 2.2-.6 3.1m-5.5-6.9c.7.9 2.1.9 3.1 0s1.3-2.2.6-3.1-2.1-.9-3.1 0c-1 .8-1.3 2.2-.6 3.1m-17.6 20.3c.5.7 1.6.7 2.4 0s1-1.8.5-2.4c-.5-.7-1.6-.7-2.4 0s-1 1.8-.5 2.4m4.4 13.7c.5.6 1.4.6 2.1 0s.9-1.5.4-2.1-1.4-.6-2.1 0-.8 1.5-.4 2.1m1.2-6.8c.5.7 1.6.7 2.4 0s1-1.8.5-2.4c-.5-.7-1.6-.7-2.4 0s-1.1 1.8-.5 2.4M26.9 122c.5.7 1.6.7 2.4 0s1-1.8.5-2.4c-.5-.7-1.6-.7-2.4 0s-1 1.8-.5 2.4m8.5 27.5c.5.6 1.4.6 2.1 0s.9-1.5.4-2.1-1.4-.6-2.1 0c-.6.6-.8 1.5-.4 2.1m-4.1-13.8c.5.6 1.4.6 2.1 0s.9-1.5.4-2.1-1.4-.6-2.1 0-.9 1.5-.4 2.1m-5.6-6.9c.4.6 1.4.6 2.1 0s.9-1.5.4-2.1-1.4-.6-2.1 0-.8 1.5-.4 2.1m8.1-6.8c.5.7 1.6.7 2.4 0s1-1.8.5-2.4c-.5-.7-1.6-.7-2.4 0s-1 1.8-.5 2.4m9.7 20.7c.5.7 1.6.7 2.4 0s1-1.8.5-2.4c-.5-.7-1.6-.7-2.4 0s-1 1.8-.5 2.4M35 115.3c.6.8 1.9.8 2.8 0s1.2-2 .6-2.8-1.9-.8-2.8 0c-1 .8-1.2 2-.6 2.8m9.9 20.5c.5.7 1.6.7 2.4 0s1-1.7.5-2.4-1.6-.7-2.4 0-1 1.8-.5 2.4m-4.4-13.6c.6.8 1.8.8 2.8 0 .9-.8 1.2-2 .6-2.8s-1.9-.8-2.8 0-1.2 2-.6 2.8m-1.1 6.7c.5.7 1.6.7 2.4 0s1-1.8.5-2.4c-.5-.7-1.6-.7-2.4 0-.9.7-1.1 1.8-.5 2.4m49.5-77.7c.8 1 2.5 1 3.8 0 1.2-1.1 1.6-2.8.7-3.8-.8-1.1-2.5-1-3.8 0-1.3 1.1-1.6 2.8-.7 3.8m5.6 7.1c.9 1.1 2.8 1.1 4.2 0s1.7-3 .8-4.2c-.9-1.1-2.8-1.1-4.2 0-1.4 1.2-1.7 3.1-.8 4.2m6.8 2.6c-1.5 1.2-1.9 3.3-.9 4.5s3 1.2 4.5 0 1.9-3.3.9-4.5c-1-1.3-3-1.3-4.5 0M90 80.1c1 1.2 3 1.2 4.5 0s1.9-3.3.9-4.5-3-1.2-4.5 0c-1.5 1.3-1.9 3.3-.9 4.5m-2.7 0c1.5-1.3 1.9-3.3.9-4.5s-3-1.2-4.5 0-1.9 3.3-.9 4.5c1 1.3 3 1.3 4.5 0M76 80c.9 1.1 2.8 1.1 4.2 0s1.7-3 .8-4.2c-.9-1.1-2.8-1.1-4.1 0-1.4 1.2-1.8 3-.9 4.2m8.6-7.5c.9 1.2 2.8 1.1 4.2 0 1.4-1.2 1.7-3 .8-4.2-.9-1.1-2.8-1.1-4.1 0-1.5 1.2-1.9 3.1-.9 4.2m-1.2-28.3c.8.9 2.3.9 3.5 0 1.1-1 1.4-2.5.7-3.5-.8-1-2.3-.9-3.5 0-1.2 1-1.4 2.5-.7 3.5m-5.8 28.3c.9 1.1 2.8 1.1 4.2 0s1.7-3 .8-4.2c-.9-1.1-2.8-1.1-4.2 0-1.3 1.2-1.7 3.1-.8 4.2m-.7-11.3c-.9-1-2.6-1-3.8 0-1.3 1.1-1.6 2.8-.7 3.8s2.6 1 3.8 0 1.5-2.7.7-3.8m-6 11.1c.9 1 2.6 1 3.8 0 1.3-1.1 1.6-2.8.7-3.8-.9-1.1-2.6-1-3.8 0-1.2 1.1-1.5 2.8-.7 3.8m8.4-7.3c.9 1 2.6 1 3.8 0 1.3-1.1 1.6-2.8.7-3.8-.9-1.1-2.6-1-3.8 0-1.3 1.1-1.6 2.8-.7 3.8m18.8-4c-.9-1.1-2.8-1.1-4.2 0s-1.7 3-.8 4.1c.9 1.2 2.8 1.1 4.2 0s1.8-2.9.8-4.1M73.3 80c1.4-1.2 1.7-3 .8-4.2-.9-1.1-2.8-1.1-4.2 0s-1.7 3-.8 4.2c.9 1.1 2.8 1.1 4.2 0m-4.8-11.5c-.8-1.1-2.6-1-3.8 0-1.3 1.1-1.6 2.8-.7 3.8s2.6 1 3.8 0c1.2-1.1 1.6-2.8.7-3.8m-2.9-3.6c.8 1 2.3 1 3.5 0 1.1-1 1.4-2.5.7-3.5-.8-.9-2.3-.9-3.5 0-1.2 1-1.5 2.5-.7 3.5m20.6-17.3c-.8-1-2.3-.9-3.5 0-1.1 1-1.4 2.5-.7 3.5.8 1 2.3.9 3.5 0 1.2-1 1.5-2.6.7-3.5M73.9 58c.8 1 2.3.9 3.5 0 1.1-1 1.4-2.5.7-3.5-.8-1-2.3-.9-3.5 0-1.2 1-1.5 2.5-.7 3.5m12.9 3.1c-1.4 1.2-1.7 3-.8 4.2.9 1.1 2.8 1.1 4.2 0s1.7-3 .8-4.2c-1-1.2-2.9-1.2-4.2 0m5.3-6.8c-.9-1.1-2.6-1-3.8 0-1.3 1.1-1.6 2.8-.7 3.8s2.6 1 3.8 0 1.5-2.7.7-3.8m.2 13.9c-1.5 1.2-1.9 3.3-.9 4.5s3 1.2 4.5 0 1.9-3.3.9-4.5c-1-1.3-3-1.3-4.5 0m-7.2-13.9c-.8-1-2.6-1-3.8 0-1.3 1.1-1.6 2.8-.7 3.8s2.6 1 3.8 0c1.3-1 1.6-2.7.7-3.8M78 37.1c.7.9 2.1.9 3.1 0s1.3-2.3.6-3.1c-.7-.9-2.1-.9-3.1 0-1 .8-1.3 2.2-.6 3.1M48.1 15.7c.4.5 1.2.5 1.7 0 .6-.5.7-1.2.3-1.7s-1.2-.5-1.7 0c-.5.4-.6 1.2-.3 1.7M31.6 29.5c.4.5 1.2.5 1.7 0 .6-.5.7-1.3.3-1.7-.4-.5-1.2-.5-1.7 0-.5.4-.6 1.2-.3 1.7m8.3-6.9c.4.5 1.2.5 1.7 0 .6-.5.7-1.2.3-1.7s-1.2-.5-1.7 0-.7 1.2-.3 1.7m9.8-14c.3.4.9.4 1.4 0s.6-1 .3-1.4-.9-.4-1.4 0-.6 1-.3 1.4M51 1.7c.3.4.9.4 1.4 0s.6-1 .3-1.4-.9-.4-1.4 0-.6 1-.3 1.4m-9.6 13.8c.3.4.9.4 1.4 0s.6-1 .3-1.4-.9-.4-1.4 0-.6 1-.3 1.4m-8.2 6.9c.3.4 1 .4 1.4 0 .5-.4.6-1 .3-1.4s-.9-.4-1.4 0-.7 1-.3 1.4M37 36.6c.5.6 1.4.6 2.1 0s.9-1.5.4-2.1-1.4-.6-2.1 0c-.6.6-.8 1.5-.4 2.1M56.4 8.8c.4.5 1.2.5 1.7 0 .6-.5.7-1.2.3-1.7s-1.2-.5-1.7 0c-.5.4-.7 1.2-.3 1.7m18.8 42.3c.8 1 2.3 1 3.5 0 1.1-1 1.4-2.5.7-3.5-.8-1-2.3-.9-3.5 0-1.2 1-1.5 2.5-.7 3.5M45.3 29.7c.5.6 1.4.6 2.1 0s.9-1.5.4-2.1-1.4-.6-2.1 0-.9 1.5-.4 2.1m-6.7-.2c.4.5 1.2.5 1.7 0 .6-.5.7-1.2.3-1.7s-1.2-.5-1.7 0c-.6.5-.7 1.2-.3 1.7m8.2-6.9c.4.5 1.2.5 1.7 0 .6-.5.7-1.2.3-1.7s-1.2-.5-1.7 0-.6 1.2-.3 1.7m6.8.2c.5.6 1.4.6 2.1 0s.9-1.5.4-2.1-1.4-.6-2.1 0-.9 1.5-.4 2.1M29.1 8.4c.2.3.7.3 1 0s.4-.7.2-.9c-.2-.3-.7-.3-1 0-.3.2-.4.6-.2.9m8.3-7c.2.3.7.3 1 0s.4-.7.2-.9c-.2-.3-.7-.3-1 0-.4.3-.5.7-.2.9m5.3 7.2c.3.4.9.4 1.4 0s.6-1 .3-1.4-.9-.4-1.4 0-.6 1-.3 1.4M26.2 22.4c.3.4.9.4 1.4 0s.6-1 .3-1.4-1-.4-1.4 0c-.5.4-.6 1-.3 1.4m8.3-6.9c.3.4.9.4 1.4 0s.6-1 .3-1.4-.9-.4-1.4 0-.6 1-.3 1.4m-6.7-.2c.2.3.7.3 1 0s.4-.7.2-.9c-.2-.3-.7-.2-1 0s-.4.6-.2.9M36 8.4c.2.3.7.3 1 0 .3-.2.4-.7.2-.9-.2-.3-.7-.3-1 0-.3.2-.4.6-.2.9m8.3-6.9c.2.2.7.3 1 0s.4-.7.2-.9c-.2-.3-.7-.3-1 0-.3.2-.4.6-.2.9m10.8 14.2c.4.5 1.2.5 1.7 0 .6-.5.7-1.3.3-1.7-.4-.5-1.2-.5-1.7 0-.6.4-.7 1.2-.3 1.7M63 43.8c.6.8 1.9.8 2.8 0s1.1-2 .5-2.8-1.9-.8-2.8 0c-.8.8-1.1 2.1-.5 2.8m-1.5 7.1c.7.9 2.1.9 3.1 0s1.3-2.3.6-3.1c-.7-.9-2.1-.9-3.1 0-1 .8-1.3 2.2-.6 3.1m-8.2 6.9c.7.9 2.1.9 3.1 0s1.3-2.3.6-3.1c-.7-.9-2.1-.8-3.1 0-1.1.8-1.3 2.2-.6 3.1m18-20.9c.6.8 1.9.8 2.8 0s1.1-2 .5-2.8-1.9-.8-2.8 0-1.1 2.1-.5 2.8M54.8 50.7c.6.8 1.9.8 2.8 0s1.1-2 .5-2.8-1.9-.7-2.8 0c-.9.8-1.1 2.1-.5 2.8M72.6 30c.6.8 1.9.8 2.8 0s1.1-2 .5-2.8-1.9-.7-2.8 0c-.9.8-1.1 2.1-.5 2.8m-8.2 6.9c.6.8 1.9.8 2.8 0s1.1-2 .5-2.8-1.9-.8-2.8 0-1.1 2.1-.5 2.8m-5.7 28c.8 1 2.3 1 3.5 0 1.1-1 1.4-2.5.7-3.5-.8-1-2.3-1-3.5 0s-1.5 2.5-.7 3.5m18-20.9c.7.9 2.1.8 3.1 0 1-.9 1.3-2.3.6-3.1-.7-.9-2.1-.9-3.1 0-1 .8-1.3 2.2-.6 3.1m-9.8 14c.8 1 2.3 1 3.5 0 1.1-1 1.4-2.5.7-3.5-.8-1-2.3-.9-3.5 0-1.2 1-1.4 2.5-.7 3.5m2.9-14c.7.9 2.1.9 3.1 0s1.3-2.3.6-3.1c-.7-.9-2.1-.9-3.1 0-1.1.8-1.3 2.2-.6 3.1m-1.3 6.9c.7.9 2.1.9 3.1 0s1.3-2.3.6-3.1c-.7-.9-2.1-.9-3.1 0-1.1.8-1.3 2.2-.6 3.1m-8.3 6.9c.7.9 2.1.8 3.1 0 1-.9 1.3-2.3.6-3.1-.7-.9-2.1-.9-3.1 0-1 .8-1.3 2.2-.6 3.1m-9.5-21.1c.5.7 1.6.7 2.4 0s1-1.8.5-2.4c-.5-.7-1.6-.7-2.4 0s-1 1.8-.5 2.4m9.8-13.9c.5.6 1.4.6 2.1 0s.9-1.5.4-2.1-1.4-.6-2.1 0-.9 1.5-.4 2.1M59 29.9c.5.7 1.6.7 2.4 0s1-1.8.5-2.4c-.5-.7-1.6-.7-2.4 0-.9.6-1.1 1.7-.5 2.4M42.5 43.6c.5.7 1.6.7 2.4 0s1-1.8.5-2.4c-.5-.7-1.6-.7-2.4 0-.9.7-1.1 1.8-.5 2.4m19.3-27.7c.5.6 1.4.6 2.1 0s.9-1.5.4-2.1-1.4-.6-2.1 0-.9 1.5-.4 2.1m-9.6 13.8c.5.6 1.4.6 2.1 0s.9-1.5.4-2.1-1.4-.6-2.1 0-.8 1.5-.4 2.1M44 36.6c.5.6 1.4.6 2.1 0s.9-1.5.4-2.1-1.4-.6-2.1 0-.9 1.5-.4 2.1m5.4 7c.5.7 1.6.7 2.4 0s1-1.8.5-2.4c-.5-.7-1.6-.7-2.4 0s-1.1 1.8-.5 2.4M67.2 23c.5.7 1.6.7 2.4 0s1-1.8.5-2.4c-.5-.7-1.6-.7-2.4 0-.8.6-1 1.7-.5 2.4M47.9 50.7c.6.8 1.9.8 2.8 0s1.1-2 .5-2.8-1.9-.8-2.8 0-1.2 2.1-.5 2.8m18-20.9c.5.7 1.6.7 2.4 0s1-1.8.5-2.4c-.6-.7-1.6-.7-2.4 0s-1 1.8-.5 2.4m-9.8 14c.6.8 1.9.8 2.8 0s1.1-2 .5-2.8-1.9-.8-2.8 0-1.1 2.1-.5 2.8m1.5-7c.5.7 1.6.7 2.4 0s1-1.8.5-2.4c-.5-.7-1.6-.7-2.4 0-.8.6-1 1.7-.5 2.4M106.8 68c-1.6 1.3-2 3.5-1 4.9 1.1 1.3 3.2 1.3 4.8 0s2-3.5 1-4.9-3.2-1.4-4.8 0m-.7 27.3c1.6-1.3 2-3.5.9-4.9-1.1-1.3-3.3-1.3-4.9 0s-2 3.5-.9 4.9c1.1 1.3 3.3 1.3 4.9 0M103.7 83c-1.6 1.3-2 3.5-.9 4.8s3.3 1.3 4.8 0c1.6-1.3 2-3.5.9-4.9-1-1.3-3.2-1.3-4.8.1" style="fill:#15397f;fill-rule:nonzero" transform="translate(.534 7.867)scale(.29556)"/><path d="M105.2 75.5c-1.6 1.3-2 3.5-.9 4.9 1.1 1.3 3.3 1.3 4.8 0 1.6-1.3 2-3.5.9-4.9-1-1.4-3.2-1.4-4.8 0M96.5 83c-1.6 1.3-2 3.5-.9 4.8s3.3 1.3 4.9 0 2-3.5.9-4.9c-1.1-1.3-3.3-1.3-4.9.1" style="fill:#15397f;fill-rule:nonzero" transform="translate(.534 7.867)scale(.29556)"/><path d="M98.1 75.5c-1.6 1.3-2 3.5-.9 4.9 1.1 1.3 3.3 1.3 4.9 0s2-3.5.9-4.9-3.3-1.4-4.9 0m1.6-7.5c-1.6 1.3-2 3.5-.9 4.8s3.3 1.3 4.9 0c1.6-1.4 2-3.5.9-4.9-1.2-1.3-3.3-1.3-4.9.1M95 90.4c-1.6 1.3-2 3.5-.9 4.8s3.3 1.3 4.9 0c1.6-1.4 2-3.5.9-4.9-1.1-1.2-3.3-1.2-4.9.1" style="fill:#15397f;fill-rule:nonzero" transform="translate(.534 7.867)scale(.29556)"/><path d="M137.1 47.4c-.8-1.1-2.5-1.1-3.8 0-1.3 1-1.6 2.8-.8 3.8.8 1.1 2.5 1.1 3.8 0 1.3-1 1.6-2.7.8-3.8m-8.4 6.8c-.9-1.1-2.8-1.2-4.2 0-1.4 1.1-1.7 3-.8 4.2.9 1.1 2.8 1.2 4.2 0s1.7-3.1.8-4.2m-4.3 21.4c-1-1.2-3-1.3-4.5 0-1.5 1.2-1.9 3.2-.9 4.5s3 1.3 4.5 0c1.5-1.2 1.9-3.2.9-4.5m6.3 4.5c1.5-1.2 1.9-3.3.9-4.5s-3-1.3-4.5 0c-1.5 1.2-1.9 3.2-.9 4.5s3 1.3 4.5 0m7.6-4.3c-.9-1.1-2.8-1.1-4.1 0-1.4 1.1-1.7 3-.8 4.2s2.8 1.2 4.2 0c1.3-1.2 1.6-3 .7-4.2m-5.3-7.5c-.9-1.2-2.8-1.2-4.2 0-1.4 1.1-1.7 3-.8 4.2.9 1.1 2.8 1.2 4.2 0 1.3-1.1 1.7-3 .8-4.2m12.1-27.6c-.8-1-2.3-1-3.5 0s-1.5 2.5-.7 3.5 2.3 1 3.5 0 1.5-2.5.7-3.5m-5.2 27.6c-.9-1.1-2.8-1.2-4.2 0-1.4 1.1-1.7 3-.8 4.2.9 1.1 2.8 1.2 4.2 0 1.3-1.1 1.7-3 .8-4.2m3.7-3.3c.8 1.1 2.5 1.1 3.8 0 1.3-1 1.6-2.8.8-3.8-.8-1.1-2.6-1.1-3.8 0-1.3 1.1-1.7 2.8-.8 3.8m3 3.5c-.8-1.1-2.5-1.1-3.8 0-1.3 1-1.6 2.7-.8 3.8s2.6 1.1 3.8 0c1.3-1 1.6-2.7.8-3.8m-5.4-7.3c-.8-1.1-2.5-1.1-3.8 0-1.3 1-1.6 2.7-.8 3.8s2.5 1.1 3.8 0c1.3-1 1.7-2.7.8-3.8m-18.8 4c.9 1.2 2.8 1.2 4.2 0 1.4-1.1 1.7-3 .8-4.1s-2.8-1.2-4.1 0c-1.5 1.1-1.8 2.9-.9 4.1m22 14.8c1.4-1.1 1.7-3 .8-4.2s-2.8-1.2-4.2 0c-1.4 1.1-1.7 3-.8 4.2 1 1.1 2.8 1.1 4.2 0m4.6-7.7c.8 1.1 2.5 1.1 3.8 0s1.6-2.8.8-3.8c-.8-1.1-2.5-1.1-3.8 0-1.3 1-1.7 2.7-.8 3.8m5.9-10.9c-.8-1-2.3-1-3.5 0-1.1 1-1.5 2.5-.7 3.5s2.3 1 3.5 0c1.1-1 1.4-2.5.7-3.5m-15.3-10.3c.8 1 2.3 1 3.5 0 1.1-1 1.4-2.5.7-3.5-.8-1-2.3-1-3.5 0-1.1.9-1.4 2.5-.7 3.5m9.7 3.4c-.8-1-2.3-1-3.5 0-1.1 1-1.5 2.5-.7 3.5s2.3 1 3.5 0 1.5-2.5.7-3.5M130.4 61c-1.4 1.1-1.7 3-.8 4.2s2.8 1.2 4.2 0c1.4-1.1 1.7-3 .8-4.2-1-1.1-2.9-1.1-4.2 0m.7-2.9c.8 1.1 2.5 1.1 3.8 0s1.6-2.7.8-3.8-2.5-1.1-3.8 0-1.6 2.8-.8 3.8m-9.6 10c-1.5 1.2-1.9 3.3-.9 4.5s3 1.3 4.5 0c1.5-1.2 1.9-3.2.9-4.5-1-1.2-3-1.2-4.5 0m16.5-10c.8 1.1 2.5 1.1 3.8 0s1.6-2.8.7-3.8c-.8-1.1-2.5-1.1-3.8 0-1.2 1.1-1.5 2.8-.7 3.8M153.2 34c-.7-.9-2.1-.9-3.1 0s-1.3 2.3-.6 3.1c.7.9 2.1.9 3.1 0s1.3-2.3.6-3.1m37.9-20c-.4-.5-1.2-.5-1.7 0-.6.5-.7 1.2-.3 1.7s1.2.5 1.7 0c.6-.5.7-1.3.3-1.7m11.1 13.8c-.4-.5-1.2-.5-1.7 0-.6.5-.7 1.2-.3 1.7s1.2.5 1.7 0c.6-.5.7-1.3.3-1.7m-5.5-6.9c-.4-.5-1.2-.5-1.7 0-.6.5-.7 1.2-.3 1.7s1.2.5 1.7 0 .7-1.2.3-1.7m-4.4-13.7c-.3-.4-.9-.4-1.4 0s-.6 1-.3 1.4.9.4 1.4 0 .6-1 .3-1.4m1.4-6.9c-.3-.4-.9-.4-1.4 0s-.6 1-.3 1.4.9.4 1.4 0 .6-1 .3-1.4m4.2 13.8c-.3-.4-.9-.4-1.4 0s-.6 1-.3 1.4.9.4 1.4 0c.4-.4.6-1 .3-1.4m5.5 6.9c-.3-.4-.9-.4-1.4 0s-.6 1-.3 1.4.9.4 1.4 0 .6-1 .3-1.4m-9.3 13.5c-.5-.6-1.4-.6-2.1 0s-.9 1.5-.4 2.1 1.4.6 2.1 0 .9-1.5.4-2.1M185.6 7c-.4-.5-1.1-.5-1.7 0s-.7 1.2-.4 1.7c.4.5 1.2.5 1.7 0 .6-.4.8-1.2.4-1.7m-34.9 40.6c-.8-1-2.3-1-3.5 0-1.1 1-1.5 2.5-.7 3.5s2.3 1 3.5 0 1.5-2.5.7-3.5m37.9-20c-.5-.6-1.4-.6-2.1 0s-.9 1.5-.4 2.1 1.4.6 2.1 0 .9-1.5.4-2.1m6.7.2c-.4-.5-1.2-.5-1.7 0-.6.5-.7 1.2-.3 1.7s1.2.5 1.7 0 .7-1.2.3-1.7m-5.5-6.9c-.4-.5-1.2-.5-1.7 0-.6.5-.7 1.2-.3 1.7s1.2.5 1.7 0 .6-1.2.3-1.7m-6.8-.2c-.5-.6-1.4-.6-2.1 0s-.9 1.5-.4 2.1 1.4.6 2.1 0 .9-1.5.4-2.1m29.8-13.3c-.2-.3-.7-.3-1 0s-.4.7-.2.9c.2.3.7.3 1 0 .4-.2.4-.6.2-.9M207.3.5c-.2-.3-.7-.3-1 0s-.4.7-.2.9c.2.3.7.3 1 0 .3-.2.4-.6.2-.9m-8.1 6.7c-.3-.4-.9-.4-1.4 0s-.6 1-.3 1.4.9.4 1.4 0 .6-1 .3-1.4M210.3 21c-.3-.4-.9-.4-1.4 0s-.6 1-.3 1.4.9.4 1.4 0 .6-1 .3-1.4m-5.5-6.9c-.3-.4-.9-.4-1.4 0s-.6 1-.3 1.4.9.4 1.4 0 .6-1 .3-1.4m6.6.3c-.2-.3-.6-.3-1 0-.3.3-.4.7-.2.9.2.3.7.3 1 0 .4-.3.5-.7.2-.9m-5.5-7c-.2-.3-.6-.3-1 0-.3.2-.4.7-.2.9.2.3.7.3 1 0 .3-.2.4-.6.2-.9M200.4.5c-.2-.3-.7-.3-1 0s-.4.7-.2.9c.2.3.7.2 1 0s.4-.6.2-.9M184.2 14c-.4-.5-1.2-.5-1.7 0-.6.5-.7 1.2-.3 1.7s1.2.5 1.7 0 .7-1.3.3-1.7m-18.7 27c-.6-.8-1.9-.8-2.8 0s-1.2 2-.6 2.8 1.9.8 2.8 0c1-.7 1.2-2 .6-2.8m-1.2 6.8c-.7-.9-2.1-.9-3.1 0s-1.3 2.3-.6 3.1c.7.9 2.1.9 3.1 0s1.3-2.3.6-3.1m5.6 6.9c-.7-.9-2.1-.9-3.1 0s-1.3 2.3-.6 3.1c.7.9 2.1.9 3.1 0s1.3-2.3.6-3.1m-10-20.5c-.6-.8-1.8-.8-2.8 0-.9.8-1.2 2-.5 2.8.6.8 1.8.8 2.8 0 .9-.8 1.2-2.1.5-2.8M171 47.9c-.6-.8-1.9-.8-2.8 0s-1.2 2-.6 2.8 1.8.8 2.8 0c1-.7 1.3-2 .6-2.8m-9.7-20.7c-.6-.8-1.9-.8-2.8 0s-1.2 2-.6 2.8 1.9.8 2.8 0c1-.7 1.2-2 .6-2.8m5.6 7c-.6-.8-1.8-.8-2.8 0-.9.8-1.2 2-.6 2.8s1.9.8 2.8 0 1.2-2.1.6-2.8m-5.1 27.2c-.8-1-2.3-1-3.5 0-1.1.9-1.5 2.5-.7 3.5s2.3 1 3.5 0 1.5-2.5.7-3.5m-9.9-20.5c-.7-.9-2.1-.9-3.1 0s-1.3 2.3-.6 3.1c.7.9 2.1.9 3.1 0s1.2-2.3.6-3.1m4.3 13.6c-.8-1-2.3-1-3.5 0-1.1 1-1.5 2.5-.7 3.5s2.3 1 3.5 0 1.5-2.5.7-3.5m2.6-13.6c-.7-.9-2.1-.9-3.1 0s-1.3 2.3-.6 3.1c.7.9 2.1.9 3.1 0s1.3-2.3.6-3.1m-1.4 6.9c-.7-.9-2.1-.9-3.1 0s-1.3 2.2-.6 3.1 2.1.9 3.1 0 1.3-2.3.6-3.1m5.5 6.9c-.7-.9-2.1-.9-3.1 0s-1.3 2.2-.6 3.1 2.1.9 3.1 0c1.1-.9 1.3-2.3.6-3.1m17.6-20.4c-.5-.7-1.6-.7-2.4 0s-1 1.8-.5 2.4c.5.7 1.6.7 2.4 0 .8-.6 1-1.7.5-2.4m-4.4-13.6c-.5-.6-1.4-.6-2.1 0s-.9 1.5-.4 2.1 1.4.6 2.1 0 .9-1.5.4-2.1m-1.1 6.7c-.5-.7-1.6-.7-2.4 0s-1 1.8-.5 2.4c.5.7 1.6.7 2.4 0 .8-.6 1-1.7.5-2.4m11.1 13.8c-.5-.7-1.6-.7-2.4 0s-1 1.8-.5 2.4c.5.7 1.6.7 2.4 0 .8-.6 1-1.7.5-2.4m-8.6-27.4c-.5-.6-1.4-.6-2.1 0s-.9 1.5-.4 2.1 1.4.6 2.1 0 .9-1.5.4-2.1m4.2 13.8c-.5-.6-1.4-.6-2.1 0s-.9 1.5-.4 2.1 1.4.6 2.1 0c.6-.6.8-1.5.4-2.1m5.5 6.9c-.5-.6-1.4-.6-2.1 0s-.9 1.5-.4 2.1 1.4.6 2.1 0 .9-1.5.4-2.1m-8.1 6.7c-.5-.7-1.6-.7-2.4 0s-1 1.8-.5 2.4c.5.7 1.6.7 2.4 0 .9-.6 1.1-1.7.5-2.4m-9.7-20.7c-.5-.7-1.6-.7-2.4 0s-1 1.8-.5 2.4c.5.7 1.6.7 2.4 0 .8-.6 1-1.7.5-2.4m8.6 27.4c-.6-.8-1.8-.8-2.8 0-.9.8-1.2 2-.6 2.8s1.9.8 2.8 0c.9-.7 1.2-2 .6-2.8m-10-20.5c-.5-.7-1.6-.7-2.4 0s-1 1.8-.5 2.4c.5.7 1.6.7 2.4 0 .9-.6 1.1-1.7.5-2.4m4.4 13.6c-.6-.8-1.8-.8-2.8 0-.9.8-1.2 2-.6 2.8s1.9.8 2.8 0c1-.7 1.2-2 .6-2.8m1.2-6.7c-.5-.7-1.6-.7-2.4 0s-1 1.8-.5 2.4c.5.7 1.6.7 2.4 0 .8-.6 1-1.7.5-2.4M124 112c-.9-1-2.6-1-3.8 0-1.3 1-1.6 2.8-.7 3.8.9 1.1 2.6 1 3.8 0 1.3-1 1.6-2.7.7-3.8m-5.6-7.1c-.9-1.1-2.8-1.1-4.2 0-1.4 1.2-1.7 3-.8 4.2.9 1.1 2.8 1.1 4.1 0 1.5-1.2 1.8-3 .9-4.2m4.5-21.8c-1-1.2-3-1.2-4.5 0s-1.9 3.3-.9 4.5 3 1.2 4.5 0 1.9-3.2.9-4.5m2.6 0c-1.5 1.3-1.9 3.3-.8 4.5 1 1.2 3 1.2 4.5 0 1.5-1.3 1.9-3.3.9-4.5-1.1-1.2-3.1-1.2-4.6 0m11.3.2c-.9-1.2-2.8-1.1-4.2 0s-1.7 3-.8 4.2c.9 1.1 2.8 1.1 4.2 0 1.4-1.2 1.7-3.1.8-4.2" style="fill:#bbc2db;fill-rule:nonzero" transform="translate(.534 7.867)scale(.29556)"/><path d="M116.3 80.3c1.6-1.3 2-3.5 1-4.9-1.1-1.3-3.2-1.3-4.8 0s-2 3.5-1 4.8c1 1.5 3.2 1.5 4.8.1" style="fill:#15397f;fill-rule:nonzero" transform="translate(.534 7.867)scale(.29556)"/><path d="M110.8 83c-1.6 1.3-2 3.5-.9 4.8s3.2 1.3 4.8 0 2-3.5.9-4.9c-1-1.3-3.2-1.3-4.8.1" style="fill:#15397f;fill-rule:nonzero" transform="translate(.534 7.867)scale(.29556)"/><path d="M115.7 60.9c-1.5 1.2-1.9 3.3-.9 4.5 1 1.3 3 1.3 4.5 0 1.5-1.2 1.9-3.3.9-4.5-1-1.3-3.1-1.3-4.5 0" style="fill:#bbc2db;fill-rule:nonzero" transform="translate(.534 7.867)scale(.29556)"/><path d="M113 72.8c1.1 1.3 3.2 1.4 4.8 0 1.6-1.3 2-3.5 1-4.9-1.1-1.3-3.2-1.4-4.9 0-1.5 1.4-2 3.6-.9 4.9m-1.4 29.6c1.5-1.2 1.9-3.3.9-4.5s-3-1.2-4.5 0-1.9 3.3-.9 4.5 3.1 1.2 4.5 0m-3.3-7.1c1.1 1.3 3.3 1.3 4.9 0s2-3.5.9-4.9c-1.1-1.3-3.3-1.3-4.9 0-1.5 1.4-1.9 3.6-.9 4.9m20-4.5c-.9-1.1-2.8-1.1-4.2 0s-1.7 3-.8 4.2c.9 1.1 2.8 1.1 4.2 0 1.4-1.2 1.7-3.1.8-4.2m1.1 28.3c-.8-1-2.3-1-3.5 0-1.1 1-1.4 2.5-.7 3.5.8 1 2.3.9 3.5 0 1.2-1 1.5-2.6.7-3.5m5.8-28.3c-.9-1.1-2.8-1.1-4.2 0s-1.7 3-.8 4.2c.9 1.1 2.8 1.1 4.2 0 1.4-1.2 1.8-3.1.8-4.2m.8 11.2c.9 1 2.6 1 3.8 0 1.3-1.1 1.6-2.8.7-3.8-.9-1.1-2.6-1-3.8 0-1.2 1.1-1.6 2.8-.7 3.8m6-11c-.8-1.1-2.6-1-3.8 0-1.2 1.1-1.6 2.8-.7 3.8.9 1.1 2.6 1.1 3.8 0s1.5-2.8.7-3.8m-8.4 7.2c-.9-1-2.6-1-3.8 0-1.3 1.1-1.6 2.8-.7 3.8.9 1.1 2.6 1 3.8 0s1.6-2.7.7-3.8m-18.8 4c.9 1.1 2.8 1.1 4.2 0s1.7-3 .8-4.1c-.9-1.2-2.8-1.1-4.2 0s-1.8 3-.8 4.1m24.8-18.9c-1.4 1.2-1.7 3-.8 4.2.9 1.1 2.8 1.1 4.2 0s1.7-3 .8-4.2c-1-1.2-2.9-1.1-4.2 0m4.8 11.5c.9 1 2.6 1 3.8 0 1.3-1.1 1.6-2.8.7-3.8s-2.6-1-3.8 0c-1.3 1-1.6 2.7-.7 3.8m2.9 3.6c-.8-1-2.3-.9-3.5 0-1.1 1-1.4 2.5-.7 3.5.8 1 2.3 1 3.5 0 1.1-1 1.4-2.6.7-3.5m-20.7 17.3c.8 1 2.3.9 3.5 0 1.1-1 1.4-2.5.7-3.5-.8-1-2.3-.9-3.5 0-1.1 1-1.4 2.5-.7 3.5m12.4-10.4c-.8-1-2.3-1-3.5 0-1.1 1-1.4 2.5-.7 3.5.8 1 2.3 1 3.5 0s1.5-2.6.7-3.5m-12.9-3.1c1.4-1.2 1.7-3 .8-4.2-.9-1.1-2.8-1.1-4.2 0s-1.7 3-.8 4.2c1 1.2 2.8 1.2 4.2 0m-5.3 6.7c.9 1.1 2.6 1.1 3.8 0 1.3-1.1 1.6-2.8.7-3.8s-2.6-1-3.8 0c-1.2 1.1-1.5 2.8-.7 3.8m-.3-13.8c1.5-1.2 1.9-3.3.9-4.5s-3-1.2-4.5 0-1.9 3.3-.9 4.5c1 1.3 3 1.3 4.5 0m7.2 13.8c.9 1 2.6 1 3.8 0 1.2-1.1 1.6-2.8.7-3.8s-2.6-1-3.8 0c-1.2 1.1-1.5 2.8-.7 3.8m7.1 17.3c-.7-.9-2.1-.9-3.1 0s-1.3 2.3-.6 3.1c.7.9 2.1.9 3.1 0 1.1-.9 1.3-2.3.6-3.1m29.9 21.4c-.4-.5-1.2-.5-1.7 0-.6.5-.7 1.2-.3 1.7s1.2.5 1.7 0c.6-.5.7-1.2.3-1.7m16.5-13.8c-.4-.5-1.2-.5-1.7 0-.6.5-.7 1.3-.3 1.7.4.5 1.2.5 1.7 0 .6-.5.7-1.3.3-1.7m-8.2 6.9c-.4-.5-1.2-.5-1.7 0-.6.5-.7 1.3-.3 1.7.4.5 1.2.5 1.7 0s.7-1.3.3-1.7m-9.8 14c-.3-.4-.9-.4-1.4 0s-.6 1-.3 1.4.9.4 1.4 0 .6-1.1.3-1.4m-1.3 6.9c-.3-.4-.9-.4-1.4 0s-.6 1-.3 1.4 1 .4 1.4 0c.5-.4.6-1 .3-1.4m9.6-13.9c-.3-.4-.9-.4-1.4 0s-.6 1-.3 1.4.9.4 1.4 0 .6-1 .3-1.4m8.2-6.9c-.3-.4-.9-.4-1.4 0-.4.4-.6 1-.3 1.4s.9.4 1.4 0 .6-1 .3-1.4m-3.9-14.1c-.5-.6-1.4-.6-2.1 0s-.9 1.5-.4 2.1 1.4.6 2.1 0 .9-1.5.4-2.1m-19.3 27.8c-.4-.5-1.2-.5-1.7 0-.6.5-.7 1.3-.3 1.7.4.5 1.2.5 1.7 0s.7-1.2.3-1.7m-18.8-42.3c-.8-1-2.3-.9-3.5 0-1.1 1-1.4 2.5-.7 3.5.8.9 2.3.9 3.5 0 1.2-1 1.5-2.6.7-3.5m29.9 21.4c-.5-.6-1.4-.6-2.1 0s-.9 1.5-.4 2.1 1.4.6 2.1 0 .8-1.5.4-2.1m6.7.2c-.4-.5-1.2-.5-1.7 0-.6.5-.7 1.2-.3 1.7s1.2.5 1.7 0 .7-1.3.3-1.7m-8.3 6.9c-.4-.5-1.2-.5-1.7 0-.6.5-.7 1.2-.3 1.7s1.2.5 1.7 0c.6-.5.7-1.3.3-1.7m-6.7-.2c-.5-.6-1.4-.6-2.1 0s-.9 1.5-.4 2.1 1.4.6 2.1 0 .9-1.5.4-2.1m24.5 14.4c-.2-.3-.7-.3-1 0s-.4.7-.2.9c.2.3.7.3 1 0 .3-.2.4-.7.2-.9m-8.3 6.9c-.2-.3-.7-.3-1 0s-.4.7-.2.9c.2.3.7.3 1 0 .3-.2.4-.6.2-.9m-5.4-7.1c-.3-.4-.9-.4-1.4 0s-.6 1-.3 1.4.9.4 1.4 0 .7-1.1.3-1.4m16.5-13.9c-.3-.4-.9-.4-1.4 0s-.6 1-.3 1.4 1 .4 1.4 0c.5-.4.7-1 .3-1.4m-8.2 6.9c-.3-.4-.9-.4-1.4 0s-.6 1-.3 1.4 1 .4 1.4 0c.5-.3.6-1 .3-1.4m6.7.3c-.2-.3-.7-.3-1 0s-.4.7-.2.9c.2.3.7.3 1 0s.4-.7.2-.9m-8.3 6.9c-.2-.3-.7-.3-1 0s-.4.7-.2.9c.2.3.7.3 1 0 .4-.2.4-.7.2-.9m-8.2 6.9c-.2-.3-.7-.3-1 0s-.4.7-.2.9c.2.3.7.3 1 0 .3-.2.4-.6.2-.9m-10.8-14.2c-.4-.5-1.2-.5-1.7 0-.6.5-.7 1.2-.3 1.7s1.2.5 1.7 0 .7-1.2.3-1.7m-8-28.2c-.6-.8-1.9-.8-2.8 0s-1.1 2-.5 2.8 1.9.8 2.8 0 1.1-2 .5-2.8m1.6-7c-.7-.9-2.1-.9-3.1 0s-1.3 2.3-.6 3.1c.7.9 2.1.9 3.1 0s1.2-2.3.6-3.1m8.2-6.9c-.7-.9-2.1-.9-3.1 0s-1.3 2.3-.6 3.1c.7.9 2.1.9 3.1 0s1.3-2.3.6-3.1m-18 20.8c-.6-.8-1.9-.8-2.8 0s-1.1 2-.5 2.8 1.9.8 2.8 0 1.1-2 .5-2.8m16.5-13.8c-.6-.8-1.9-.8-2.8 0s-1.1 2-.5 2.8 1.9.7 2.8 0c.9-.8 1.1-2 .5-2.8m-17.9 20.7c-.6-.8-1.9-.8-2.8 0s-1.1 2-.5 2.8 1.9.8 2.8 0 1.2-2 .5-2.8m8.3-6.9c-.6-.8-1.9-.8-2.8 0s-1.2 2-.5 2.8c.6.8 1.9.8 2.8 0s1.1-2 .5-2.8m5.7-27.9c-.8-.9-2.3-.9-3.5 0-1.1 1-1.4 2.5-.7 3.5.8 1 2.3 1 3.5 0s1.5-2.6.7-3.5m-18 20.9c-.7-.9-2.1-.8-3.1 0-1 .9-1.3 2.3-.6 3.1.7.9 2.1.9 3.1 0s1.3-2.3.6-3.1m9.7-14c-.8-1-2.3-1-3.5 0-1.1 1-1.4 2.5-.7 3.5.8 1 2.3.9 3.5 0 1.2-1 1.5-2.6.7-3.5m-2.8 14c-.7-.9-2.1-.9-3.1 0s-1.3 2.3-.6 3.1c.7.9 2.1.9 3.1 0s1.3-2.3.6-3.1m1.3-6.9c-.7-.9-2.1-.8-3.1 0-1 .9-1.3 2.3-.6 3.1.7.9 2.1.9 3.1 0 1.1-.9 1.3-2.3.6-3.1m8.3-6.9c-.7-.9-2.1-.9-3.1 0s-1.3 2.3-.6 3.1c.7.9 2.1.9 3.1 0s1.3-2.3.6-3.1m9.5 21c-.5-.7-1.6-.7-2.4 0s-1 1.8-.5 2.4c.5.7 1.6.7 2.4 0 .8-.6 1-1.7.5-2.4m-9.8 14c-.5-.6-1.4-.6-2.1 0s-.9 1.5-.4 2.1 1.4.6 2.1 0 .9-1.5.4-2.1m1.5-7.1c-.5-.7-1.6-.7-2.4 0s-1 1.8-.5 2.4c.5.7 1.6.7 2.4 0 .8-.6 1.1-1.7.5-2.4m16.5-13.8c-.5-.7-1.6-.7-2.4 0s-1 1.8-.5 2.4c.5.7 1.6.7 2.4 0 .8-.6 1.1-1.7.5-2.4m-19.3 27.8c-.5-.6-1.4-.6-2.1 0s-.9 1.5-.4 2.1 1.4.6 2.1 0 .8-1.5.4-2.1m9.5-13.8c-.5-.6-1.4-.6-2.1 0s-.9 1.5-.4 2.1 1.4.6 2.1 0 .9-1.5.4-2.1m8.3-6.9c-.5-.6-1.4-.6-2.1 0s-.9 1.5-.4 2.1 1.4.6 2.1 0 .9-1.5.4-2.1m-5.4-7.1c-.5-.7-1.6-.7-2.4 0s-1 1.8-.5 2.4c.5.7 1.6.7 2.4 0 .8-.6 1-1.7.5-2.4m-17.8 20.7c-.5-.7-1.6-.7-2.4 0s-1 1.8-.5 2.4c.5.7 1.6.7 2.4 0 .8-.6 1-1.7.5-2.4m19.3-27.8c-.6-.8-1.9-.8-2.8 0s-1.1 2-.5 2.8 1.9.8 2.8 0 1.1-2 .5-2.8m-18 20.9c-.5-.7-1.6-.7-2.4 0s-1 1.8-.5 2.4c.5.7 1.6.7 2.4 0 .8-.6 1-1.7.5-2.4m9.8-14c-.6-.8-1.9-.8-2.8 0s-1.1 2-.5 2.8 1.9.8 2.8 0c.8-.8 1.1-2 .5-2.8m-1.6 7.1c-.5-.7-1.6-.7-2.4 0s-1 1.8-.5 2.4c.6.7 1.6.7 2.4 0 .9-.6 1.1-1.7.5-2.4" style="fill:#bbc2db;fill-rule:nonzero" transform="translate(.534 7.867)scale(.29556)"/></svg>