<svg xmlns="http://www.w3.org/2000/svg" xml:space="preserve" style="background-color:#fff;fill-rule:evenodd;clip-rule:evenodd;stroke-linejoin:round;stroke-miterlimit:2" viewBox="0 0 64 64"><path d="M43.5 71.4H1.8c-.8 0-1.8.8-1.8 1.7v4.7c0 .9.7 1.7 1.6 1.7h29.2l-8 8h-21c-1.1 0-1.8.8-1.8 1.7V94c0 .9.8 1.7 1.6 1.7h13l-14 14c-.4.4-.6 1-.6 1.7v3.5c0 .8.8 1.6 1.6 1.6h3.5c.7 0 1.2-.2 1.6-.6l30.1-30.1v10.6l-18.4 18.4c-.5.4-.5 1.7.9 1.7H27c.8 0 1.4-.2 1.9-.8l7.8-7.8v7.1c0 .8.8 1.5 1.7 1.5h4.9c.8 0 1.5-.7 1.5-1.5V73c.2-.9-.4-1.6-1.3-1.6" style="fill:#00a1d9;fill-rule:nonzero" transform="translate(7.592 -70.283)scale(1.0887)"/></svg>