<svg xmlns="http://www.w3.org/2000/svg" xml:space="preserve" style="background-color:#fff;fill-rule:evenodd;clip-rule:evenodd;stroke-linejoin:round;stroke-miterlimit:2" viewBox="0 0 64 64"><path d="M390.262 208.007c0 74.121-60.131 134.228-134.252 134.228-74.139 0-134.216-60.107-134.216-134.228 0-74.109 60.076-134.197 134.216-134.197 74.121 0 134.252 60.089 134.252 134.197M256.01 0C141.108 0 47.972 93.135 47.972 208.007c0 114.896 93.135 208.038 208.038 208.038 114.884 0 208.013-93.141 208.013-208.038C464.024 93.135 370.894 0 256.01 0" style="fill:#773dbd;fill-rule:nonzero" transform="translate(5 10.06)scale(.10547)"/><path d="M0 165.944h512v84.152H0z" style="fill:#000f9f" transform="translate(5 10.06)scale(.10547)"/></svg>