<svg xmlns="http://www.w3.org/2000/svg" xml:space="preserve" style="background-color:#fff;fill-rule:evenodd;clip-rule:evenodd;stroke-linejoin:round;stroke-miterlimit:2" viewBox="0 0 64 64"><path d="M34.459 1.316c.136.196.16.44.067.687l-9.794 24.361c-.17.397-.666.727-1.085.727h-3.474c-.463 0-.896-.365-1.047-.718L9.366 2.01a.7.7 0 0 1 .015-.691c.124-.2.348-.315.615-.315h3.474c.457 0 .935.324 1.088.736l7.37 18.329 7.37-18.338a1.18 1.18 0 0 1 1.05-.727h3.476c.267 0 .499.114.635.312m-27.567.418a1.17 1.17 0 0 0-1.052-.73H2.366a.75.75 0 0 0-.635.311c-.136.196-.16.442-.064.696l5.35 13.307H1.963c-.497 0-.9.39-.9.867v3.158c0 .49.412.902.9.902h7.034l2.464 6.128c.167.39.663.718 1.081.718h3.475a.71.71 0 0 0 .611-.314.73.73 0 0 0 .053-.692zm20.291 24.352a.73.73 0 0 0 .053.69c.132.2.354.316.61.316h3.475c.419 0 .914-.33 1.082-.718l2.464-6.13H41.9a.917.917 0 0 0 .9-.9v-3.158c0-.478-.403-.867-.9-.867h-5.054l5.35-13.307c.095-.255.072-.5-.064-.696a.75.75 0 0 0-.635-.311h-3.475c-.447 0-.89.307-1.051.73z" style="fill:#22386f;fill-rule:nonzero" transform="translate(4.676 14.498)scale(1.2459)"/></svg>