<svg xmlns="http://www.w3.org/2000/svg" xml:space="preserve" style="background-color:#fff;fill-rule:evenodd;clip-rule:evenodd;stroke-linejoin:round;stroke-miterlimit:2" viewBox="0 0 64 64">
  <path d="M2837.96 495.816c-3.93-6.753-1.61-12.3 5.19-12.3h249.52c6.78 0 15.49 5.547 19.44 12.3l113.46 196.168c3.93 6.766 1.6 12.27-5.17 12.27h-249.54c-6.79 0-15.49-5.504-19.4-12.27" style="fill:#d20019;fill-rule:nonzero" transform="matrix(.13817 0 0 -.13817 -386.889 114.054)"/>
  <path d="M3081.23 570.375h44.29c5.61 0 9.34 1.234 9.34 6.039 0 5.656-3.73 6.879-9.34 6.879h-44.29v-12.918Zm0 30.094h43.71c4.77 0 7.57 1.75 7.57 6.457 0 4.773-2.8 6.512-7.57 6.512h-43.71v-12.969Zm-25.91 32.867h72.42c20.66 0 30.71-8.121 30.71-21.754 0-13.621-5.26-16.961-12.5-19.016v-.328c11.32-1.398 15.54-7.336 15.54-19.832 0-18.183-10.98-21.945-25.83-21.945h-80.34M3021.02 600.504h-46.18l3.76 6.672c1.79 3.113 4.31 6.203 7.81 6.203h27.16c6.3-.309 7.45-3.988 7.45-8.43v-4.445Zm1.43 33.976h-40.82c-10.35 0-18.52-5.167-24.33-15.335l-39.73-68.684h29.08l18.64 33.074c.17-.031.34-.125.53-.125h55.2v-32.949h24.44v59.664c0 13.484-7.16 24.355-23.01 24.355" style="fill:#fff;fill-rule:nonzero" transform="matrix(.13817 0 0 -.13817 -386.889 114.054)"/>
</svg>
