<svg xmlns="http://www.w3.org/2000/svg" xml:space="preserve" style="background-color:#fff;fill-rule:evenodd;clip-rule:evenodd;stroke-linejoin:round;stroke-miterlimit:2" viewBox="0 0 64 64">
  <path d="m256.632 123.429.876 6.171-.438 9.698 5.693 5.29-.876 4.408 56.056-27.771-3.941-4.408-7.883-5.29-2.628 1.322-5.693-2.204c42.48-20.718 98.536-47.167 152.403-72.735l-7.445-5.29zM260.573 154.727l-9.196 12.783-3.942 12.343 3.942 8.817.438.881c8.32-4.849 15.765-8.816 21.021-11.902 26.714-13.665 69.194-33.943 74.011-36.588l-16.642-12.783c40.291-19.837 94.595-45.845 147.148-70.531l-7.445-5.29zM86.274 181.176c-11.824 8.375-20.583 16.31-29.342 23.804l.876.882.438-.441c11.386-8.817 21.897-15.87 36.787-25.127 31.531-20.277 45.107-23.804 85.836-44.522.437-1.764.437-3.086.875-3.968.438-.881 4.818-6.171 5.256-6.171l-28.904 14.106c-15.766 7.935-46.422 22.922-71.822 41.437M279.843 178.531c-43.356 23.363-67.005 39.673-85.398 55.102l.875.882c17.08-12.343 50.801-34.384 94.157-55.102 67.443-32.18 155.468-73.617 214.59-101.388l-7.445-5.29c-77.077 37.028-198.824 96.098-216.779 105.796M254.442 91.249l8.321 14.547-1.752 4.849-3.941 7.494 31.969-15.429-.876-1.322-4.379-4.849-3.504.441-.875-3.527 1.751-1.763-.876-5.29c39.415-19.396 91.968-43.641 142.33-67.886l-7.445-5.289c-65.69 31.738-158.533 76.702-160.723 78.024M131.381 92.131c37.225-18.515 60.436-28.213 95.909-44.523.438-.881 5.255-8.375 5.255-8.375l1.752-.441.876-2.645 2.627 3.527c4.38 3.967.876.881 7.007 6.171l1.752 2.645.438 3.967 2.628 1.323-.438 2.204 9.635-4.849-3.504-1.763-1.752-3.086-8.759-7.494c16.204-7.494 45.108-21.6 69.195-33.061L306.557 0S225.538 39.674 197.51 53.339c-35.473 17.633-70.508 33.943-101.602 49.812-15.765 8.376-44.669 23.363-69.194 40.555C17.08 150.759 7.883 157.372 0 163.543l.876.882c9.635-7.053 18.831-13.225 31.531-21.159 37.225-22.923 59.998-32.18 98.974-51.135M84.96 225.258l.876.881c1.314-.881 2.19-1.763 3.065-2.645 11.387-8.816 21.897-15.869 36.787-25.126 7.445-4.409 17.956-10.58 29.78-16.751l9.197-10.58c-15.328 8.376-33.284 18.955-47.735 29.094-13.139 8.816-22.335 16.31-31.97 25.127M208.021 88.163c.438-1.763 3.941-8.816 3.941-8.816-30.218 15.429-59.122 28.653-85.398 42.319-15.766 8.375-48.173 25.126-71.384 41.877-10.948 7.494-19.269 14.106-26.714 20.719l.876.881c10.51-7.935 21.021-14.547 34.597-23.363 34.159-20.719 127.002-66.123 144.082-73.617M333.709 19.396l-80.581 39.673 5.694 3.527-.438 1.763-3.942 4.849-.438 10.139 1.752 3.086-2.19 4.408 21.897-10.58-4.379-8.816-3.942-4.849-.876-.882c17.518-8.375 49.487-23.804 74.888-36.147z" style="fill:#e10a19;fill-rule:nonzero" transform="translate(2.967 18.492)scale(.1152)"/>
</svg>
