<svg xmlns="http://www.w3.org/2000/svg" xml:space="preserve" style="background-color:#fff;fill-rule:evenodd;clip-rule:evenodd;stroke-linejoin:round;stroke-miterlimit:2" viewBox="0 0 64 64"><path d="M267.851 95.667c-8.017-24.82 7.436-51.72 25.943-72.111-22.763 24.019-43.021 54.578-33.018 80.301 11.676 30.034 59.808 36.88 90.029 38.168.188-.26.4-.487.581-.754 2.489-3.534 4.664-7.42 6.541-11.621-45.399-.793-81.345-11.118-90.076-33.983" style="fill:#002c5a;fill-rule:nonzero" transform="translate(-5.465 15.423)scale(.13217)"/><path d="M350.9 104.367c-57.508-.589-73.895-18.554-73.895-18.554.04.4-.141.306-.235.22.149.165.62.77 1.838 2.576 14.424 21.514 79.178 24.537 79.178 24.537 1.822.071 3.659.118 5.488.149a114 114 0 0 0 1.728-9.14c-9.501.487-14.102.212-14.102.212" style="fill:#002c5a;fill-rule:nonzero" transform="translate(-5.465 15.423)scale(.13217)"/><g transform="translate(-56.458 7.357)scale(.2869)"><clipPath id="a"><path d="M0 .008h566.929v263.257H0z"/></clipPath><g clip-path="url(#a)"><path d="M395.641 62.21c-2.128-7.224-5.12-13.977-8.967-20.266-3.84-6.274-8.52-11.99-14.023-17.141-5.489-5.143-11.574-9.556-18.264-13.247q-10-5.547-21.672-8.55C324.941 1.005 316.815 0 308.327 0q-12.729.002-24.388 3.007c-7.773 2.002-15.005 4.852-21.671 8.55q-10.025 5.534-18.271 13.247c-5.497 5.15-10.176 10.867-14.016 17.141-3.848 6.289-6.839 13.042-8.959 20.266s-3.172 14.769-3.172 22.621c0 8.009 1.052 15.711 3.172 23.092s5.111 14.298 8.959 20.737c3.839 6.438 8.519 12.312 14.016 17.62a89.7 89.7 0 0 0 18.271 13.599c6.667 3.777 13.898 6.706 21.671 8.787q11.658 3.118 24.388 3.117c8.488 0 16.614-1.037 24.388-3.117q11.672-3.121 21.672-8.787a89.3 89.3 0 0 0 18.264-13.599c5.504-5.309 10.184-11.182 14.023-17.62 3.847-6.438 6.839-13.372 8.967-20.799 2.111-7.413 3.172-15.091 3.172-23.03 0-7.853-1.061-15.398-3.172-22.622m-62.447 95.44c-7.231 3.918-15.516 5.881-24.867 5.881q-14.369-.002-25.275-5.881c-7.263-3.934-13.324-9.383-18.2-16.379-4.876-6.988-8.535-15.304-11.016-24.922-2.466-9.611-3.706-20.132-3.706-31.518 0-11.228 1.24-21.538 3.706-30.921 2.481-9.391 6.14-17.478 11.016-24.27 4.876-6.8 10.938-12.076 18.2-15.861 7.271-3.761 15.696-5.653 25.275-5.653 9.352 0 17.636 1.893 24.867 5.653 7.216 3.785 13.293 9.061 18.192 15.861 4.908 6.792 8.646 14.879 11.197 24.27 2.544 9.383 3.824 19.693 3.824 30.921 0 6.769-.511 13.183-1.406 19.323a113 113 0 0 1-1.728 9.14c-.235 1.013-.432 2.065-.69 3.055q-1.899 7.136-4.656 13.293c-1.877 4.217-4.052 8.087-6.541 11.629-.181.267-.393.486-.589.754-4.804 6.611-10.653 11.832-17.603 15.625" style="fill:#002c5a;fill-rule:nonzero"/></g></g></svg>
