<svg xmlns="http://www.w3.org/2000/svg" xml:space="preserve" style="background-color:#fff;fill-rule:evenodd;clip-rule:evenodd;stroke-linejoin:round;stroke-miterlimit:2" viewBox="0 0 64 64">
  <path d="m0 0-7.172-12.563c-.776-.003-13.201 0-13.201 0s8.24-7.36 8.755-7.818l-7.088-12.568 12.581 7.723 8.831-7.723-.985 12.568 12.552 7.818s-12.425-.003-13.201 0C1.008-11.826 0 0 0 0" style="fill:#e3001a;fill-rule:nonzero" transform="matrix(1.5513 0 0 -1.5513 36.731 6.443)"/>
  <path d="M0 0c-2.423-1.506-10.006-6.231-10.006-6.231l.786-10.016-7.037 6.154s-7.598-4.656-10.028-6.148l5.649 10.018s-5.284 4.724-6.976 6.23c2.551.009 10.518 0 10.518 0l5.718 10.005C-11.168 7.59-10.524 0-10.524 0z" style="fill:#fff;fill-rule:nonzero" transform="matrix(1.5513 0 0 -1.5513 53.028 27.647)"/>
  <path d="M0 0s-7.743-4.619-10.174-6.11C-8.804-3.682-4.48 4.096-4.48 4.096s-5.5 4.887-7.192 6.393c2.552.008 10.886 0 10.886 0s4.314 7.435 5.697 9.857z" style="fill:#e3001a;fill-rule:nonzero" transform="matrix(1.5513 0 0 -1.5513 27.76 43.654)"/>
</svg>
