<svg xmlns="http://www.w3.org/2000/svg" xml:space="preserve" style="background-color:#E2001A;fill-rule:evenodd;clip-rule:evenodd;stroke-linejoin:round;stroke-miterlimit:2" viewBox="0 0 64 64">
  <path d="M37.4 9.53c.5-1.03 5.08-1.69 5.12.61v3.01h-3.14v-2.53c-.11-1.01-2.07-.61-2 .18v2.36h-3.1V6.99h3.11v2.54zm36.96-2.55H54.82v6.18h19.54z" style="fill:#fff;fill-rule:nonzero" transform="translate(3.815 24.367)scale(.75797)"/>
  <path d="M74.37 5.21h-50.8l-4.72 4.75 3.16 3.19h-6.06l-1.92-1.79c-.72-.73-.72-1.91 0-2.64l5.81-5.97c.73-.88 1.86-1.51 3.08-1.51h51.44V5.2zM56.13 18.9c1.14-.01 2.32-.43 3.09-1.39l2.58-2.6H0v3.99z" style="fill:#fff;fill-rule:nonzero" transform="translate(3.815 24.367)scale(.75797)"/>
  <path d="M30.83 10.6h.08c2.34.01 2.61-3.61-.14-3.62h-6.31v6.18h3.01v-2.43l1.76 2.43h3.95zm-1.86-.7h-1.48V8.4h1.49c.91 0 .96 1.5-.01 1.5m20.06 1.97h-1.61v-1.31h1.6c.76 0 .76 1.31.01 1.31M47.42 8.1h1.6c.76 0 .76 1.2 0 1.2h-1.6zm3.5 1.82c2.3-.25 1.97-2.94-.5-2.94h-6.01v6.18h6.38c2.75 0 2.79-3.11.14-3.24" style="fill:#fff;fill-rule:nonzero" transform="translate(3.815 24.367)scale(.75797)"/>
</svg>
