<svg xmlns="http://www.w3.org/2000/svg" xml:space="preserve" style="fill-rule:evenodd;clip-rule:evenodd;stroke-linejoin:round;stroke-miterlimit:2" viewBox="0 0 64 64">
  <path d="M0 0v-2.217h12.776l4.961 4.959 4.957-4.959h12.778V0H23.611L17.74 5.881 11.857 0H0" style="fill:#ee312c;fill-rule:nonzero" transform="matrix(1.42308 0 0 -1.42308 6.782 28.37)"/>
  <path d="M0 0v2.216h12.776l4.961-4.958 4.957 4.958h12.778V0H23.611L17.74-5.882 11.857 0H0" style="fill:#ee312c;fill-rule:nonzero" transform="matrix(1.42308 0 0 -1.42308 6.782 35.628)"/>
  <path d="M0 0v-2.217h12.777l4.96 4.959 4.957-4.959h12.778V0H23.611l-5.87 5.881L11.857 0H0" style="fill:#ee312c;fill-rule:nonzero" transform="matrix(1.42308 0 0 -1.42308 6.738 28.37)"/>
  <path d="M0 0v2.216h12.777l4.96-4.958 4.957 4.958h12.778V0H23.611l-5.87-5.882L11.857 0H0" style="fill:#ee312c;fill-rule:nonzero" transform="matrix(1.42308 0 0 -1.42308 6.738 35.628)"/>
</svg>
