<svg xmlns="http://www.w3.org/2000/svg" xml:space="preserve" style="fill-rule:evenodd;clip-rule:evenodd;stroke-linejoin:round;stroke-miterlimit:2" viewBox="0 0 64 64">
  <path d="M405.541 245.484a69931.004 69931.004 0 0 0 19.326-83.73H641.73l-20.128 93.074h147.345c-2.91 14.905-5.628 28.941-8.394 42.968-3.641 18.465-7.464 36.896-10.877 55.403-.813 4.41-2.314 5.859-6.99 5.838-45.825-.201-91.651-.116-137.476-.113h-6.006c-2.026 9.399-4.03 18.608-5.996 27.826-5.624 26.385-11.623 52.698-16.648 79.197-1.902 10.029-2.84 20.604-1.928 30.724 1.566 17.403 12.705 27.558 29.133 32.212 17.51 4.961 35.219 4.93 52.95 1.588 19.142-3.608 38.225-7.533 57.338-11.295 1.273-.25 2.587-.29 4.582-.502-.302 2.105-.47 3.846-.81 5.554-5.857 29.57-11.788 59.124-17.535 88.715-.61 3.141-1.926 4.523-5.014 5.052-28.223 4.834-56.352 10.284-84.658 14.558-36.768 5.55-73.823 8.49-111.027 8.297-29.166-.152-58.417-.951-86.703-9.065-10.622-3.047-21.24-7.19-30.78-12.702-21.156-12.22-30.487-32.215-33.033-55.789-2.371-21.96.516-43.605 4.913-65.029 9.139-44.528 18.65-88.98 28.002-133.465.367-1.747.683-3.506 1.144-5.88H33.689c1.885-9.205 3.59-17.815 5.415-26.398 5.022-23.617 10.27-47.187 15.01-70.86 1.055-5.276 2.95-6.858 8.39-6.849 109.481.186 218.962.15 328.443.158 1 0 2 .024 3-.003 10.6-.288 8.836 2.028 11.594-9.484Z" style="fill:#fffefe;fill-rule:nonzero" transform="translate(2.928 2.928) scale(.0725)"/>
</svg>
