<svg xmlns="http://www.w3.org/2000/svg" xml:space="preserve" style="background-color:#fff;fill-rule:evenodd;clip-rule:evenodd;stroke-linejoin:round;stroke-miterlimit:2" viewBox="0 0 64 64">
  <path d="M439.367 71.756c-15.539 1.148-29.101 7.063-40.537 17.67-13.07 12.122-19.849 31.643-20.442 58.901v7.622h-24.254v35.687h24.254v146.559h48.506V191.636h35.687v-35.687h-36.033c-.566-9.927.288-19.87 3.118-29.797 2.829-9.926 10.891-15.174 23.907-15.938 2.972.017 5.538.342 7.969.693l13.166-34.994c-3.594-1.179-7.694-2.306-12.473-3.118-4.78-.811-10.238-1.005-16.285-1.039-2.303-.029-4.363-.164-6.583 0Zm-338.852 36.726-47.814 14.205v33.262H28.795v35.687h23.906v84.193c-.311 7.2.306 15.805 2.079 25.986 1.774 10.181 6.614 19.444 14.206 27.371 7.591 7.927 19.93 12.037 37.072 12.473 7.098-.013 13.473-.636 19.057-1.385 5.583-.751 9.832-1.796 13.166-3.119l-.347-36.726c-2.372.498-4.903.746-7.276 1.039-2.373.294-5.307.34-8.662.347-7.343.075-12.746-2.319-16.284-7.276-3.538-4.957-5.218-12.672-5.197-23.56v-79.343h40.191v-35.687h-40.191v-47.467Zm113.297 43.309-43.309 11.78.346 261.589 48.507-13.859v-90.777h.346c3.988 6.184 9.94 11.311 17.324 15.245 7.384 3.934 15.943 6.107 25.986 6.237 19.301.17 36.353-7.635 51.278-23.214 14.924-15.579 22.748-40.079 23.56-73.453-.396-28.368-7-50.851-19.749-67.562-12.749-16.711-29.188-25.25-49.546-25.639-11.822.034-22.407 2.374-31.529 7.276-9.122 4.902-16.589 12.12-22.521 21.481h-.693v-29.104Zm38.805 39.152c11.965.307 20.91 5.691 27.025 15.938 6.116 10.247 9.335 23.685 9.355 40.191-.02 16.69-3.422 30.065-9.701 40.537-6.279 10.473-15.426 15.958-27.718 16.285-8.509.02-15.793-3.218-22.174-9.702-6.382-6.483-9.721-16.217-10.048-29.45v-33.954c.225-11.243 3.116-20.627 9.355-28.065 6.238-7.438 14.354-11.5 23.906-11.78Z" style="fill-rule:nonzero" transform="matrix(.07045 0 0 .07045 3.976 11.075)"/>
  <path d="M297.857 450.531v.01c0 3.232-2.66 5.893-5.893 5.893-3.232 0-5.893-2.661-5.893-5.893v-.01c0-3.233 2.661-5.893 5.893-5.893 3.233 0 5.893 2.66 5.893 5.893Z" style="fill:#903" transform="translate(-201.435 -308.636) scale(.78108)"/>
  <path d="M297.857 450.531v.01c0 3.232-2.66 5.893-5.893 5.893-3.232 0-5.893-2.661-5.893-5.893v-.01c0-3.233 2.661-5.893 5.893-5.893 3.233 0 5.893 2.66 5.893 5.893Z" style="fill:#903" transform="translate(-174.655 -308.636) scale(.78108)"/>
  <path d="M297.857 450.531v.01c0 3.232-2.66 5.893-5.893 5.893-3.232 0-5.893-2.661-5.893-5.893v-.01c0-3.233 2.661-5.893 5.893-5.893 3.233 0 5.893 2.66 5.893 5.893Z" style="fill:#903" transform="translate(-188.045 -308.636) scale(.78108)"/>
</svg>
