<svg xmlns="http://www.w3.org/2000/svg" xml:space="preserve" style="fill-rule:evenodd;clip-rule:evenodd;stroke-linejoin:round;stroke-miterlimit:2" viewBox="0 0 64 64">
  <path d="M517.917 983.155c-8.236 0-14.906 6.692-14.906 14.937 0 8.248 6.67 14.906 14.906 14.906 5.093 0 9.58-2.522 12.282-6.406-.08.005-.17 0-.25 0-1.64 0-2.744-.601-3.469-1.469v1.25h-3.094v-14.75h3.094v5.313c.752-1.013 1.87-1.594 3.469-1.594 1.007 0 2.006.323 2.812.938-.887-7.389-7.211-13.125-14.844-13.125Zm-4.968 12.375h9.25v2.187l-5.625 6.188h5.625v2.468h-9.438v-2.156l5.594-6.187h-5.406v-2.5Zm16.531 2.468c-1.599 0-2.906 1.263-2.906 2.938 0 1.675 1.307 2.937 2.906 2.937 1.599 0 2.906-1.262 2.906-2.937 0-1.675-1.307-2.938-2.906-2.938Z" style="fill:#ed1c24;fill-rule:nonzero" transform="translate(-878.025 -1721.812) scale(1.75719)"/>
</svg>
