<svg xmlns="http://www.w3.org/2000/svg" xml:space="preserve" style="background-color:#fff;fill-rule:evenodd;clip-rule:evenodd;stroke-linejoin:round;stroke-miterlimit:2" viewBox="0 0 64 64"><path d="M0 0h-7.543v-4.079h6.576a1.228 1.228 0 0 0 0-2.455l-6.577-.011v-10.198h4.896v6.13H0A5.307 5.307 0 1 1 0 0" style="fill:#f25c19;fill-rule:nonzero" transform="matrix(1.33447 0 0 -1.33447 50.552 20.829)"/><path d="M391.2 223.014h47.32v16.316H391.2z" style="fill:#f25c19;fill-rule:nonzero" transform="matrix(.33362 0 0 -.33362 -124.132 100.674)"/><path d="M0 0h-11.83v-.011h-.01v-10.198h4.895v6.13H0z" style="fill:#f25c19;fill-rule:nonzero" transform="matrix(1.33447 0 0 -1.33447 22.166 29.548)"/><path d="M445.744 172.362H489.8v16.316h-44.056zm.004 24.52h19.58v42.452h-19.58z" style="fill:#f25c19;fill-rule:nonzero" transform="matrix(.33362 0 0 -.33362 -124.132 100.674)"/></svg>