<svg xmlns="http://www.w3.org/2000/svg" xml:space="preserve" style="background-color:#fff;fill-rule:evenodd;clip-rule:evenodd;stroke-linejoin:round;stroke-miterlimit:2" viewBox="0 0 64 64"><path d="M278.64 44.69c11.12 0 20.41 9.48 20.41 21.42-.17 11.34-9.546 20.577-20.888 20.577q-.27 0-.542-.007h-30.81c-1.81-18.24-10-31.6-23.66-42zm0 93.19c11.12 0 20.41-9.4 20.41-21.35S288.61 95.41 277.62 96h-30.81c-1.81 18.23-9.83 31.52-23.5 41.91zm-92.86-95.03c-27.88 0-50 21.2-50 48.49v1.14a24.5 24.5 0 0 0-7.78-6.16c-7.28-3.77-16.6-4.94-24.83-6C90.65 78.77 83 77.5 83 71.45a8 8 0 0 1 3.34-6.17c2.93-2.3 7.46-3.52 13.1-3.52 8.7 0 15.47 3 22.64 10.05l1.68 1.66 16.08-14.4-1.85-1.87c-9.5-9.65-22.18-14.54-37.69-14.54-10.63 0-20.51 2.84-27.82 8-7.76 5.47-12 13.16-12 21.65 0 10.3 4.37 17.8 13 22.29 7.23 3.76 16.53 5 24.73 6.11 12.65 1.69 20.41 3 20.41 9.08 0 7.93-9.82 10.87-19 11-9 0-18-4.16-24.86-11.41L73 107.56l-16.42 14.72 1.78 1.88a56.16 56.16 0 0 0 40.45 17.43c11 0 21.33-3 29.09-8.48 7.33-5.16 11.82-12.25 12.93-20.24 8.06 16.14 25 27 44.95 27 27.88 0 50-21.21 50-48.5s-22.12-48.52-50-48.52m0 76.3-.26.001c-15.256 0-27.81-12.554-27.81-27.81s12.554-27.81 27.81-27.81 27.809 12.553 27.81 27.809c-.101 15.12-12.432 27.567-27.55 27.81" style="fill:#e10e23;fill-rule:nonzero" transform="translate(-6.479 12.064)scale(.2164)"/></svg>