<svg xmlns="http://www.w3.org/2000/svg" xml:space="preserve" style="background-color:#fff;fill-rule:evenodd;clip-rule:evenodd;stroke-linejoin:round;stroke-miterlimit:2" viewBox="0 0 64 64"><path d="M86.8 81.1c6.6 1.7 12.6 3.5 18 5.3 2.2 4.3 4.2 8.3 6.2 12.5 3.7.1 7.4.1 11.1-.2-1.1-2.3-2.1-4.4-3.2-6.7 3.6 1.6 7.1 3.5 10.4 5.8 8.3-1.8 8.2-4.5 5.3-7.2-11.3-10.4-39.9-18-54-21.2 1.4 2.5 5.3 9.9 6.2 11.7m-71.5-7c2.5-.5 5.1-.9 7.7-1 1.8-3.3 3.7-6.7 5.6-9.9-9.9.2-14.8 1.9-17 3.3s-1.2 4 3.7 7.6" style="fill:#25b7c8;fill-rule:nonzero" transform="translate(9.103 6.291)scale(.32663)"/><path d="M140.4 94.8c-3.4 15.4-60 5.1-69.6 3.2C58.7 95.5 2.7 81.6 6.2 67c-1.1 3.2-1.8 6.5-2.1 9.8-.2 2.2.2 4.3 1.3 6.2 2.1 3.3 6.7 6.2 12.6 9.2C13.7 101.1.8 129 .4 143.3c-.2 5.8 1.2 6 5.2 3.5 1.6-1.1 3-2.3 4.4-3.6 2.6-15 12.9-37.2 17.4-46.8 5.7 2.2 11.5 4.2 17.4 5.9-5.3 9-20.9 34.2-33.1 44.8-6.5 5.6-9.6 6-11.9 4.9 2 1.6 4.3 3 6.6 4.2 2.2 1.3 4.8 1.6 7.2.7 12.7-4.9 33.5-37.6 41.5-51.9 10.6 2.9 21.4 5 32.3 6.4 6.2 9.6 21.1 33 33.1 42.6 4.7 3.8 7.3 4 10.7 2.3 2.4-1.1 4.6-2.5 6.7-4.2-1.1.3-3.1.3-6.2-1.7-11-6.7-27.6-32.7-30.8-37.6 5.6.5 11.2.7 16.8.4 4.1 9.1 7.4 18.5 10 28.1 2.1 2.4 4.6 4.5 7.4 6.2 1.9 1.1 2.5.6 2.6-1.5.5-8.9-6.9-27-9.6-33.8 5.9-1.2 8.8-3.5 10.2-7.2 1.2-3.1 1.9-6.6 2.1-10.2" style="fill:#25b7c8;fill-rule:nonzero" transform="translate(9.103 6.291)scale(.32663)"/><path d="M50.3 37.1c-9.6 13.4-18.2 27.5-25.7 42.1 3.1 1.5 6.2 2.8 9.5 4.2 1.8-3.4 3.5-6.6 5.4-10 4.8.3 10 .9 15.3 1.6 1.6-3.1 3.1-6.3 4.5-9.4-4.9-.7-9.8-1.3-14.3-1.7 3.2-5.2 6.4-10.3 9.7-15.3 2 4.6 4 9.1 6.1 13.6 1.9-4.2 3.7-8.4 5.4-12.7-4.7-11-11-25.2-13.2-38.1-.5-3.6-1.1-9.2 2.3-11.4-2.9 1.2-5.7 2.7-8.3 4.6-1.9 1.5-3.1 3.8-3.2 6.2-.2 6.8 3.3 17.3 6.5 26.3" style="fill:#25b7c8;fill-rule:nonzero" transform="translate(9.103 6.291)scale(.32663)"/><path d="M52.2 89.1c3 .9 7 2.1 10.2 2.7 2.4-4.6 4.6-8.7 6.7-13.3 2.9 5.7 5.9 11 9 16.6 4.3.8 8.7 1.5 13 2.1-3.4-5.8-13.7-24.2-16.6-30.4 2.8-6.4 5.5-12.9 7.7-19.5 4.2 6.4 8.5 13.5 13 21.5 4.7 1.3 9.3 2.7 13.9 4.3-7.1-13.2-14.7-26-23.1-38.4 1.1-4 1.6-8.1 1.6-12.2 0-2.5-1.1-5-3-6.6-2.6-1.8-5.4-3.4-8.3-4.6 2.6 2.1 2.6 6.3 2.4 9.4-1 14-12.1 42.1-26.5 68.4" style="fill:#25b7c8;fill-rule:nonzero" transform="translate(9.103 6.291)scale(.32663)"/><path d="M60.8 23.9c.5 1.8 3.3 9.2 4 11 1.8-2.2 3.5-4.2 5-5.9.8 1.1 1.6 2.1 2.4 3.3 1.3-4.2 2.1-8.4 2.5-12.8 0-5.6-1-6.6-5.8-3.2-3 2.3-5.7 4.8-8.1 7.6m-2.7-8.8c.8.9 1.7 1.8 2.6 2.8 2.3-2.4 4.8-4.5 7.7-6.2-2.3-2.7-4.9-5.1-7.8-7.1-2.8-1.8-3.8-2-3.7 2.6.2 2.6.6 5.3 1.2 7.9" style="fill:#25b7c8;fill-rule:nonzero" transform="translate(9.103 6.291)scale(.32663)"/></svg>