<svg xmlns="http://www.w3.org/2000/svg" xml:space="preserve" style="background-color:#db0617;fill-rule:evenodd;clip-rule:evenodd;stroke-linejoin:round;stroke-miterlimit:2" viewBox="0 0 64 64"><path d="M93.28 15.24a8.114 8.114 0 0 0 3.25-11 8.114 8.114 0 0 0-11-3.25 8.114 8.114 0 0 0-3.25 11 8.114 8.114 0 0 0 11 3.25m29.62 4.86c-.24-1.33-1.57-2.25-4.63-1.87-19.22 2.4-30.07 4.13-69.18 8.4-3.2.35-5.88.8-6.18 3-.49 3.52 8.64 3.75 15 5.25 3.25.65 6.4 1.7 9.4 3.11 1.11.38 1.7 1.58 1.33 2.69q-.135.405-.42.72c-7.43 10.77-17.44 26.06-20.26 31.57s1.92 8.21 6.56 4.09c11-9.78 14.4-14.18 24.25-21.89 1.35-1.06 2.42-.83 2.78.78.19.89.4 2 .59 3.41.21 1.99.21 4.01 0 6v.2c0 .47-.09 1.07-.17 1.81-1.23 11.14-8.11 22.77-15.53 29.7 7.15-2.49 13.6-6.67 18.79-12.18h.08c1.14-1.22 2.2-2.5 3.17-3.86a47.4 47.4 0 0 0 8.58-20.46c.34-1.73.6-3.47.76-5.22 1.5-15.9 8.14-21.62 21.82-30.1 2.1-1.27 3.62-3.19 3.26-5.15" style="fill:#fff;fill-rule:nonzero" transform="translate(5.873 10.77)scale(.425)"/><path d="M76.63 79.24a31.6 31.6 0 0 1-13.85 10.6 38.37 38.37 0 0 1-20.55 1.73c-1.35-.24-2.66-.55-3.95-.91C15.9 84.45 2.78 61.27 8.99 38.89 14.81 17.9 35.69 4.82 57.11 8.76c2.09.38 4.09-1 4.47-3.09s-1-4.09-3.09-4.47C31.46-3.64 5.62 14.36.78 41.39c-4.6 25.73 11.5 50.63 36.86 56.99 1.07.27 2.15.52 3.26.72a50.36 50.36 0 0 0 25.53-2c7.42-6.93 14.3-18.56 15.53-29.7.08-.74.14-1.34.17-1.81-.59 4.96-2.48 9.66-5.5 13.64z" style="fill:#fff;fill-rule:nonzero" transform="translate(5.873 10.77)scale(.425)"/></svg>