<svg xmlns="http://www.w3.org/2000/svg" xml:space="preserve" style="background-color:#fff;fill-rule:evenodd;clip-rule:evenodd;stroke-linejoin:round;stroke-miterlimit:2" viewBox="0 0 64 64"><path d="m-114.164 153.457-2.501-3.443-2.159 2.965 1.836 2.563a1.73 1.73 0 0 0 2.401.376h.047a1.73 1.73 0 0 0 .376-2.461" style="fill:#73d600;fill-rule:nonzero" transform="translate(452 -490.351)scale(3.50964)"/><path d="m-117.533 148.817-2.159-2.966-2.69-3.726a1.73 1.73 0 0 0-2.401-.377h-.04a1.736 1.736 0 0 0-.383 2.401l3.362 4.641-3.362 4.633a1.736 1.736 0 0 0 .376 2.408h.041a1.73 1.73 0 0 0 2.394-.289l2.017-2.731z" style="fill:#ffad00;fill-rule:nonzero" transform="translate(452 -490.351)scale(3.50964)"/><path d="M-114.54 141.775h-.047a1.73 1.73 0 0 0-2.401.377l-1.836 2.502 2.159 2.965 2.501-3.443a1.736 1.736 0 0 0-.376-2.401" style="fill:#73d600;fill-rule:nonzero" transform="translate(452 -490.351)scale(3.50964)"/></svg>