<svg xmlns="http://www.w3.org/2000/svg" xml:space="preserve" style="background-color:#fff;fill-rule:evenodd;clip-rule:evenodd;stroke-miterlimit:3.864" viewBox="0 0 64 64"><path d="M0 0s-10.733 13.555-11.374 17.739c-.642 4.184 3.282 5.635 4.26 8.536.978 2.902-9.118 8.907-8.14 19.568s6.993 26.665 6.993 26.665l-.517-2.441s1.657 1.031.78-2.135c-1.843-4.481-1.647-8.859-1.228-13.006.977-9.683 8.93-20.289 10.549-24.169 0 0-6.129-10.253-6.77-13.796-.415-2.297 3.734-9.483 5.271-13.357C.659 1.503 0 0 0 0" style="fill:#00ab4f" transform="rotate(90.068 -17.907 15.922)scale(1.11599 -1.11599)"/><path d="M0 0s-10.733 13.555-11.374 17.739c-.642 4.184 3.282 5.635 4.26 8.536.978 2.902-9.118 8.907-8.14 19.568s6.993 26.665 6.993 26.665l-.517-2.441s1.657 1.031.78-2.135c-1.843-4.481-1.647-8.859-1.228-13.006.977-9.683 8.93-20.289 10.549-24.169 0 0-6.129-10.253-6.77-13.796-.415-2.297 3.734-9.483 5.271-13.357C.659 1.503 0 0 0 0Z" style="fill:none;fill-rule:nonzero;stroke:#00ab4f;stroke-width:.15px" transform="rotate(90.068 -17.907 15.922)scale(1.11599 -1.11599)"/><path d="M0 0c2.902 12.28 22.268 8.288 22.268 15.182S-.186 36.25-.186 43.144c0 7.376 12.534 5.597 11.779 12.933-.899 8.733-7.597 17.673-11.72 31.027-6.597 21.364-4.394 47.884-2.47 59.186" style="fill:none;fill-rule:nonzero;stroke:#00549c;stroke-width:3.2px;stroke-linecap:round;stroke-linejoin:round" transform="rotate(90.068 -17.462 4.852)scale(1.11599 -1.11599)"/></svg>