<svg xmlns="http://www.w3.org/2000/svg" xml:space="preserve" style="fill-rule:evenodd;clip-rule:evenodd;stroke-linejoin:round;stroke-miterlimit:2;background-color:#191998" viewBox="0 0 64 64"><path d="m43.616 8.077-.713 2.313c-.198.614-.516 1.234-1.36 1.234h-4.957a1 1 0 0 1-.313.052c-1.375-.047-2.364 1.068-3.135 3.5l-2.453 7.989h4.109c.453 0 .766.052.937.276s.11.536.032.817l-.834 2.641c-.218.703-.682 1.026-1.453 1.026h-4.244l-4.151 13.519h-.015l-.787 2.552c-1.375 4.495-4.176 6.901-8.098 6.953-.037 0-.068.01-.099.01h-2.557c-.396 0-.74-.026-.917-.265-.166-.224-.119-.537 0-.943l.714-2.312c.198-.615.515-1.234 1.359-1.234h1.203a.7.7 0 0 1 .297-.053c1.37.047 2.364-1.067 3.135-3.499l4.192-13.661 3.771-1.067h-3.442v-.011h-1.453c-.469 0-.813-.02-1-.265-.167-.224-.12-.537 0-.943l.718-2.312c.193-.61.506-1.234 1.354-1.234h1.834l2.083-6.776h.015l.787-2.552c1.375-4.499 4.171-6.9 8.098-6.952.036 0 .063-.011.099-.011H42.7c.395 0 .739.026.911.266.167.224.125.536 0 .942z" style="fill:#b9e100;fill-rule:nonzero" transform="translate(-1.211 -2.16)scale(1.18145)"/></svg>