<svg xmlns="http://www.w3.org/2000/svg" xml:space="preserve" style="background-color:#fff;fill-rule:evenodd;clip-rule:evenodd;stroke-linejoin:round;stroke-miterlimit:2" viewBox="0 0 64 64"><path d="M.59 0h304.92v142.078H.59z" style="fill:none" transform="translate(5.447 19.622)scale(.12205)"/><path d="M59.576 109.748c0-11.367 9.215-20.589 20.573-20.589s20.645 9.222 20.645 20.589v61.194h23.93v-61.194c0-24.521-20.002-44.538-44.503-44.538s-44.504 19.946-44.504 44.538v61.194h23.859zM6.929 70C3.143 85.87 1.143 102.384 1 119.327v33.314c.714-.5 1.429-1.001 2.143-1.43 3-1.715 6.429-2.788 10.072-2.788s8.43 1.43 11.787 3.861V70H6.858zm6.358 87.574C5.929 157.574 0 163.579 0 170.942s5.929 13.369 13.287 13.369c7.357 0 13.286-5.934 13.286-13.369s-5.929-13.368-13.286-13.368m362.242-26.38c0 11.367-9.215 20.589-20.644 20.589-11.43 0-20.573-9.222-20.573-20.589V70h-23.859v61.194c0 24.521 19.93 44.538 44.503 44.538 24.574 0 44.504-19.945 44.504-44.538V70h-23.859v61.194zm46.29-47.826c7.357 0 13.286-6.005 13.286-13.368a13.267 13.267 0 0 0-13.286-13.297c-7.358 0-13.359 5.934-13.359 13.297s5.929 13.368 13.359 13.368m6.357 87.574c3.786-15.87 5.786-32.384 5.929-49.327V88.301c-.714.501-1.428 1.001-2.143 1.43-3 1.716-6.429 2.788-10.072 2.788s-8.429-1.43-11.787-3.86v82.283h18.145z" style="fill:#9b2743;fill-rule:nonzero" transform="translate(5.447 19.622)scale(.12205)"/><path d="M159.8 161.5v12H181v57.4h12.6v-57.4h21.2v-12zm93.4 41h14.6v15.4c-1.6.8-3.5 1.4-5.8 1.9-2.8.6-5.7.8-8.6.8s-6.6-.6-9.4-1.8c-2.9-1.3-5.4-3-7.5-5.2-2.1-2.1-3.8-4.8-5-7.7-1.2-3-1.8-6.2-1.8-9.7s.6-6.6 1.6-9.6c1.1-3 2.6-5.5 4.6-7.7 2.1-2.2 4.4-3.9 7.2-5.2s6-1.9 9.5-1.9 6.1.5 9 1.4c2.8 1 5.5 2.7 8 5l1.3 1.3 8.7-9.4-1.2-1.2c-2.7-2.8-6.2-5.1-10.3-6.7-4-1.6-9.2-2.4-15.5-2.4s-10.1.9-14.6 2.8c-4.4 1.9-8.3 4.4-11.4 7.7-3.2 3.2-5.7 7.1-7.5 11.5q-2.7 6.6-2.7 14.4c0 5.2.8 9.5 2.5 13.9s4.1 8.3 7.2 11.6c3.2 3.3 7.1 6 11.7 7.9s9.8 2.9 15.6 2.9 4.2-.1 6.6-.4q3.3-.45 6.9-1.2c2.4-.6 4.6-1.2 6.6-2 2.1-.8 4.1-1.7 5.8-2.8l.9-.5v-35.3h-27.1v12zm56.7 28.4h10.8l27.4-69.4h-13.7l-18.9 50.4-18.2-50.4h-14.2z" style="fill:#9b2743;fill-rule:nonzero" transform="matrix(.08719 0 0 .08725 -8.363 5.724)"/><path d="M217.588 38.116c-45.432 0-82.292 36.888-82.292 82.355s36.86 82.355 82.292 82.355 82.293-36.888 82.293-82.355-36.86-82.355-82.293-82.355m0 137.616c-30.502 0-55.218-24.735-55.218-55.261s24.716-55.261 55.218-55.261 55.219 24.735 55.219 55.261-24.716 55.261-55.219 55.261" style="fill:#9b2743;fill-rule:nonzero" transform="translate(5.447 19.622)scale(.12205)"/></svg>