<svg xmlns="http://www.w3.org/2000/svg" xml:space="preserve" style="background-color:#1f4a7f;fill-rule:evenodd;clip-rule:evenodd;stroke-linejoin:round;stroke-miterlimit:2" viewBox="0 0 64 64"><path d="M48.521 15.035c1.984-.707 6.098-.992 8.508-.992 22.977 0 45.953 10.922 69.996 36.875 20.918 22.625 36.168 51.418 36.168 68.293 0 8.086-4.328 13.051-4.328 13.051s12.836-4.824 12.836-19.219c0-21.488-15.742-46.309-35.672-68.789-20.066-22.695-46.59-36.453-66.801-36.453-7.516 0-15.957 2.414-20.707 7.234m92.758 22.34c29.359 31.555 35.602 55.172 36.098 66.379 0 0 3.687-7.023 3.687-15.531 0-8.441-4.754-27.375-29.93-54.961C126.529 6.313 104.825 0 90.075 0 79.438 0 71.848 3.973 71.848 3.973s2.059-.285 5.11-.285c21.559 0 45.313 13.262 64.32 33.688" style="fill:#fff;fill-rule:nonzero" transform="translate(5.987 12.998)scale(.28733)"/><path d="M18.121 82.324c2.484-.141 8.867-2.766 10.707-4.113.57-21.914 24.328-52.973 57.09-69.922-1.984-1.207-7.375-3.266-10.711-3.903C47.34 16.089 16.633 54.452 18.121 82.324m47.09-80.277c-1.984-.566-5.246-.636-8.512-.636-31.77 0-73.328 70.773-46.805 81.34C6.847 51.689 38.402 12.755 65.21 2.048" style="fill:#fff;fill-rule:nonzero" transform="translate(5.573 18.035)scale(.28733)"/><path d="M14.918 34.422c19.004 0 44.676-22.195 73.75-22.195 26.523 0 52.762 20.066 68.363 21.488-.426-5.035-2.195-9.789-3.473-12.059C141.359 19.742 114.128.949 88.667.949c-27.941 0-61.836 23.758-77.086 23.758-8.367 0-10.211-4.254-10.211-4.254s3.477 13.969 13.547 13.969m9.571 16.312c17.023 0 38.652-17.59 64.18-17.59 25.816 0 48.082 17.59 60.637 17.59 7.16 0 7.445-9.219 7.445-9.219-14.75 0-42.621-20.355-68.082-20.355-25.316 0-54.535 20.777-69.711 20.777-7.305 0-9.5-2.621-9.5-2.621s6.098 11.418 15.031 11.418" style="fill:#fff;fill-rule:nonzero" transform="translate(6.148 36.424)scale(.28733)"/></svg>