<svg xmlns="http://www.w3.org/2000/svg" xml:space="preserve" style="fill-rule:evenodd;clip-rule:evenodd;stroke-linejoin:round;stroke-miterlimit:2;background-color:#eb0928" viewBox="0 0 64 64"><path d="M323.143 29.171h14.464v14.467h-14.464z" style="fill:#fff" transform="translate(-51.222 10.748)scale(.27656)"/><path d="M323.143 49.187c-1.373-.006-15.067-1.635-20.262 8.879l.006-7.587H279.74l-12.806 38.417-13.145-38.417h-15.531l14.562 38.557h-28.956V29.164h-16.076v73.066h49.842s.505 1.194.613 1.566c.944 3.174-.875 8.292-6.044 8.292-2.933 0-5.86.011-8.702.011v12.427c2.639 0 9.778-.026 12.817-.026 6.381 0 12.116-4.628 15.368-13.271l17.387-46.92v37.915h14.538V80.15c0-20.61 17.899-17.467 19.53-17.439v39.52h14.46V58.09h-14.456v-8.903zM354.447 35.021h1.08v-2.389h2.394v-1.077h-2.394V29.17h-1.08v2.385h-2.377v1.077h2.377zM354.447 43.637h1.08V41.25h2.394v-1.075h-2.394v-2.38h-1.08v2.38h-2.377v1.075h2.377zM371.695 35.021h1.1v-2.389h2.373v-1.077h-2.373V29.17h-1.1v2.385h-2.375v1.077h2.375zM363.088 35.021h1.065v-2.389h2.379v-1.077h-2.379V29.17h-1.065v2.385h-2.398v1.077h2.398zM363.088 43.637h1.065V41.25h2.379v-1.075h-2.379v-2.38h-1.065v2.38h-2.398v1.075h2.398zM347.324 57.896a17.15 17.15 0 0 1 5.649-5.338q3.433-2.012 7.725-2.87a44.3 44.3 0 0 1 8.628-.855q3.94 0 7.978.555 4.034.555 7.367 2.163 3.334 1.612 5.452 4.483 2.12 2.869 2.119 7.601v27.083q.001 3.526.404 6.745.404 3.225 1.414 4.835h-14.536a20 20 0 0 1-.657-2.468 22 22 0 0 1-.353-2.567q-3.433 3.526-8.076 4.932a32.5 32.5 0 0 1-9.487 1.411c-2.493 0-4.812-.302-6.968-.906q-3.231-.906-5.651-2.821-2.422-1.912-3.787-4.832-1.36-2.92-1.361-6.948 0-4.429 1.564-7.299c1.044-1.912 2.387-3.438 4.038-4.581q2.471-1.712 5.653-2.568a61 61 0 0 1 6.41-1.359q3.228-.502 6.358-.804t5.555-.906q2.418-.604 3.835-1.763 1.412-1.156 1.31-3.374 0-2.315-.756-3.673-.757-1.36-2.02-2.116-1.259-.754-2.926-1.006a24 24 0 0 0-3.584-.251q-4.241 0-6.661 1.812-2.426 1.811-2.829 6.04h-14.333q.301-5.033 2.526-8.355m28.313 20.186c-.907.304-1.884.553-2.928.755a44 44 0 0 1-3.278.503 65 65 0 0 0-3.433.503 27 27 0 0 0-3.182.807q-1.565.506-2.726 1.359a6.5 6.5 0 0 0-1.868 2.166c-.469.874-.704 1.978-.704 3.322q0 1.914.704 3.222a5.43 5.43 0 0 0 1.919 2.063q1.213.755 2.829 1.057c1.072.204 2.185.302 3.33.302q4.24 0 6.561-1.409t3.432-3.374q1.111-1.962 1.363-3.977.25-2.014.251-3.222v-5.336q-.904.809-2.27 1.259" style="fill:#fff;fill-rule:nonzero" transform="translate(-51.222 10.748)scale(.27656)"/></svg>