<svg xmlns="http://www.w3.org/2000/svg" xml:space="preserve" style="fill-rule:evenodd;clip-rule:evenodd;stroke-linejoin:round;stroke-miterlimit:2;background-color:#e60075" viewBox="0 0 64 64"><path d="M101.753 49.155c7.296 0 12.533 5.377 12.533 12.022v.067c0 6.646-5.304 12.09-12.6 12.09-7.297 0-12.533-5.378-12.533-12.023v-.067c0-6.646 5.303-12.09 12.6-12.09zm-83.438 0c7.297 0 12.532 5.377 12.532 12.022v.067c0 6.646-5.303 12.09-12.6 12.09-7.296-.001-12.533-5.378-12.533-12.023v-.067c0-6.646 5.304-12.09 12.6-12.09zm58.913 0c3.581 0 5.946.801 8.074 2.27.506.368 1.08 1.07 1.08 2.071 0 1.403-1.148 2.538-2.566 2.538-.744 0-1.216-.267-1.588-.534-1.418-1.002-2.939-1.603-5.168-1.603-3.783 0-6.79 3.306-6.79 7.28v.067c0 4.274 2.973 7.414 7.162 7.414 1.891 0 3.58-.467 4.898-1.403v-3.339h-3.513c-1.25 0-2.264-.969-2.264-2.205 0-1.235 1.014-2.237 2.264-2.237h5.945c1.453 0 2.602 1.136 2.602 2.571v5.678c0 1.502-.575 2.538-1.824 3.272-1.926 1.17-4.73 2.338-8.277 2.338-7.365 0-12.433-5.11-12.433-12.022v-.067c0-6.646 5.237-12.09 12.398-12.09zm-26.282.2c1.453 0 2.601 1.136 2.601 2.572v10.82c0 7.08-4.02 10.553-10.37 10.553S32.94 69.793 32.94 62.913V51.927c0-1.436 1.149-2.572 2.601-2.572 1.453 0 2.602 1.136 2.602 2.572V62.78c0 3.807 1.925 5.778 5.1 5.778 3.176 0 5.101-1.904 5.101-5.61V51.926c0-1.436 1.149-2.572 2.601-2.572zm8.581 0c1.453 0 2.601 1.136 2.601 2.572V70.56c0 1.437-1.148 2.572-2.6 2.572s-2.602-1.136-2.602-2.572V51.927c0-1.436 1.149-2.572 2.601-2.572m42.158 4.542c-4.189 0-7.094 3.273-7.094 7.28v.067c0 4.007 2.973 7.347 7.162 7.347s7.094-3.273 7.094-7.28v-.067c0-4.007-2.973-7.347-7.162-7.347m-83.438 0c-4.188 0-7.094 3.273-7.094 7.28v.067c0 4.007 2.973 7.347 7.162 7.347 4.19 0 7.094-3.273 7.094-7.28v-.067c0-4.007-2.973-7.347-7.162-7.347M59.526 40a3.144 3.144 0 1 1-.003 6.291A3.144 3.144 0 0 1 59.526 40" style="fill:#fff" transform="translate(2.79 4.412)scale(.48684)"/></svg>