<svg xmlns="http://www.w3.org/2000/svg" xml:space="preserve" style="background-color:#fff;fill-rule:evenodd;clip-rule:evenodd;stroke-linejoin:round;stroke-miterlimit:2" viewBox="0 0 64 64"><path d="M48 39c0 13.259-10.749 24-24 24C10.741 63 0 52.259 0 39s10.749-24 24-24c13.259 0 24 10.741 24 24" style="fill:#009cdd;fill-rule:nonzero" transform="translate(6 -10.274)scale(1.08333)"/><path d="M27.711 25.112H25.41L20 34.407l2.286 1.338 4.275-7.335 8.679 14.887 2.293-1.324z" style="fill:#fff;fill-rule:nonzero" transform="translate(6 -10.274)scale(1.08333)"/><path d="M14.72 46.031h24.203v2.647H14.72z" style="fill:#fff" transform="translate(6 -10.274)scale(1.08333)"/><path d="M27.349 36.389a7.43 7.43 0 0 1-5.693 2.654 7.4 7.4 0 0 1-5.41-2.336h-2.358l-.094.166L7.682 47.34l2.285 1.338 4.442-7.602h-.015l.948-1.62a10.03 10.03 0 0 0 6.322 2.235c3.059 0 5.801-1.367 7.653-3.523z" style="fill:#fff;fill-rule:nonzero" transform="translate(6 -10.274)scale(1.08333)"/></svg>