<svg xmlns="http://www.w3.org/2000/svg" xml:space="preserve" style="background-color:#fff;fill-rule:evenodd;clip-rule:evenodd" viewBox="0 0 64 64"><path d="M118.51-511.134c-.316-.511 6.658-26.375 15.497-57.476l16.071-56.546-4.107-6.049c-13.276-19.549-21.042-45.973-21.042-71.593 0-56.445 34.398-112.845 101.5-166.42 6.6-5.27 22.575-16.743 35.5-25.497 139.096-94.205 237.543-173.017 262.295-209.979 2.154-3.216 2.751-3.616 3.291-2.207.363.946.136 13.289-.505 27.427-8.61 189.931-63.277 336.294-152.081 407.179-24.431 19.501-50.093 33.287-78.997 42.44-30.394 9.624-67.156 13.811-101.91 11.606-11.275-.715-17.749-.761-18.379-.132-.535.535-6.748 21.015-13.807 45.512-7.059 24.496-13.707 46.241-14.774 48.321-3.153 6.149-10.269 11.231-17.633 12.592-8.15 1.507-10.391 1.675-10.919.822Zm180.251-179.595c9.192-1.247 19.584-9.198 22.131-16.933.562-1.707 7.767-26.504 16.011-55.104 9.663-33.526 16.217-54.487 18.448-59 7.719-15.619 21.701-27.846 37.863-33.112 7.515-2.449 10.045-2.728 29.715-3.283 20.962-.59 21.643-.676 27.229-3.419 6.55-3.216 11.056-8.141 13.196-14.421 2.692-7.9 9.785-7.265-81.217-7.265-80.56 0-81.63.025-85.871 2.078-7.739 3.747-17.221 16.92-15.598 21.672.33.964 7.705 1.25 32.344 1.25 17.554 0 31.917.222 31.917.494 0 .273-2.27 3.31-5.044 6.75-6.225 7.721-13.59 22.713-18.302 37.256-4.29 13.242-34.654 120.173-34.654 122.039 0 1.475 2.49 2.328 5.5 1.882 1.1-.162 3.949-.56 6.332-.884Z" style="fill:#49ac42;fill-rule:nonzero;stroke:#49ac42;stroke-width:1px" transform="translate(3.974 102.186)scale(.08674)"/></svg>