<svg xmlns="http://www.w3.org/2000/svg" xml:space="preserve" style="background-color:#fff;fill-rule:evenodd;clip-rule:evenodd;stroke-linejoin:round;stroke-miterlimit:2" viewBox="0 0 64 64"><path d="M421.656 111.793c13.802-6.918 25.409-1.429 30.072 2.395C455.634 99.157 477.207 10.57 479.779 0c-14.819 5.369-33.312 9.045-49.155 11.463-.912 10.245-6.737 75.705-8.968 100.33" style="fill:#27b5e9;fill-rule:nonzero" transform="translate(6.11 23.205)scale(.10792)"/><path d="M358.732 43.621v.012c.002 6.78 0 60.686 0 60.686 0 12.119-10.628 21.368-22.718 21.368s-22.709-9.374-22.709-21.368v-47.42c0-17.149-4.473-41.441-42.026-41.441h-84.597c-40.763 0-73.807 32.96-73.807 73.722 0 13.297 3.565 25.74 9.719 36.515H61.338l65.45-110.137H0c0 15.505 5.485 36.98 27.806 36.98H63.44L24.473 119.1c-13.391 22.877-13.713 43.885-13.713 43.885h175.923c40.762 0 73.806-33.044 73.806-73.806 0-13.35-3.596-25.837-9.795-36.642h18.935c4.46 0 6.312 2.244 6.312 6.388v44.643c0 32.431 21.3 59.411 60.074 59.411 38.735 0 60.092-27.01 60.092-59.411v-88.11c-30.315 0-37.375 16.459-37.375 28.163m-172.049 82.211c-20.242 0-36.651-16.41-36.651-36.651s16.41-36.651 36.651-36.651 36.651 16.409 36.651 36.651c0 20.241-16.41 36.651-36.651 36.651" style="fill:url(#a);fill-rule:nonzero" transform="translate(6.11 23.205)scale(.10792)"/><ellipse cx="434.085" cy="141.022" rx="22.208" ry="21.965" style="fill:#f18700" transform="translate(6.11 23.205)scale(.10792)"/><defs><linearGradient id="a" x1="0" x2="1" y1="0" y2="0" gradientTransform="rotate(-3.5 1609.292 -647.54)scale(384.6782)" gradientUnits="userSpaceOnUse"><stop offset="0" style="stop-color:#0069ae;stop-opacity:1"/><stop offset=".19" style="stop-color:#0084c5;stop-opacity:1"/><stop offset=".43" style="stop-color:#00a7df;stop-opacity:1"/><stop offset=".55" style="stop-color:#27b5e9;stop-opacity:1"/><stop offset=".64" style="stop-color:#00aae1;stop-opacity:1"/><stop offset=".8" style="stop-color:#008ecc;stop-opacity:1"/><stop offset="1" style="stop-color:#0069ae;stop-opacity:1"/></linearGradient></defs></svg>