<svg xmlns="http://www.w3.org/2000/svg" xml:space="preserve" style="background-color:#fff;fill-rule:evenodd;clip-rule:evenodd;stroke-linejoin:round;stroke-miterlimit:2" viewBox="0 0 64 64"><path d="M158.6.2c.7 0 4.1.1 5.6.2 8.8.8 24.2 4.6 26.6 14.2 1.4 6-7 7.3-10.2 8.3 0 0-1.9.5-3.2.5s-.2-.3 0-.5 4-2.8 1.7-2.2c-1.9.3-10.3-.7-15.3-1.1-1.5-.1-2.5-.2-2.2-.3.1-.1.6 0 1.1 0h1.1c5.3-.2 12.9-1.3 16.5-.9 1.9.2 1.4 1.9.6 2.9-.1.1-.4.5-.4.6s.1 0 .1 0c3.7-1.3 7.4-2.9 7.3-6.6-.1-.5.4-11.9-27.1-14.6-1.1-.1-1.7-.1-2.2-.1-.6 0-2.4-.2-.1-.3.1 0 .1 0 .1-.1m.8 6.4h4.8c2.8.1 4.4.9 4.4 1 .1.5-1.8 1.8-3.8.8-.6-.4-3.4-1.5-7.4-1.8 0 0 .8-.1 2 0m31.5 8q0-.1 0 0m0 0" style="fill:#ed1c24" transform="translate(-235.477 13.877)scale(1.53582)"/></svg>