<svg xmlns="http://www.w3.org/2000/svg" xml:space="preserve" style="background-color:#fff;fill-rule:evenodd;clip-rule:evenodd;stroke-linejoin:round;stroke-miterlimit:2" viewBox="0 0 64 64"><path d="M149.938 942.429c-59.89 12.565-55.562 44.357-114.246 74.552H66.69c44.517-34.227 33.438-57.493 87.797-72.527 3.425-1.128 18.844-3.292 19.558-3.451-.151-.64-11.485-1.222-24.107 1.426m15.859 4.602c-34.694 12.209-18.654 37.266-39.432 69.95l29.405-.066c6.218-28.954-19.653-57.322 15.231-68.929 11.923-3.967 14.969-3.983 17.306-4.676.703-.855-15.719 1.331-22.51 3.721" style="fill:#5c5a59" transform="translate(-5.282 -281.404)scale(.33323)"/><path d="M35.591 967.326c28.813-28.309 61.357-30.578 100.148-25.104-11.881 2.501-29.077 8.605-41.077 12.955l-16.9 6.912c-2.632.894-20.441 5.284-30.937 10.158-7.345 3.41-12.359-2.028-11.234-4.921" style="fill:#00a34f" transform="translate(-5.282 -281.404)scale(.33323)"/><path d="M136.334 907.265c4.133-12.078 21.088-21.918 33.368-23.592 8.332-1.135 6.988 8.603 2.229 11.427-12.482 7.407-33.41 24.711-35.597 12.165m-22.131-9.106c.874-6.539 10.45-23.946 9.469-9.06-.259 3.94.365 7.938-3.285 9.46-.912.381-3.092-.2-3.562.209-.314.273-1.953-.323-2.624-.594zm-21.104 4.503c-1.286-7.398-12.223-25.122-8.459-32.839 7.819-16.028 13.02 4.851 15.133 17.006 2.389 13.741-5.382 7.45-6.674 15.833m-14.563 11.655c-2.391-4.112-13.981-16.734-2.937-16.019 2.209.143 12.242 16.182 2.937 16.019m-5.11 13.376c-7.461.971-20.78 4.916-27.766 2.728-18.709-6.417-7.989-13.122 6.841-12.396 6.26.071 20.428 9.29 20.925 9.668m5.05 7.725c1.731-26.269 19.978-33.882 42.948-32.395 8.393.544 17.515 16.963 13.932 24.206-4.611 9.375-17.102-16.496-30.556-14.29-10.304 1.532-13.831 28.125-26.324 22.479" style="fill:#f5b900" transform="translate(-5.282 -281.404)scale(.33323)"/></svg>