<svg xmlns="http://www.w3.org/2000/svg" xml:space="preserve" style="background-color:#fff;fill-rule:evenodd;clip-rule:evenodd;stroke-linejoin:round;stroke-miterlimit:2" viewBox="0 0 64 64"><path d="M144.053 52.187a96 96 0 0 0-8.492-17.226c-3.238-5.237-4.953-5.961-9.561-6.368-7.007-.618-23.678-.179-35.59 2.5a125 125 0 0 0-33.745 13.595c-.951.56-2.626 2.131-2.035 1.834a115 115 0 0 1 6.844-3.18c14.2-6.031 36.236-12.136 52.494-9.1 18.547 3.458 27.576 19.21 30.785 26.387l.683.1a21.1 21.1 0 0 0-1.383-8.542m-20.327-5.18a7.19 7.19 0 0 0-5.809-3.681c-8.31-.251-16.627-.01-24.908.722a249 249 0 0 0-61.387 14.594c-1.645.63-3.836 2.192-3.144 2.08a372 372 0 0 1 62.905-4.183c12.715.157 24.963.851 36.415 1.989a8.1 8.1 0 0 0-.332-2.858 44.8 44.8 0 0 0-3.74-8.663" style="fill:#1f3f75;fill-rule:nonzero" transform="translate(-7.412 11.802)scale(.45351)"/></svg>