<svg xmlns="http://www.w3.org/2000/svg" xml:space="preserve" style="background-color:#fff;fill-rule:evenodd;clip-rule:evenodd;stroke-linejoin:round;stroke-miterlimit:2" viewBox="0 0 64 64"><path d="M76 371.5h49.8L100.9 346zm0-101.9v50.9l24.9-25.4zm0 101.9v-51H26.2z" style="fill:#c6000b;fill-rule:nonzero" transform="translate(-.504 -50.791)scale(.25828)"/><path d="m100.9 295.1 24.9 25.4v-50.9z" style="fill:#009fe8;fill-rule:nonzero" transform="translate(-.504 -50.791)scale(.25828)"/><path d="m76 269.6 24.9 25.5 24.9-25.5z" style="fill:#231815;fill-rule:nonzero" transform="translate(-.504 -50.791)scale(.25828)"/><path d="M175.7 320.5v51h49.8z" style="fill:#0071b2;fill-rule:nonzero" transform="translate(-.504 -50.791)scale(.25828)"/><path d="M175.7 371.5v-51h-49.9z" style="fill:#009fe8;fill-rule:nonzero" transform="translate(-.504 -50.791)scale(.25828)"/><path d="M225.5 269.6h-49.8v50.9z" style="fill:#dbdcdc;fill-rule:nonzero" transform="translate(-.504 -50.791)scale(.25828)"/><path d="M76 320.5v-50.9l-49.8 50.9z" style="fill:#e50012;fill-rule:nonzero" transform="translate(-.504 -50.791)scale(.25828)"/><path d="m100.9 346 24.9-25.5H76z" style="fill:#dbdcdc;fill-rule:nonzero" transform="translate(-.504 -50.791)scale(.25828)"/><path d="M100.9 346 76 320.5v51z" style="fill:#a30000;fill-rule:nonzero" transform="translate(-.504 -50.791)scale(.25828)"/></svg>