<svg xmlns="http://www.w3.org/2000/svg" xml:space="preserve" style="background-color:#fff;fill-rule:evenodd;clip-rule:evenodd;stroke-linejoin:round;stroke-miterlimit:2" viewBox="0 0 64 64"><path d="M117.046 230.96c-.047-7.964-.08-14.509-.074-14.546s1.184.755 2.617 1.758c3.919 2.742 3.754 2.21 3.87 12.468l.099 8.72h5.67c7.167 0 7.092-.038 7.092 3.538v2.542h-19.187zm-47.393 1.11c1.899-.991 2.751-2.323 2.779-4.342.049-3.567-2.373-5.317-7.509-5.425l-3.003-.063-.176 10.793 3.288-.134c2.57-.104 3.579-.285 4.621-.829m-14.293-1.19v-14.56h5.876c3.232 0 6.642.145 7.577.322 4.08.774 7.296 3.141 8.803 6.479 1.243 2.753 1.269 6.323.063 8.956-1.996 4.36-6.186 6.599-12.604 6.736l-3.155.067-.16 2.973c-.116 2.162-.291 3.055-.64 3.275-.264.166-1.668.304-3.12.307l-2.64.005zm45.608 8.45c7.024-2.629 7.446-13.326.65-16.49-3.183-1.483-7.179-.899-9.839 1.436-2.588 2.272-3.52 7.469-1.903 10.608 2.281 4.428 6.558 6.142 11.092 4.446m-6.213 6.404c-4.199-.825-8.528-4.189-10.441-8.115-3.769-7.732-.656-16.558 7.156-20.289 2.399-1.146 2.53-1.17 6.29-1.17 3.773 0 3.883.021 6.339 1.193 7.211 3.444 10.579 11.41 7.882 18.647-2.625 7.045-9.922 11.168-17.226 9.734" style="fill:#e60001;fill-rule:nonzero" transform="translate(-7.823 -6.034)scale(.2497)"/><path d="M222.72 233.84c.001-13.71-.206-12.846 3.76-15.65l2.64-1.867v29.117h-6.4zm-54.08-2.96v-14.56h22.775l-1.204 1.68c-2.997 4.184-3.081 4.221-9.81 4.231l-5.359.009-.002 5.6h12.167l-1.615 2.222c-2.314 3.18-3.229 3.66-7.271 3.81l-3.28.121v5.367h6.51c7.826 0 7.57-.122 7.57 3.626v2.454h-20.48zm-14.845 1.288c.905-.269 1.993-.892 2.523-1.446.787-.822.95-1.284 1.045-2.968.215-3.826-1.699-5.318-7.184-5.598l-3.299-.168v10.652h2.662c1.464 0 3.378-.213 4.253-.472M140.48 245.44v-29.12h5.876c3.232 0 6.642.145 7.577.322 3.784.718 7.01 2.938 8.572 5.898.761 1.443.855 1.97.855 4.82 0 2.5-.128 3.436-.587 4.277-.856 1.57-2.963 3.752-4.063 4.207l-.953.395 1.096 1.213c.603.668 2.119 2.738 3.369 4.601l2.272 3.387h-3.063c-3.445 0-4.655-.419-5.406-1.872-.919-1.777-3.145-4.274-4.205-4.717-.594-.248-1.948-.451-3.01-.451h-1.93v2.99c0 3.863-.175 4.05-3.785 4.05zm112.12-6.406c4.907-2.477 6.225-9.753 2.545-14.052-1.674-1.955-3.839-2.895-6.682-2.899-5.124-.007-8.586 3.541-8.586 8.797 0 3.806 1.81 6.788 5.083 8.373 2.138 1.035 5.338.943 7.64-.219m-6.68 6.713c-5.866-1.202-10.271-5.169-11.85-10.671-.396-1.378-.507-2.72-.416-4.996.113-2.813.239-3.342 1.31-5.508 3.23-6.536 10.398-9.891 17.294-8.095 2.778.724 4.958 1.967 6.944 3.96 7.285 7.312 5.275 19.315-4.002 23.897-3.252 1.607-6.17 2.051-9.28 1.413m-41.76.139c-5.05-.933-9.199-4.181-11.433-8.951-.822-1.756-.887-2.191-.887-5.912 0-3.985.009-4.034 1.181-6.4 4.452-8.987 16.118-11.373 23.619-4.831l1.44 1.256-1.44 1.303c-1.965 1.778-2.99 1.937-5.156.798-1.541-.81-2.047-.906-4.764-.907-3.396-.002-4.308.327-6.229 2.249-2.153 2.152-3.021 5.154-2.425 8.381.527 2.849 2.081 4.925 4.625 6.178 1.868.919 2.303 1.01 4.255.884 1.196-.077 2.714-.374 3.374-.66l1.2-.521v-4.513h-1.616c-1.746 0-3.307-.626-3.625-1.454-.11-.285-.199-1.227-.199-2.092v-1.574h11.84v6.024c0 5.842-.022 6.044-.72 6.672-1.385 1.247-3.616 2.576-5.489 3.271-1.844.684-5.868 1.11-7.551.799" style="fill:#56636b;fill-rule:nonzero" transform="translate(-7.823 -6.034)scale(.2497)"/><path d="M156.305 195.653a3014 3014 0 0 1-4.785-6.547c-1.593-2.191-16.511-22.434-24.161-32.786-4.746-6.423-6.087-8.511-8.319-12.959-4.875-9.715-6.12-19.837-3.464-28.161 3.069-9.617 10.92-16.457 21.11-18.39 3.272-.62 9.853-.634 13.302-.027 2.947.519 6.452 1.508 8.589 2.424.782.336 1.423.507 1.423.381 0-.907-1.506-5.143-2.703-7.603-3.262-6.706-8.676-11.622-15.857-14.399-5.409-2.092-4.934-2.066-37.555-2.068-17.168-.001-30.263-.129-31.348-.307-2.517-.412-4.984-1.593-6.771-3.24-1.335-1.23-10.086-12.708-10.086-13.228 0-.118 18.468-.162 41.04-.099l41.04.115 3.2.722c9.625 2.17 16.812 6.063 23.36 12.655 6.469 6.512 10.184 13.404 12.008 22.273.597 2.903.669 4.079.537 8.791-.169 6.022-.899 9.914-2.761 14.72-1.465 3.781-1.246 3.662-3.614 1.973-4.679-3.34-11.599-6.136-17.53-7.084-10.419-1.666-18.465 1.107-21.329 7.351-2.386 5.202-.079 13.105 6.536 22.4 2.59 3.64 17.18 23.478 23.063 31.36 1.839 2.464 3.785 5.416 4.323 6.56.884 1.877.981 2.392.993 5.28.018 4.099-.635 5.728-4.265 10.645-1.46 1.977-2.685 3.595-2.722 3.595-.038 0-1.502-1.956-3.254-4.347m24.58-63.795c3.737-3.973 6.929-8.48 8.908-12.578l.735-1.52h29.676l-.728 1.04c-.4.572-2.404 3.272-4.451 6-7.18 9.564-7.238 9.586-24.898 9.594l-11.633.006zm13.886-29.698c.342-3.559.26-8.921-.177-11.581-.186-1.134-.293-2.107-.237-2.162.055-.056 10.758-.064 23.783-.019l23.683.082-4.268 5.743c-2.347 3.158-4.79 6.277-5.427 6.93-1.553 1.59-4.622 3.079-7.168 3.477-1.176.184-8.248.326-16.269.328l-14.188.003zm-6.131-29.543c-2.054-3.72-5.085-7.763-8.319-11.097l-2.561-2.64h42.8c23.54 0 42.791.108 42.781.24-.011.132-2.135 3.048-4.72 6.48-3.715 4.931-5.07 6.487-6.461 7.417-3.724 2.49-1.571 2.334-33.44 2.421l-28.48.077z" style="fill:#e50102;fill-rule:nonzero" transform="translate(-7.823 -6.034)scale(.2497)"/></svg>