<svg xmlns="http://www.w3.org/2000/svg" xml:space="preserve" style="background-color:#fff;fill-rule:evenodd;clip-rule:evenodd;stroke-linejoin:round;stroke-miterlimit:2" viewBox="0 0 64 64"><path d="M.661 2.724h5.145l.659-.659L4.648.248H3.063L4.26 1.444H1.94z" style="fill:#ef3526" transform="translate(3.717 3.716)scale(8.01741)"/><path d="M6.395 4.332H1.25l-.659.659 1.817 1.817h1.584L2.796 5.612h2.319zM1.539 2.978l-.2.666-.221-.666H.716l.395 1.075h.436l.221-.631.222.631h.436l.395-1.075h-.402l-.221.666-.2-.666zm1.58 0v1.075h.464l-.001-.343.187-.142.476.485h.486l-.69-.692.512-.389-.504.006-.466.352v-.352z" style="fill:#004b85" transform="translate(3.717 3.716)scale(8.01741)"/><path d="M4.979 2.974h.623q.211 0 .322.021a.65.65 0 0 1 .254.099.5.5 0 0 1 .162.175.53.53 0 0 1 .055.255.47.47 0 0 1-.233.42.7.7 0 0 1-.239.087 1.6 1.6 0 0 1-.302.022h-.642zm.392.253v.571h.192q.135 0 .196-.008a.5.5 0 0 0 .13-.036.2.2 0 0 0 .084-.084.3.3 0 0 0 .033-.158.3.3 0 0 0-.033-.153.2.2 0 0 0-.091-.083.4.4 0 0 0-.15-.041 3 3 0 0 0-.265-.008z" style="fill:#004b85;fill-rule:nonzero" transform="translate(3.717 3.716)scale(8.01741)"/></svg>