<svg xmlns="http://www.w3.org/2000/svg" xml:space="preserve" style="background-color:#fff;fill-rule:evenodd;clip-rule:evenodd;stroke-linejoin:round;stroke-miterlimit:2" viewBox="0 0 64 64"><path d="M578 254.9h.2l9.7-54.9h9.5l-12 68.2h-11.9l-25-56h-.2l-9.8 56h-9.3l12-68.2h12z" style="fill:#353649;fill-rule:nonzero" transform="translate(-63.014 16.742)scale(.1318)"/><path d="M637.7 270q-1.7 0-3.3-.1a26 26 0 0 1-3.3-.4 48 48 0 0 1-3.3-.7 42 42 0 0 1-3.1-.9 33 33 0 0 1-2.7-1.1q-1.3-.6-2.6-1.4-1.2-.7-2.4-1.6a26 26 0 0 1-2.2-1.8l-2-2q-.9-1.1-1.7-2.3t-1.5-2.4a22.5 22.5 0 0 1-1.2-2.6q-.6-1.5-1-3t-.7-3-.5-3.1q-.1-1.5-.1-3.1 0-4.1.7-8.1a39.6 39.6 0 0 1 2.2-7.9q1.5-3.8 3.6-7.3 2.2-3.5 4.9-6.5 1.3-1.5 2.8-2.8t3.1-2.4q1.5-1.2 3.2-2.1a35 35 0 0 1 3.5-1.8q3.3-1.5 6.9-2.3 3.6-.9 7.2-1 3.7-.2 7.3.4 3.6.5 7.1 1.7a33 33 0 0 1 2.7 1.1q1.3.6 2.5 1.4 1.3.7 2.4 1.6 1.2.9 2.3 1.9 1 1 1.9 2 1 1.1 1.8 2.3t1.5 2.4l1.2 2.6q.5 1.4 1 2.9.4 1.5.7 3.1.3 1.5.4 3.1.2 1.5.2 3.1 0 2.1-.2 4.2t-.5 4.2q-.4 2-1 4.1a45 45 0 0 1-1.2 4q-.7 1.8-1.6 3.6a29 29 0 0 1-1.9 3.4 36 36 0 0 1-2.2 3.3 21.3 21.3 0 0 1-2.5 3 36 36 0 0 1-2.7 2.8q-1.5 1.3-3.1 2.5a56 56 0 0 1-3.3 2.1 24 24 0 0 1-3.5 1.7q-1.8.8-3.8 1.4a87 87 0 0 1-4 .9 62 62 0 0 1-4 .7q-2 .2-4 .2m29.6-41.5q0-1-.1-2.1 0-1.1-.2-2.2t-.4-2.1q-.3-1.1-.6-2.1t-.8-1.9q-.4-.9-1-1.8-.5-.9-1.1-1.7l-1.4-1.6a31 31 0 0 0-1.4-1.5q-.8-.6-1.7-1.2a11.7 11.7 0 0 0-1.8-1.1q-.9-.5-1.9-.8a27.4 27.4 0 0 0-5.2-1.5 30.7 30.7 0 0 0-5.5-.3 28.5 28.5 0 0 0-5.4.9 24.7 24.7 0 0 0-5.2 2q-1.3.7-2.5 1.6-1.3.8-2.5 1.8-1.1.9-2.2 2-1.1 1-2.1 2.2-.9 1.2-1.7 2.4a27 27 0 0 0-1.6 2.6q-.8 1.4-1.4 2.8t-1.1 2.8q-.5 1.5-.9 3t-.7 3.1q-.3 1.5-.4 3.1-.1 1.5-.2 3.1 0 1.1.1 2.2t.3 2.1q.2 1.1.5 2.2.3 1 .7 2 .3 1 .8 1.9.4 1 1 1.8.5.9 1.1 1.7.7.9 1.4 1.6.7.8 1.5 1.5t1.6 1.3q.9.6 1.8 1.1l1.8 1q1.2.4 2.3.7l2.4.6q1.2.2 2.4.3t2.4.1a26 26 0 0 0 3.2-.2q1.5-.2 3.1-.5 1.5-.3 3-.8 1.5-.6 2.9-1.2 1.4-.7 2.6-1.5 1.3-.8 2.5-1.7t2.2-2q1.1-1 2-2.2 1-1.2 1.8-2.4a27 27 0 0 0 1.6-2.6q.7-1.4 1.3-2.8.7-1.4 1.1-2.8.4-1.6.6-3.2a53 53 0 0 0 .8-6.4l.2-3.2zM695.2 268.2h-9.3l12-68.2h19.4q1.1 0 2.3.1 1.1.1 2.3.2l2.2.4q1.2.2 2.3.5a12.3 12.3 0 0 1 1.9.6q.9.3 1.8.7t1.8.9q.8.5 1.7 1.1.7.5 1.3 1.1.7.5 1.2 1.2.6.7 1.1 1.4.4.7.8 1.5l.8 1.8q.3.9.5 1.8t.2 1.9q.1.9.1 1.9t-.1 2a21 21 0 0 1-.3 2q-.2.9-.5 1.9-.3.9-.7 1.8a9 9 0 0 1-.8 1.6 11 11 0 0 1-.9 1.5q-.5.8-1 1.4l-1.2 1.4q-.6.6-1.3 1.2t-1.5 1.1a11 11 0 0 1-1.5.9q-.8.5-1.7.8-.9.4-1.8.7t-1.9.6q-.9.3-1.9.5t-1.9.4l14.5 31.3h-10.6l-13.6-30.4h-10.5zm6.8-38.3h10.5q.8 0 1.7-.1.8 0 1.7-.1.8-.1 1.7-.2.8-.1 1.7-.2a11 11 0 0 1 1.4-.3q.7-.2 1.5-.5.7-.2 1.3-.5.7-.3 1.4-.7a10.8 10.8 0 0 0 2.2-1.7 10.8 10.8 0 0 0 1.7-2.2q.7-1.2 1-2.6a8 8 0 0 0 .3-2.8 8.1 8.1 0 0 0-.1-2.2 9.4 9.4 0 0 0-.7-2.2q-.6-1-1.3-1.8a7.7 7.7 0 0 0-1.8-1.5 20 20 0 0 0-2.4-1.1q-1.2-.5-2.5-.8t-2.7-.4a17 17 0 0 0-2.6 0h-10.1zM759.1 200h22.1q1.5 0 2.9.1a39 39 0 0 1 5.7.8q1.5.3 2.8.6 1.4.4 2.8.9 1.3.5 2.6 1.2 1.3.6 2.5 1.3a22 22 0 0 1 2.4 1.7q1.2.8 2.2 1.8 1.1 1.1 2 2.2t1.7 2.3a53 53 0 0 1 1.5 2.6q.7 1.5 1.3 3.1.5 1.6.8 3.2.4 1.6.5 3.3a19.3 19.3 0 0 1 .1 3.4q0 2.1-.2 4.1-.2 2.1-.6 4.2a87 87 0 0 1-.9 4 39 39 0 0 1-1.4 3.9q-1.5 3.6-3.7 6.8a38.4 38.4 0 0 1-5 5.9 47.4 47.4 0 0 1-6.2 4.7 33.3 33.3 0 0 1-7 3.2 31 31 0 0 1-4 1.3q-2 .5-4.1.9t-4.2.6q-2.1.1-4.2.1h-24.2zm-1.3 59.9h14a58 58 0 0 0 3.4-.1q1.8-.1 3.5-.4a65 65 0 0 0 3.4-.9q1.6-.5 3.2-1.1 1.4-.6 2.7-1.3t2.5-1.6q1.2-.8 2.3-1.8 1.2-1 2.2-2.1 1-1 1.9-2.1.9-1.2 1.6-2.4.8-1.2 1.4-2.5a33 33 0 0 0 1.1-2.7q.5-1.3.8-2.7.4-1.4.7-2.8.2-1.4.3-2.8.1-1.5.1-2.9v-2.1a20 20 0 0 0-.3-2.1q-.2-1.1-.4-2.1l-.6-2q-.4-1-.9-1.9t-1-1.7q-.6-.9-1.2-1.7a31 31 0 0 0-1.4-1.5 18 18 0 0 0-1.7-1.5q-.8-.7-1.8-1.3t-2-1q-1-.5-2.1-.8-1.3-.5-2.6-.8t-2.7-.6a42 42 0 0 0-2.7-.3q-1.4-.1-2.8-.1h-11.8z" style="fill:#353649" transform="translate(-63.014 16.742)scale(.1318)"/><path d="M831.2 268.2h-9.5l12-68.2h9.5zM909.3 257.4q-.5.7-1.1 1.3-.5.6-1.1 1.2-.6.7-1.2 1.2-.6.6-1.3 1.1-.7.6-1.4 1.1-.7.6-1.5 1.1-.7.5-1.5 1t-1.6.9-1.7.8-1.9.8l-1.8.6q-1 .3-1.9.5l-2.2.4q-1.1.2-2.3.3-1.1.2-2.2.2-1.1.1-2.2.1-1.6 0-3.2-.1t-3.1-.4a16 16 0 0 1-3.1-.7 32 32 0 0 1-3-.9 33 33 0 0 1-2.7-1.1q-1.3-.6-2.5-1.4l-2.4-1.6a29 29 0 0 1-2.1-1.9 20 20 0 0 1-2-2.1 23 23 0 0 1-1.6-2.2 31 31 0 0 1-1.5-2.5q-.6-1.2-1.1-2.5-.6-1.5-1-2.9-.5-1.5-.7-3-.3-1.5-.4-3.1a45 45 0 0 1 .1-7.2q.2-2.1.6-4.2t1-4.1 1.3-4q.8-1.9 1.7-3.7t2-3.4a38 38 0 0 1 2.4-3.3 23 23 0 0 1 2.7-3 36 36 0 0 1 2.8-2.7q1.5-1.3 3.1-2.5a56 56 0 0 1 3.3-2.1 35 35 0 0 1 3.5-1.8q1.9-.8 3.9-1.4 1.9-.6 3.9-1t4.1-.6q2-.3 4-.3 1 0 1.9.1.9 0 1.8.1 1 .1 1.9.3.9.1 1.8.3t1.7.4 1.7.5q.8.2 1.6.5.8.4 1.6.7l1.4.8q.7.3 1.4.7.7.5 1.3.9.7.5 1.3.9.6.5 1.1 1l1 1q.5.5 1 1.1l.8 1.2-7.8 5.6q-.2-.4-.5-.7a5 5 0 0 0-.5-.8q-.3-.3-.5-.7-.3-.3-.6-.7a7.5 7.5 0 0 0-.8-.7 7.5 7.5 0 0 0-.8-.7 7.5 7.5 0 0 0-.8-.7q-.4-.3-.9-.6t-1.1-.6a5.5 5.5 0 0 0-1.1-.5 5.5 5.5 0 0 0-1.1-.5q-.6-.2-1.2-.3-.6-.2-1.3-.4a11 11 0 0 0-1.4-.3 10 10 0 0 0-1.4-.1h-1.5q-1.6 0-3.1.1-1.6.2-3.1.6-1.6.4-3.1.9-1.5.6-2.9 1.3-1.4.6-2.7 1.4t-2.5 1.8q-1.2.9-2.3 1.9-1.2 1.1-2.2 2.3a29.2 29.2 0 0 0-3.5 5 36 36 0 0 0-4.4 11.6 49 49 0 0 0-.6 6.2q0 1.1.1 2.2l.2 2.2.4 2.2q.3 1 .6 2.1.4.9.8 1.9l1 1.8q.5.9 1.1 1.7l1.2 1.6a16 16 0 0 0 3.2 2.8q.8.6 1.7 1.1t1.9.9q1.1.5 2.3.8 1.1.3 2.3.6 1.1.2 2.3.3t2.4.1q2.9 0 5.7-.6a30.5 30.5 0 0 0 5.4-1.9q2.6-1.2 4.8-3 2.3-1.8 4.1-4z" style="fill:#353649;fill-rule:nonzero" transform="translate(-63.014 16.742)scale(.1318)"/><path d="M84.1 82.9h65.1l-12.6 72.4a83 83 0 0 1-6.5 3.1q-3.3 1.5-6.7 2.8-3.4 1.2-6.9 2.3-3.5 1-7 1.9-3.8.9-7.7 1.7-3.8.7-7.8 1.2-3.9.4-7.8.7-3.9.2-7.9.3-3.9 0-7.8-.3t-7.8-.9q-3.8-.6-7.6-1.5-3.8-1-7.6-2.2a67 67 0 0 1-6.4-2.5 67 67 0 0 1-6.2-3.1 87 87 0 0 1-5.8-3.8 66 66 0 0 1-5.4-4.3 64 64 0 0 1-4.7-4.8 53 53 0 0 1-4.1-5.3 80 80 0 0 1-3.6-5.6q-1.6-3-2.9-6a85 85 0 0 1-2.5-6.9 85 85 0 0 1-1.7-7.1q-.7-3.6-1-7.2-.3-3.7-.2-7.3-.1-4.9.4-9.7.4-4.9 1.3-9.7A97 97 0 0 1 7 71.7q1.3-4.7 3.1-9.2 1.7-4.3 3.7-8.5a95 95 0 0 1 4.6-8q2.4-3.9 5.3-7.5a76 76 0 0 1 6-7 75 75 0 0 1 6.6-6.4q3.4-3 7.1-5.6a118 118 0 0 1 7.8-4.9q4-2.2 8.1-4c5.6-2.5 11.4-4.4 17.3-5.7 6-1.3 12-2.1 18.1-2.2 6.1-.2 12.2.2 18.2 1.2s11.9 2.6 17.6 4.7q3.5 1.3 6.8 3.1t6.4 4q3 2.2 5.7 4.8t5 5.6l-26.9 24.4q-1.2-1.7-2.6-3.2t-2.9-2.9-3.2-2.6-3.5-2.2q-2.2-1.1-4.6-2a41 41 0 0 0-4.9-1.3 32.5 32.5 0 0 0-5-.8 43 43 0 0 0-5.1-.1q-2.7-.1-5.5.2t-5.5.9-5.3 1.5q-2.7 1-5.2 2.2-2.4 1.2-4.7 2.7-2.4 1.4-4.5 3.1a54 54 0 0 0-8 7.6 44 44 0 0 0-3.5 4.4 52 52 0 0 0-3.1 4.7q-1.5 2.5-2.7 5.1-1.2 2.5-2.1 5.2a90 90 0 0 0-1.8 5.6q-.7 2.9-1.3 5.8a57 57 0 0 0-.7 5.9q-.3 2.9-.3 5.9 0 2 .2 4.1.2 2 .5 4a87 87 0 0 0 2 8q.6 1.8 1.4 3.5a27 27 0 0 0 1.8 3.4q1 1.7 2.2 3.2t2.6 2.9a28 28 0 0 0 2.9 2.7q1.5 1.2 3.2 2.3 1.6 1.1 3.4 2 1.8.8 3.7 1.5 2.1.8 4.3 1.4t4.4 1a55 55 0 0 0 4.5.6q2.3.1 4.6.1 1.5 0 3.1-.1t3.1-.2q1.6-.1 3.1-.4 1.5-.2 3.1-.5 1.4-.2 2.7-.5 1.4-.3 2.8-.8 1.3-.4 2.6-1a17 17 0 0 0 2.5-1.2l3.3-19H78.7z" style="fill:#353649;fill-rule:nonzero" transform="translate(5.844 11.246)scale(.16022)"/><path d="M367 6.7h36.2l29.9 157.9h-39l-5.4-31.4h-54.6l50.1-35.1-7.5-50.7-20.1 35.2h-37.8z" style="fill:#353649;fill-rule:nonzero" transform="translate(-11.866 11.261)scale(.16023)"/><path d="M299.2 113.2h39.9l-13.5 23.7-16.7 27.7h-42.4z" style="fill:#353649;fill-rule:nonzero" transform="translate(-11.866 11.261)scale(.16023)"/></svg>