<svg xmlns="http://www.w3.org/2000/svg" xml:space="preserve" style="background-color:#fff;fill-rule:evenodd;clip-rule:evenodd;stroke-linejoin:round;stroke-miterlimit:2" viewBox="0 0 64 64"><path d="m327.08 46.54-17.33 17.33c-1.76 1.82-3.13 3.26-3.75 5.99l-.87 3.43-.87-3.43c-.62-2.73-1.99-4.17-3.75-5.99l-17.33-17.33c-1.82-1.76-3.25-3.12-5.98-3.74l-3.43-.87 3.43-.87c2.73-.62 4.16-1.98 5.98-3.74l21.96-21.96 21.94 21.94c1.82 1.76 3.26 3.14 6 3.76l3.43.87-3.43.87c-2.75.61-4.19 1.98-6 3.74M310.45 5.33l-5.33 10.02V0l-41.93 41.93 41.93 41.93 41.93-41.93z" style="fill:#e24152" transform="translate(-163.967 5.07)scale(.64226)"/></svg>