<svg xmlns="http://www.w3.org/2000/svg" xml:space="preserve" style="background-color:#001A18;fill-rule:evenodd;clip-rule:evenodd;stroke-linejoin:round;stroke-miterlimit:2" viewBox="0 0 64 64"><path d="M722.5 301.8c.2 0 .4-.2.4-.4s-.1-.3-.3-.4c-7.7-1.1-14.7-3.6-21-7.6-14.1-9-25.2-26.2-34.6-54.8-1.2-3.8-48.3-163.8-51.3-174.2-10.7-36.5-30.9-52.8-49.5-59.7-9.6-3.5-18.7-4.6-26-4.6h-13c-.2 0-.4.2-.4.4s.1.3.3.4c5.2.7 10.8 2.1 16.4 4.5 17.3 7.3 35.3 23.7 45.7 59 2.3 7.9 49.7 169.1 50.7 172.3 9.6 29.9 20.9 47.7 35.3 56.9 9.2 5.8 19.6 8.3 31.7 8.3h15.6z" style="fill:#fff;fill-rule:nonzero" transform="translate(4.113 17.887)scale(.05823)"/><path d="M764.1 301.8c.2 0 .4-.2.4-.4s-.1-.3-.3-.4c-21.1-2.7-34.8-32.4-42.3-57.6-7.9-26.5-36.5-123.2-53.5-179.1C651.3 8.2 598.1.1 574 .1c-.2 0-.4.2-.4.4s.1.3.3.4c22.5 3 54.4 16.6 68.2 63.5 12.1 41.2 50.5 171.9 52 176.3 9.2 27.3 20.1 43.8 33.7 52.7 9.2 6 19.7 8.5 32 8.5h4.3zM210.3 484.7h-6.5c-19.2 0-42.3-9.8-55-54.6L34.3 39.2C27.5 15.7 17.4 4 .3 1Q0 1 0 .7C0 .5.2.3.4.3h17.2C40.5.3 53 11.8 60.9 39.2c0 0 105.9 359.4 115.5 393.3 7.1 25.1 15.4 42.2 28.3 49.1 2.1 1.1 3.8 1.8 5.6 2.3.2 0 .3.2.3.4.1.2-.1.4-.3.4M171.5 53.8C160.6 15.9 143.4 0 111.7 0H96.3c-.2 0-.4.2-.4.4s.1.3.3.4c24.7 3.5 39.1 19.8 48.7 53 0 0 94.8 322.8 107.1 365 2.7-9.1 7.3-24.6 13-44-11.3-38.8-93.5-321-93.5-321" style="fill:#fff;fill-rule:nonzero" transform="translate(4.113 17.887)scale(.05823)"/><path d="M219.2 484.7h11.3c14.1 0 24.2-3.7 31.8-9.9 12.3-10 17.9-26.6 23.1-44 .7-2.6 101-342.8 104.6-356.1 11.9-44.9 38.7-64.5 67.2-71.4 4.7-1.2 9.5-2 14.3-2.5.2 0 .3-.2.3-.4s-.2-.4-.4-.4h-12.5c-37.6 0-79.5 14.9-95.4 74.6-5.7 21.5-103.9 353.5-104.6 356.1-5.2 17.4-11.1 35.8-23.4 45.8-5 4.1-9.6 6.3-16.2 7.3-.2 0-.3.2-.3.4-.2.3 0 .5.2.5M734.5 250.5l59-196.7c9.6-33.2 24-49.5 48.7-53 .2 0 .3-.2.3-.4s-.2-.4-.4-.4h-15.4c-31.6 0-48.8 15.8-59.8 53.7L721.3 207c0 .1 12.1 40.3 13.2 43.5" style="fill:#fff;fill-rule:nonzero" transform="translate(4.113 17.887)scale(.05823)"/><path d="M889.8.3h-16.4c-26.9 0-41.5 13.5-50.9 45.7 0 0-58.4 195.2-58.9 196.9-4.3 13.8-9.7 27.2-15.1 35.8 5.1 7 10.6 11.4 15.9 12.4 10.1-8.7 18.6-24.8 26.1-49.3.4-1.3 58.6-195.8 58.6-195.8 8.1-27.9 20.1-41.8 40.7-45 .2 0 .3-.2.3-.4.1-.1-.1-.3-.3-.3M770.2 311.6h-26.4c-12 39.6-27.9 92.1-33.8 111.8-16.4 55.1 9.5 60.7 19.4 60.7h20.9c.2 0 .4-.2.4-.4s-.1-.3-.3-.4c-11.3-2.7-26.7-14.4-13.1-60-.1.2 23.9-81 32.9-111.7M924.7.7c.1 0 .3-.2.3-.4s-.2-.4-.4-.4h-3.7c-22.9 0-35.4 11.5-43.3 38.9 0 0-45.1 151.9-59.3 198.9-14.2 47.1-23.9 59.7-43.2 63l-1 .2c-.2 0-.3.2-.3.4s.2.4.4.4h13.1c33.6 0 46.1-22.4 57.9-61.8 9.9-33 67.8-226.5 67.8-226.5 1.6-5.4 6.3-11 11.7-12.7M796.8 311c-9.3 31.6-35.7 121.6-35.7 121.6-14 46.8 8.1 51.6 16.5 51.6H798c.2 0 .4-.2.4-.4s-.1-.3-.3-.4c-9.6-2.5-22.1-12.7-10.7-50.9 0 0 29-98.2 40-135.7-6.3 6.5-17 12.4-30.6 14.2M846.6 484.2c.2 0 .4-.2.4-.4s-.1-.3-.3-.4c-8.1-2.3-18.2-11.3-8.7-43.2 0 0 112-381.2 118.3-402.8S947.5 2.3 933.9.3c-.1 0-.5-.1-.6.2s.3.5.4.5c2.7 1.4 5.7 4.7 4.1 10.3s-126 429-126 429c-11.9 39.8 6.9 43.9 14 43.9zM669.4 301.8c.2 0 .4-.2.4-.4s-.1-.3-.3-.4c-7.6-1.1-14.5-3.5-20.8-7.5-14.8-9.4-26.3-27.6-36-58.6-.8-2.7-48.5-165-50.2-170.6-10-34.3-26.2-50.7-42.2-58.3C510.6 1.4 501 .1 492.8.1h-14.1c-.2 0-.4.2-.4.4s.1.3.3.4c2.6.4 39 1.5 57.3 63.5s40.3 136.2 47.7 162.3c16 56.6 36.7 75.1 70 75.1z" style="fill:#fff;fill-rule:nonzero" transform="translate(4.113 17.887)scale(.05823)"/><path d="M500.8 21.4c-13.4 11.5-24.5 28.6-31.1 53.3-.7 2.6-100.1 340.9-102.3 348.3-8.4 28.2-15.4 56.2-47 61-.2 0-.3.2-.3.4s.2.4.4.4h6.3s4.5-.1 5.4-.1c32.1-1.3 48.2-15 61.9-61.6 10-34.1 101.5-345.6 102.3-348.3 3.9-13 8.6-27.9 15.3-40.9-1.4-2.3-6.3-8.7-10.9-12.5" style="fill:#fff;fill-rule:nonzero" transform="translate(4.113 17.887)scale(.05823)"/><path d="M485.9 12.7c-10.2-2.9-24.6-2.1-37.7 8.4S423.4 49.4 417.4 72c-.7 2.6-104.6 356.2-105.4 358.8-5.2 17.4-10.8 33.9-23.1 44-5.6 4.6-12.6 7.8-21.5 9.2-.2 0-.3.2-.3.4s.2.4.4.4h16.3c14.1 0 24.2-3.7 31.8-9.9 12.3-10 17.9-26.6 23.1-44 .8-2.6 103.9-353.5 104.6-356.1 6.6-24.7 17.7-41.8 31-53.3 3.9-3.3 7.9-6.2 12.1-8.6-.2-.1-.3-.1-.5-.2M239.8 454.4c-4.6-6.7-8.5-14.7-11.2-24.3C224.7 416.1 116.1 46 116.1 46 106.8 13.8 92.1.3 65.2.3H48.8c-.2 0-.4.2-.4.4s.1.3.3.4c20.6 3.2 32.6 17 40.7 45l112.6 384c5.8 20.5 13.8 33.7 22.6 42 6.3-3.7 11.6-9.5 15.2-17.7" style="fill:#fff;fill-rule:nonzero" transform="translate(4.113 17.887)scale(.05823)"/></svg>