<svg xmlns="http://www.w3.org/2000/svg" xml:space="preserve" style="fill-rule:evenodd;clip-rule:evenodd;stroke-linejoin:round;stroke-miterlimit:2" viewBox="0 0 64 64">
  <path d="M113.09 21.12c-.77.033-1.445.329-1.564 1.06l-.479 3.864a5.46 5.46 0 0 1 4.502 5.373c0 3.015-2.44 5.465-5.45 5.465-3.009 0-5.452-2.45-5.452-5.465a5.458 5.458 0 0 1 4.496-5.373l-.465-3.864c-.134-.731-.804-1.027-1.577-1.06h-14.31l2.55 4.586a2.552 2.552 0 0 0 2.107 1.268h3.66c-.877 1.463-1.371 3.029-1.371 4.443 0 5.751 4.638 10.41 10.36 10.41 5.713 0 10.35-4.654 10.35-10.41 0-1.414-.493-2.98-1.375-4.443h3.667c.178 0 1.393-.061 2.106-1.268l2.556-4.586H113.09Zm-6.469 10.3a3.48 3.48 0 0 1 3.478-3.481 3.486 3.486 0 0 1 3.478 3.481 3.483 3.483 0 0 1-3.478 3.482 3.48 3.48 0 0 1-3.478-3.482Z" style="fill:#002595;fill-rule:nonzero" transform="matrix(1.49185 0 0 1.49185 -132.246 -14.954)"/>
</svg>
