<svg xmlns="http://www.w3.org/2000/svg" xml:space="preserve" style="background-color:#fff;fill-rule:evenodd;clip-rule:evenodd;stroke-linejoin:round;stroke-miterlimit:2" viewBox="0 0 64 64">
  <path d="M1085 2579c-194-28-429-132-592-261C-6 1923-139 1189 187 632 373 314 698 89 1064 25c128-22 369-20 493 4 375 73 671 296 852 642 66 125 124 301 133 399 2 30 0 35-17 32-32-6-41-21-78-134-44-132-88-220-162-323-181-254-444-425-742-481-135-25-385-15-513 21-382 106-686 398-803 770-40 128-50 216-44 387 7 221 56 383 169 566 63 101 232 279 327 342 396 264 889 269 1284 11 146-96 305-270 387-425 17-32 29-61 27-62-3-4-537-199-830-305l-108-39-9 23c-5 12-23 180-40 372-17 193-33 358-36 368-3 9-14 17-24 17-21 0-22-5-45-260-38-407-48-505-54-512-4-4-159 35-346 87-298 83-342 93-355 80-9-9-11-18-5-24 6-5 133-71 283-146 149-75 272-141 272-146s-124-71-275-146c-194-97-275-143-275-154 0-9 6-19 13-22 6-2 156 35 332 84s330 89 341 89c19 0 22-7 28-77 7-85 28-302 51-536 8-81 15-150 15-153s10-4 22-2c22 3 23 10 60 383 20 209 37 381 37 383 4 12 33 5 528-134 89-25 167-43 173-39 29 18-14 47-265 175-148 76-270 144-270 150s192 105 427 219 434 213 441 220c13 10 13 18 2 54-25 85-77 193-130 272-179 270-466 457-795 519-90 18-351 20-455 5" style="fill:#116bfe;fill-rule:nonzero" transform="matrix(.02013 0 0 -.02013 6.313 58.162)"/>
</svg>
