<svg xmlns="http://www.w3.org/2000/svg" xml:space="preserve" style="background-color:#fff;fill-rule:evenodd;clip-rule:evenodd;stroke-linejoin:round;stroke-miterlimit:2" viewBox="0 0 64 64"><g transform="translate(-1.06 -76.942)scale(.33546)"><clipPath id="a"><path d="m72.4 324.7 52.2 52.2v-52.2l-52.2-52.1z"/></clipPath><g clip-path="url(#a)"><path d="m166.3 356-52.1-104.3-83.5 41.7 52.2 104.4z" style="fill:url(#b);fill-rule:nonzero"/></g></g><g transform="translate(-1.06 -76.942)scale(.33546)"><clipPath id="c"><path d="M124.6 272.6v104.3l52.2-52.2z"/></clipPath><g clip-path="url(#c)"><path d="M124.6 272.6h52.2v104.3h-52.2z" style="fill:url(#d)"/></g></g><g transform="translate(-1.06 -76.942)scale(.33546)"><clipPath id="e"><path d="M20.3 324.7v.1l52.1 52V272.6z"/></clipPath><g clip-path="url(#e)"><path d="M20.3 272.6h52.1v104.3H20.3z" style="fill:url(#f)"/></g></g><path d="m20.3 324.7 52.1 52.2v-52.2z" opacity=".25" style="fill:#006532;fill-rule:nonzero" transform="translate(-1.06 -76.942)scale(.33546)"/><path d="M124.6 324.7v52.2l52.2-52.2z" opacity=".25" style="fill:#e96512;fill-rule:nonzero" transform="translate(-1.06 -76.942)scale(.33546)"/><defs><linearGradient id="b" x1="0" x2="1" y1="0" y2="0" gradientTransform="rotate(243.435 178.772 149.958)scale(116.6499)" gradientUnits="userSpaceOnUse"><stop offset="0" style="stop-color:white;stop-opacity:1"/><stop offset=".13" style="stop-color:#fafafa;stop-opacity:1"/><stop offset=".3" style="stop-color:#ebebeb;stop-opacity:1"/><stop offset=".48" style="stop-color:#d3d3d2;stop-opacity:1"/><stop offset=".67" style="stop-color:#b0b0b0;stop-opacity:1"/><stop offset=".86" style="stop-color:#858584;stop-opacity:1"/><stop offset="1" style="stop-color:#626261;stop-opacity:1"/></linearGradient><linearGradient id="d" x1="0" x2="1" y1="0" y2="0" gradientTransform="translate(124.621 324.778)scale(52.1742)" gradientUnits="userSpaceOnUse"><stop offset="0" style="stop-color:#f9b825;stop-opacity:1"/><stop offset=".17" style="stop-color:#f8b023;stop-opacity:1"/><stop offset=".44" style="stop-color:#f49b1f;stop-opacity:1"/><stop offset=".77" style="stop-color:#ed7818;stop-opacity:1"/><stop offset="1" style="stop-color:#e85b12;stop-opacity:1"/></linearGradient><radialGradient id="f" cx="0" cy="0" r="1" gradientTransform="translate(72.38 272.578)scale(103.511)" gradientUnits="userSpaceOnUse"><stop offset="0" style="stop-color:#c5d128;stop-opacity:1"/><stop offset=".14" style="stop-color:#b0c529;stop-opacity:1"/><stop offset=".43" style="stop-color:#7aa62a;stop-opacity:1"/><stop offset=".84" style="stop-color:#23752c;stop-opacity:1"/><stop offset="1" style="stop-color:#00612d;stop-opacity:1"/></radialGradient></defs></svg>