<svg xmlns="http://www.w3.org/2000/svg" xml:space="preserve" style="fill-rule:evenodd;clip-rule:evenodd;stroke-linejoin:round;stroke-miterlimit:2" viewBox="0 0 64 64"><path d="M2294.665 58.487c.355 1.282-4.134 1.643-6.079 1.643-7.426 0-23.438-.361-40.646 10.489-17.752 11.176-22.839 11.627-23.887 11.79-.224.036-1.029.144-1.029.9 0 .65.973.813 1.366.813 1.2 0 7.052-.47 23.063-7.583 10.456-4.658 17.34-4.3 18.892-4.3 5.256 0 11.56 1.535 22.128 6.138a72.11 72.11 0 0 0 29.162 5.742c.374 0 1.365-.018 1.365-.74 0-.741-.767-.921-1.029-.975-5.031-.993-24.148-3.72-24.148-9.678 0-5.939 11.111-5.614 11.522-5.614a1.959 1.959 0 0 0 2.182-1.935c0-.195-.03-.389-.087-.575a6.547 6.547 0 0 0-2.544-3.394c-1.201-.817-11.167-9.6-24.84-9.027-12.813.541.954 3.863 6.154 4.459 8.118.908 8.361 1.504 8.455 1.847Z" style="fill:#fff;fill-rule:nonzero" transform="matrix(.60407 0 0 .60407 -1339.845 -9.161)"/></svg>
