<svg xmlns="http://www.w3.org/2000/svg" xml:space="preserve" style="background-color:#fff;fill-rule:evenodd;clip-rule:evenodd;stroke-linejoin:round;stroke-miterlimit:2" viewBox="0 0 64 64"><path d="M67.6 70.9c-1 0-1.9.3-2.8.8L32.2 91.2c-2.6 1.5-3.4 4.9-1.9 7.5s4.9 3.4 7.5 1.9L70.4 81c2.6-1.5 3.4-4.9 1.9-7.5-1.1-1.7-2.9-2.6-4.7-2.6M56.7 44.8c0 3-2.4 5.4-5.4 5.4s-5.4-2.4-5.4-5.4 2.4-5.4 5.4-5.4c3-.1 5.4 2.4 5.4 5.4M40.4 35c0 3-2.4 5.4-5.4 5.4S29.6 38 29.6 35s2.4-5.4 5.4-5.4c3-.1 5.4 2.4 5.4 5.4M73 54.6c0 3-2.4 5.4-5.4 5.4s-5.4-2.4-5.4-5.4 2.4-5.4 5.4-5.4c3-.1 5.4 2.4 5.4 5.4" style="fill:#e68014;fill-rule:nonzero" transform="translate(-5.001 -15.225)scale(.72127)"/></svg>