<svg xmlns="http://www.w3.org/2000/svg" xml:space="preserve" style="background-color:#FEC916;fill-rule:evenodd;clip-rule:evenodd;stroke-linejoin:round;stroke-miterlimit:2" viewBox="0 0 64 64">
  <path d="M76.19 32.709c-3.452-3.37-8.186-5.469-13.371-5.469h-36.73l13.584-13.62h34.559c1.46.023 2.824.664 3.785 1.625l20.062 20.121c3.452 3.358 8.174 5.47 13.394 5.47h36.767l-13.608 13.619h-34.524a5.54 5.54 0 0 1-3.797-1.672zm10.5 29.731c3.416 3.452 8.162 5.623 13.418 5.623h40.123l34.062-34.025L140.231 0H121l27.24 27.24h-36.767a5.4 5.4 0 0 1-3.749-1.507L87.639 5.647C84.198 2.159 79.464.012 74.232 0H34.05L0 34.038l34.05 34.025h19.243L26.089 40.836h36.73a5.34 5.34 0 0 1 3.749 1.53z" style="fill:#006" transform="translate(4.93 21.429)scale(.31063)"/>
</svg>
