<svg xmlns="http://www.w3.org/2000/svg" xml:space="preserve" style="background-color:#e33c3e;fill-rule:evenodd;clip-rule:evenodd;stroke-linejoin:round;stroke-miterlimit:2" viewBox="0 0 64 64"><path d="m188.23 44.88-27.153 29.604c7.364 10.31 11.397 22.586 11.397 35.515 0 16.399-6.385 31.819-17.99 43.423-11.595 11.595-27.015 17.99-43.413 17.99-16.408 0-31.829-6.395-43.423-17.99-11.605-11.605-17.99-27.025-17.99-43.423 0-33.489 26.965-60.79 60.326-61.374l31.908-34.804c-9.845-3.153-20.194-4.893-30.82-4.893-55.729 0-101.07 45.341-101.07 101.07 0 26.995 10.508 52.379 29.595 71.466 19.097 19.087 44.471 29.604 71.476 29.604 26.995 0 52.379-10.517 71.456-29.604 19.097-19.087 29.604-44.471 29.604-71.466 0-24.128-8.481-46.912-23.901-65.12m-33.647-29.575v-.129l-70.25 76.487h47.09l70.033-76.359m83.377 109.13h55.334c7.601 0 23.061 1.048 23.061 22.586.007 26.254-18.445 26.777-30.652 26.777h-47.743v-49.363Zm0-76.418h48.286c14.105 0 25.226 5.249 25.226 21.796 0 15.232-10.033 21.796-27.4 21.796h-46.112V48.014Zm-40.695 158.61h89.258c12.474 0 34.448-1.838 48.019-13.127 17.624-14.708 20.609-30.455 20.609-40.438 0-22.843-11.941-39.657-23.604-48.326 14.382-11.545 18.712-27.835 18.712-39.39 0-7.878-3.796-50.155-71.337-50.155H244.14m228.67 109.24h55.344c7.592 0 23.061 1.048 23.061 22.586 0 26.254-18.454 26.777-30.662 26.777H472.81v-49.363Zm0-76.418h48.286c14.105 0 25.226 5.249 25.226 21.796 0 15.232-10.033 21.796-27.4 21.796H472.81V48.01Zm-40.685 158.61h89.238c12.484 0 34.458-1.838 48.03-13.127 17.624-14.708 20.609-30.455 20.609-40.438 0-22.843-11.941-39.657-23.604-48.326 14.382-11.545 18.712-27.835 18.712-39.39 0-7.878-3.796-50.155-71.337-50.155h-81.657" style="fill:#fff;fill-rule:nonzero" transform="matrix(.08965 0 0 .08965 5.103 22.138)"/></svg>
