<svg xmlns="http://www.w3.org/2000/svg" xml:space="preserve" style="background-color:#fabb01;fill-rule:evenodd;clip-rule:evenodd;stroke-linejoin:round;stroke-miterlimit:2" viewBox="0 0 64 64"><path d="M644.687 717.05c.017-1.606 4.351-26.541 6.938-39.915.85-4.391 3.255-17.866 5.345-29.944 2.09-12.079 8.282-47.565 13.76-78.858s13.161-75.314 17.073-97.824c3.912-22.509 9.026-51.481 11.364-64.382 2.337-12.901 5.629-31.655 7.315-41.676s3.842-22.208 4.792-27.083l1.726-8.863 47.173-.217c25.945-.119 64.045.165 84.666.633 35.971.814 37.918.957 47.965 3.511 21.418 5.446 34.048 12.327 47.288 25.762 15.125 15.349 21.329 31.402 22.371 57.882 1.143 29.046-5.79 55.191-19.758 74.509-6.461 8.935-21.584 23.614-31.083 30.17-3.697 2.552-11.98 7.052-18.406 9.999s-11.438 5.765-11.139 6.26 3.814 2.742 7.81 4.991c8.447 4.754 17.511 14.066 22.952 23.582 5.918 10.349 12.59 28.193 16.828 45.01 1.674 6.641 12.531 47.907 24.099 91.594 2.166 8.181 3.932 15.513 3.924 16.293-.009.879-1.061 1.409-2.765 1.395-1.513-.016-22.158.063-45.879.168l-43.128.192-1.508-2.424c-1.366-2.194-5.727-18.192-13.236-48.552-9.306-37.627-15.959-60.22-20.699-70.293-7.147-15.189-15.137-22.342-29.37-26.293-7.402-2.055-40.1-2.483-41.743-.546-1.029 1.213-4.434 19.619-21.345 115.378-3.162 17.908-5.877 30.712-6.609 31.166-.683.423-20.478.572-43.989.329-37.506-.387-42.746-.626-42.732-1.954m177.311-215.709c35.337-5.217 55.738-29.825 54.495-65.735-.405-11.72-2.544-17.881-8.334-24.011-8.675-9.183-15.816-10.916-49.077-11.907-32.739-.976-30.231-2.1-33.167 14.865-1.141 6.588-4.719 26.877-7.951 45.087-6.425 36.196-6.989 41.87-4.228 42.556 3.219.799 41.675.117 48.262-.855" style="fill:#e2003b;fill-rule:nonzero" transform="translate(-25.19 -3.646)scale(.06136)"/><path d="M2285.941 836.895c-.299-4.372.879-12.965 5.534-40.349 1.073-6.314 3.084-18.218 4.47-26.453 2.913-17.31 3.591-18.464 10.806-18.388 7.905.083 19.314-2.672 28.067-6.777 17.198-8.065 29.628-24.592 36.878-49.032 2.032-6.852 4.192-17.57 10.556-52.391 1.756-9.607 4.607-25.102 6.334-34.434 1.728-9.332 3.868-21.01 4.756-25.951 3.392-18.868 6.064-33.414 8.524-46.412 1.402-7.41 3.742-20.211 5.199-28.446a2452 2452 0 0 1 5.233-28.446c1.422-7.41 3.349-17.965 4.282-23.455.934-5.491 2.161-12.228 2.727-14.972s2.729-14.422 4.809-25.95c2.08-11.529 4.505-24.779 5.39-29.444.884-4.666 2.033-10.729 2.551-13.474s1.693-9.257 2.608-14.473c3.008-17.146 6.166-30.934 7.294-31.85.618-.501 20.195-.844 44.106-.773l42.995.128.267 3.679c.146 2.023-.975 10.337-2.492 18.474-1.518 8.138-3.958 21.309-5.423 29.269-1.466 7.959-3.582 19.412-4.702 25.451-1.121 6.038-3.937 21.309-6.257 33.935s-5.459 29.693-6.974 37.928-4.67 25.526-7.011 38.427-5.442 29.744-6.891 37.429-4.54 24.692-6.869 37.793c-2.329 13.102-4.901 27.025-5.717 30.941-1.429 6.86-2.697 13.668-8.578 46.047-6.843 37.68-11.915 57.412-20.246 78.779-10.278 26.359-24.165 46.015-41.886 59.285-29.579 22.15-64.718 33.86-105.954 35.31-13.549.477-14.262.407-14.386-1.405" style="fill:#00519e;fill-rule:nonzero" transform="translate(-103.941 -3.337)scale(.06072)"/></svg>