<svg xmlns="http://www.w3.org/2000/svg" xml:space="preserve" style="fill-rule:evenodd;clip-rule:evenodd;stroke-linejoin:round;stroke-miterlimit:2" viewBox="0 0 64 64"><path d="m117.244 56.523-2.822 4.039-.024.033.001.001-.062.089-.024.036.035.023 21.549 14.392-11.125-.482-.023-.001-.013.019-3.46 4.928-.046.066h.081l20.292.006h.022l.012-.018 2.839-4.024.012-.019-.007-.02-6.915-18.766 13.167 9.665.035.025.025-.035.055-.078.001.001.031-.044 2.832-4.033.025-.035-.036-.024-21.47-14.459 11.123.524.023.001.013-.018 3.479-4.915.046-.066-.08-.001-20.351-.087h-.022l-.013.018-2.813 4.043-.012.017.008.021 6.819 18.74-13.147-9.572-.035-.026-.024.036h-.001Zm20.037.093-3.245 4.681-4.192-10.14 7.437 5.459Zm-3.283 5.007 4.231 10.126-7.495-5.457 3.264-4.669Z" style="fill:#fff" transform="matrix(1.27428 0 0 -1.27428 -138.786 110.316)"/></svg>
