<svg xmlns="http://www.w3.org/2000/svg" xml:space="preserve" style="fill-rule:evenodd;clip-rule:evenodd;stroke-linejoin:round;stroke-miterlimit:2" viewBox="0 0 64 64">
  <defs>
    <linearGradient id="sncfGradient" x1="0%" y1="0%" x2="100%" y2="0%">
      <stop offset="0%" style="stop-color:#7E2072"/>
      <stop offset="100%" style="stop-color:#E41F24"/>
    </linearGradient>
  </defs>
  <rect width="64" height="64" fill="url(#sncfGradient)"/>
  <path d="m324.145 200.363-5.438 23.666a26.547 26.547 0 0 1-4.607 0c-5.582-.459-13.507-4.401-11.243-11.386 1.7-5.22 7.9-8.385 15.445-8.974 1.323-.078 2.388-3.513 2.388-3.513-.026 0-.4-.04-1.034-.022-10.783.362-18.39 3.286-22.182 9.424-.102.157-.191.315-.283.473l2.008-9.668h-5.186l-3.965 19.068c-3.264-8.655-7.621-16.909-18.942-18.815-2.494-.419-3.661-.538-6.556-.519-8.27.066-15.708 2.402-16.969 7.201-2.129 8.107 16.782 6.94 16.439 12.33-.211 3.281-5.884 5.115-10.443 5.074-3.393-.04-7.157-.857-9.26-1.414l-1.681 3.576c2.888.609 5.937 1.173 9.187 1.205 13.518.132 18.781-4.509 19.38-8.872 1.066-7.976-17.885-7.21-16.467-12.212.807-3.135 6.807-3.69 10.266-3.666 1.501.01 2.786.123 3.965.347.631.187 1.266-.48 1.884-1.897.03-.083.201-.136.201.037l-1.832 8.815c-.297 1.423-.243 2.059 1.446 3.815 1.137 1.187 2.194 2.333 2.425 1.226.705-3.45 1.434-6.95 2.143-10.375 8.77 10.105 13.072 22.52 13.072 22.52h5.189l2.177-10.46.067.383c1.076 5.747 8.858 10.093 18.746 10.345 3.355.085 5.815-.094 7.121-.66 1.3-.568 2.079-1.217 2.495-3.047.331-1.421 1.86-8.086 1.86-8.086h13.008c.799 0 1.484-.507 2.774-4.261h-14.804l1.796-7.821h17.126c.542 0 1.321.02 2.643-3.836h-24.359" style="fill:#fff;fill-rule:nonzero" transform="translate(-118.392 -76.936) scale(.50882)"/>
</svg>
