<svg xmlns="http://www.w3.org/2000/svg" xml:space="preserve" style="fill-rule:evenodd;clip-rule:evenodd;stroke-linejoin:round;stroke-miterlimit:2" viewBox="0 0 64 64"><path d="m320.9 244.8-176.6 17.5-118.9 236c94.4 0 142.5-8.7 197.5-87.4 36-53.4 68.7-108.9 98-166.1ZM799 26.2 813 0H440.7C314.8 0 250.1 42.8 210.8 121.5l-30.6 62.1h169.5C409.2 68.2 482.6 28.8 661.8 26.2H799Z" style="fill:#006a6a;fill-rule:nonzero" transform="matrix(.0748 0 0 .0748 1.585 11.407)"/><path d="M787.7 51.6c-227.3 1.7-264.9 39.3-315.6 132H723l64.7-132Z" style="fill:#006a6a;fill-rule:nonzero" transform="matrix(.0748 0 0 .0748 1.585 11.407)"/><path d="M547.4 376.7C532.6 460.6 466.9 526.2 383 541c-27.4 4.8-55.2 7.7-83 8.7-33.2.9-299.8.9-299.8.9L11.6 527s101.4-.9 115.4-.9c33-.5 66-2.9 98.8-7 69.6-5.9 128-54.8 145.9-122.4l20.1-68.2c11.4-57.7 61.8-99.4 120.6-99.7l194.1-12.2-9.6 19.2-59.4 3.5c-44.4 3.4-80 37.9-84.8 82.2l-5.3 55.2Z" style="fill:#d61d29;fill-rule:nonzero" transform="matrix(.0748 0 0 .0748 1.585 11.407)"/></svg>
