<svg xmlns="http://www.w3.org/2000/svg" xml:space="preserve" style="fill-rule:evenodd;clip-rule:evenodd;stroke-linejoin:round;stroke-miterlimit:2" viewBox="0 0 64 64"><path d="M294 0h64v64h-64z" style="fill:none" transform="translate(-294)"/><path d="M268.949 473.065h-21.627c-.598 0-1.216.115-1.803.365-1.433.622-2.454 1.862-2.885 3.295l-.025.103c14.168 4.855 18.32 16.022 18.358 19.354v.233c-.011 1.354-.945 2.999-2.466 3.815h4.884c.614 0 1.229-.12 1.805-.367 1.431-.626 2.457-1.86 2.89-3.3l4.822-17.95c.102-.373.153-.739.163-1.16.029-2.41-1.8-4.388-4.116-4.388" style="fill:#006b3b;fill-rule:nonzero" transform="matrix(1.35547 0 0 1.35547 -314.145 -627.639)"/><path d="M258.551 495.082c.04-3.858-4.641-7.959-6.956-10.08-.421-.335-.79-.63-1.085-.83-.501.576-3.786 1.313-9.853.005l-.026.075-2.951 11.01c0 .009-.009.009-.009.009 6.415 3.858 20.83 6.02 20.88-.189" style="fill:#d91920;fill-rule:nonzero" transform="matrix(1.35547 0 0 1.35547 -314.145 -627.639)"/></svg>
