<svg xmlns="http://www.w3.org/2000/svg" xml:space="preserve" style="background-color:#fff;fill-rule:evenodd;clip-rule:evenodd;stroke-linejoin:round;stroke-miterlimit:2" viewBox="0 0 64 64"><path d="M18.64 32h-.092C8.295 32-.142 40.437-.142 50.69s8.437 18.69 18.69 18.69 18.69-8.437 18.69-18.69c0-4.938-1.956-9.679-5.438-13.18A18.64 18.64 0 0 0 18.64 32M98 32H78.83c-5.24-.016-9.545-4.33-9.55-9.57V18.7C69.28 8.474 60.866.06 50.64.06S32 8.474 32 18.7c0 10.211 8.39 18.618 18.6 18.64h3.75a9.38 9.38 0 0 1 6.75 2.81 9.53 9.53 0 0 1 2.79 6.76v3.75c.011 10.227 8.413 18.643 18.64 18.67H98c10.239 0 18.665-8.426 18.665-18.665S108.239 32 98 32" style="fill:#00204c;fill-rule:nonzero" transform="translate(5.918 16.457)scale(.44767)"/></svg>