<svg xmlns="http://www.w3.org/2000/svg" xml:space="preserve" style="background-color:#fff;fill-rule:evenodd;clip-rule:evenodd;stroke-linejoin:round;stroke-miterlimit:2" viewBox="0 0 64 64"><path d="M101.84 22.13c-21 1.36-35.13 15.61-35.13 15.61a102 102 0 0 0-8.77-7.61 67.1 67.1 0 0 0 5.9-23.54S78.5 9.5 85.41 23.47q2.21-.53 4.61-.89A36.73 36.73 0 0 0 61.199 1.676 36.74 36.74 0 0 0 28.19 15.02C12.31 10.76.99 13.23.99 13.23c49.11 10 65.56 51 65.56 51 7-16.49 14.94-26.69 21.54-32.91.448 2.151.715 4.335.8 6.53 0 0 .65 11.63-7.59 20.75a31.68 31.68 0 0 1-24.54 11.41 32.078 32.078 0 0 1-25.49-12.5s9-3.66 17.55-13.41a147 147 0 0 0-3.63-3.32 54.1 54.1 0 0 1-16.47 12.73 32.05 32.05 0 0 1-2-26.79 101 101 0 0 0-4-2.53 36.77 36.77 0 0 0 2.935 33.606 36.76 36.76 0 0 0 29.101 17.063A36.762 36.762 0 0 0 92.03 27.91c5.81-4.53 9.81-5.78 9.81-5.78m-68.86-5.7c4.71-5.22 13-11.22 26.11-10.56a58.4 58.4 0 0 1-5.2 21.21A83.7 83.7 0 0 0 33 16.48z" style="fill:#0279b4;fill-rule:nonzero" transform="translate(5.056 12.004)scale(.52404)"/></svg>