<svg xmlns="http://www.w3.org/2000/svg" xml:space="preserve" fill-rule="evenodd" stroke-linejoin="round" stroke-miterlimit="2" clip-rule="evenodd" viewBox="0 0 64 64" style="background-color:#DC052A">
  <path fill="#fff" fill-rule="nonzero" d="m26.645 30.095-11.037 1.094-7.432 14.75c5.9 0 8.907-.544 12.344-5.463a101 101 0 0 0 6.125-10.381m29.882-13.662.874-1.638H34.134c-7.869 0-11.913 2.675-14.369 7.594l-1.912 3.881h10.593c3.719-7.212 8.307-9.675 19.506-9.837z"/>
  <path fill="#fff" fill-rule="nonzero" d="M55.82 18.02c-14.206.106-16.556 2.456-19.725 8.25h15.682zM40.801 38.339a12.66 12.66 0 0 1-10.275 10.269c-1.712.3-3.45.48-5.187.543-2.075.057-18.737.057-18.737.057l.712-1.475s6.338-.057 7.213-.057a57 57 0 0 0 6.175-.437c4.35-.369 8-3.425 9.118-7.65l1.257-4.263a7.725 7.725 0 0 1 7.537-6.231l12.131-.762-.6 1.2-3.712.218a5.77 5.77 0 0 0-5.3 5.138z"/>
</svg>
