<svg xmlns="http://www.w3.org/2000/svg" xml:space="preserve" style="background-color:#fff;fill-rule:evenodd;clip-rule:evenodd;stroke-linejoin:round;stroke-miterlimit:2" viewBox="0 0 64 64"><path d="M605.991.019a211 211 0 0 0-8.894 6.883 223.5 223.5 0 0 0-36.015 37.015 218 218 0 0 0-9.957 14.012l-3.887 5.469-27.755 39.059-123.541 173.862-26.524 37.332-9.755 13.728H222.187l11.818-16.631 90.757-127.723 75.003-105.548c.187-.261.369-.526.556-.787l.798-1.123q1.184-1.663 2.402-3.302.156-.212.313-.418.51-.677 1.026-1.354a180.7 180.7 0 0 1 47.52-43.218 181 181 0 0 1 11.46-6.599q.964-.506 1.932-1.004.88-.451 1.765-.892 1.86-.93 3.745-1.809.403-.192.806-.377.716-.337 1.436-.657c.239-.108.474-.216.713-.321q.474-.218.955-.425l.757-.332q.606-.27 1.216-.522.612-.263 1.224-.515 1.13-.475 2.268-.929.179-.079.358-.145l1.048-.414a177 177 0 0 1 4.988-1.869q.627-.224 1.253-.444a193 193 0 0 1 4.547-1.519q.404-.14.813-.257.474-.154.955-.298.636-.202 1.272-.388.406-.124.813-.242.587-.175 1.175-.343s.004-.007.004 0c.187-.056.373-.108.563-.164A180 180 0 0 1 545.287.021h60.7z" style="fill:#009e60;fill-rule:nonzero" transform="translate(5.543 22.367)scale(.05885)"/><path d="M415.646.018a211 211 0 0 0-8.894 6.883 223.5 223.5 0 0 0-36.015 37.015 218 218 0 0 0-9.957 14.012l-3.887 5.469-27.755 39.059-123.541 173.862-26.524 37.332-9.755 13.728H31.842l11.818-16.631 90.757-127.723L209.42 77.476c.187-.261.369-.526.556-.787l.798-1.123q1.185-1.663 2.402-3.302.157-.212.313-.418.51-.677 1.026-1.354a180.7 180.7 0 0 1 47.52-43.218 181 181 0 0 1 11.46-6.599q.964-.506 1.932-1.004.88-.451 1.765-.892 1.86-.93 3.745-1.809.403-.192.806-.377.716-.337 1.436-.657c.239-.108.474-.216.713-.321q.475-.218.955-.425l.757-.332q.606-.27 1.216-.522.612-.263 1.224-.515 1.13-.475 2.268-.929.179-.079.358-.145l1.048-.414a177 177 0 0 1 4.988-1.869q.627-.224 1.253-.444a193 193 0 0 1 4.547-1.519q.404-.14.813-.257.474-.154.955-.298.636-.202 1.272-.388.406-.124.813-.242.588-.175 1.175-.343s.004-.007.004 0c.187-.056.373-.108.563-.164q2.112-.6 4.238-1.145c13.646-3.513 27.912-5.46 42.607-5.646z" style="fill:#00685e;fill-rule:nonzero" transform="translate(5.543 22.367)scale(.05885)"/><path d="M899.015 0c-72.227 23.32-138.042 60.901-194.131 109.425l-.007.007c-67.758 58.614-121.318 133.199-154.833 217.898l-.004.004-.03.045H412.535l11.818-16.631 51.795-72.891.172-.246 3.906-5.495q.051-.068.097-.134c70.25-97.476 171.05-171.471 288.376-207.956C810.269 11.1 853.92 2.881 899.015.001z" style="fill:#da291c;fill-rule:nonzero" transform="translate(5.543 22.367)scale(.05885)"/><path d="M282.715 105.302c-33.556 0-66.822 3.059-99.323 8.804l-6.823 9.602c35.321-6.778 70.877-10.199 106.146-10.199 12.591 0 25.163.41 37.697 1.224l5.577-7.845a590 590 0 0 0-43.275-1.585z" style="fill:#004339;fill-rule:nonzero" transform="translate(5.543 22.367)scale(.05885)"/><path d="m374.841 112.551-5.32 7.487a571 571 0 0 1 46.087 8.931 571 571 0 0 1 69.855 21.365l4.913-6.916a578.8 578.8 0 0 0-115.536-30.867z" style="fill:#155b30;fill-rule:nonzero" transform="translate(5.543 22.367)scale(.05885)"/><path d="M614.422 208.877a582 582 0 0 0-76.458-44.823 527 527 0 0 0-6.058 6.185q2.814 1.35 5.611 2.738a575 575 0 0 1 72.194 42.622l5.186-6.39a31 31 0 0 0-.474-.332z" style="fill:#8e262a;fill-rule:nonzero" transform="translate(5.543 22.367)scale(.05885)"/><path d="M888.267 327.377H740.355c-106.496-135.24-272.145-222.075-457.64-222.075-101.191 0-199.716 27.802-282.598 73.252C103.789 114.668 229.263 75.85 359.979 75.85c213.209 0 403.519 98.053 528.288 251.527" style="fill:#e0e0e0;fill-rule:nonzero" transform="translate(5.543 22.367)scale(.05885)"/></svg>