<svg xmlns="http://www.w3.org/2000/svg" xml:space="preserve" style="fill-rule:evenodd;clip-rule:evenodd;stroke-linejoin:round;stroke-miterlimit:2" viewBox="0 0 64 64"><path d="M605.991.019a211.237 211.237 0 0 0-8.894 6.883 223.46 223.46 0 0 0-36.015 37.015 218.395 218.395 0 0 0-9.957 14.012l-3.887 5.469-27.755 39.059-123.541 173.862-26.524 37.332-9.755 13.728H222.187l11.818-16.631 90.757-127.723 75.003-105.548c.187-.261.369-.526.556-.787l.798-1.123c.79-1.109 1.59-2.209 2.402-3.302.104-.142.209-.28.313-.418.339-.451.683-.903 1.026-1.354a180.73 180.73 0 0 1 47.52-43.218 180.54 180.54 0 0 1 11.46-6.599c.642-.339 1.287-.671 1.932-1.004.586-.302 1.175-.597 1.765-.892 1.24-.62 2.488-1.223 3.745-1.809.269-.127.537-.254.806-.377.478-.224.955-.444 1.436-.657.239-.108.474-.216.713-.321.317-.145.634-.287.955-.425l.757-.332c.403-.179.81-.354 1.216-.522.407-.175.817-.347 1.224-.515.753-.317 1.509-.626 2.268-.929.119-.052.239-.101.358-.145l1.048-.414a176.831 176.831 0 0 1 4.988-1.869c.418-.149.836-.298 1.253-.444a192.668 192.668 0 0 1 4.547-1.519c.269-.093.541-.179.813-.257.317-.104.634-.201.955-.298.425-.134.847-.265 1.272-.388.272-.082.541-.164.813-.242.392-.116.783-.231 1.175-.343 0 0 .004-.007.004 0 .187-.056.373-.108.563-.164A179.93 179.93 0 0 1 545.287.021h60.7l.004-.002Z" style="fill:#009e60;fill-rule:nonzero" transform="translate(5.543 22.367) scale(.05885)"/><path d="M415.646.018a211.237 211.237 0 0 0-8.894 6.883 223.46 223.46 0 0 0-36.015 37.015 218.395 218.395 0 0 0-9.957 14.012l-3.887 5.469-27.755 39.059-123.541 173.862-26.524 37.332-9.755 13.728H31.842l11.818-16.631 90.757-127.723L209.42 77.476c.187-.261.369-.526.556-.787l.798-1.123c.79-1.109 1.59-2.209 2.402-3.302.104-.142.209-.28.313-.418.339-.451.683-.903 1.026-1.354a180.73 180.73 0 0 1 47.52-43.218 180.54 180.54 0 0 1 11.46-6.599c.642-.339 1.287-.671 1.932-1.004.586-.302 1.175-.597 1.765-.892 1.24-.62 2.488-1.223 3.745-1.809.269-.127.537-.254.806-.377.478-.224.955-.444 1.436-.657.239-.108.474-.216.713-.321.317-.145.634-.287.955-.425l.757-.332c.403-.179.81-.354 1.216-.522.407-.175.817-.347 1.224-.515.753-.317 1.509-.626 2.268-.929.119-.052.239-.101.358-.145l1.048-.414a176.831 176.831 0 0 1 4.988-1.869c.418-.149.836-.298 1.253-.444a192.668 192.668 0 0 1 4.547-1.519c.269-.093.541-.179.813-.257.317-.104.634-.201.955-.298.425-.134.847-.265 1.272-.388.272-.082.541-.164.813-.242.392-.116.783-.231 1.175-.343 0 0 .004-.007.004 0 .187-.056.373-.108.563-.164 1.408-.4 2.821-.781 4.238-1.145 13.646-3.513 27.912-5.46 42.607-5.646h60.7Z" style="fill:#00685e;fill-rule:nonzero" transform="translate(5.543 22.367) scale(.05885)"/><path d="M899.015 0c-72.227 23.32-138.042 60.901-194.131 109.425l-.007.007c-67.758 58.614-121.318 133.199-154.833 217.898l-.004.004-.03.045H412.535l11.818-16.631 51.795-72.891c.056-.082.116-.164.172-.246l3.906-5.495c.034-.045.067-.09.097-.134 70.25-97.476 171.05-171.471 288.376-207.956C810.269 11.1 853.92 2.881 899.015.001V0Z" style="fill:#da291c;fill-rule:nonzero" transform="translate(5.543 22.367) scale(.05885)"/><path d="M282.715 105.302c-33.556 0-66.822 3.059-99.323 8.804l-6.823 9.602c35.321-6.778 70.877-10.199 106.146-10.199 12.591 0 25.163.41 37.697 1.224l5.577-7.845a589.498 589.498 0 0 0-43.275-1.585l.001-.001Z" style="fill:#004339;fill-rule:nonzero" transform="translate(5.543 22.367) scale(.05885)"/><path d="m374.841 112.551-5.32 7.487a570.787 570.787 0 0 1 46.087 8.931 570.643 570.643 0 0 1 69.855 21.365l4.913-6.916a578.774 578.774 0 0 0-115.536-30.867h.001Z" style="fill:#155b30;fill-rule:nonzero" transform="translate(5.543 22.367) scale(.05885)"/><path d="M614.422 208.877a582.224 582.224 0 0 0-76.458-44.823 527.32 527.32 0 0 0-6.058 6.185c1.876.899 3.746 1.813 5.611 2.738a574.99 574.99 0 0 1 72.194 42.622l5.186-6.39a30.97 30.97 0 0 0-.474-.332h-.001Z" style="fill:#8e262a;fill-rule:nonzero" transform="translate(5.543 22.367) scale(.05885)"/><path d="M888.267 327.377H740.355c-106.496-135.24-272.145-222.075-457.64-222.075-101.191 0-199.716 27.802-282.598 73.252C103.789 114.668 229.263 75.85 359.979 75.85c213.209 0 403.519 98.053 528.288 251.527Z" style="fill:#e0e0e0;fill-rule:nonzero" transform="translate(5.543 22.367) scale(.05885)"/></svg>
