<svg xmlns="http://www.w3.org/2000/svg" xml:space="preserve" style="background-color:#fff;fill-rule:evenodd;clip-rule:evenodd;stroke-linejoin:round;stroke-miterlimit:2" viewBox="0 0 64 64"><path d="M42.459 1.827V.001h25.798a6.14 6.14 0 0 1 5.416 2.9c.64.977.975 2.122.962 3.29q.009 9.891 0 19.782a6.23 6.23 0 0 1-5.26 6.107 7 7 0 0 1-.99.07c-2.19.006-4.38 0-6.57 0h-.286v-1.799h6.788a4.35 4.35 0 0 0 2.687-.849 4.35 4.35 0 0 0 1.816-3.659V6.337a4.7 4.7 0 0 0-.177-1.335 4.41 4.41 0 0 0-4.156-3.172H42.456z" style="fill:#00275e;fill-rule:nonzero" transform="translate(5.68 20.663)scale(.70525)"/><path d="m64.419 12.375.067-1.05h1.993c.006.091.018.179.018.268v8.387a4.4 4.4 0 0 1-.494 2.072 4.13 4.13 0 0 1-3.521 2.264c-.308.027-.621 0-.95 0v-1.918c.115 0 .231.008.346 0q.413-.01.819-.085a2.12 2.12 0 0 0 1.45-1.216 4.6 4.6 0 0 0 .217-2.341c-.015.008-.035.012-.044.024a3.2 3.2 0 0 1-2.491 1.334 4.4 4.4 0 0 1-2.032-.29 3.74 3.74 0 0 1-2.335-2.512 5.6 5.6 0 0 1-.048-3.236 3.87 3.87 0 0 1 3.2-2.877 4.3 4.3 0 0 1 2.077.047c.639.164 1.203.54 1.6 1.066a1 1 0 0 0 .072.077zm-2.537.617a2.41 2.41 0 0 0-2.446 1.758 3 3 0 0 0-.1.6 2.485 2.485 0 0 0 2.224 2.834 2.41 2.41 0 0 0 2.677-1.685c.137-.43.175-.886.111-1.333a2.417 2.417 0 0 0-2.469-2.174zM35.045 19.827c-.1 0-.178.011-.259.011h-1.682l-.115-1.172a.6.6 0 0 0-.091.076 2.97 2.97 0 0 1-2.024 1.268 4.42 4.42 0 0 1-3-.447 3.71 3.71 0 0 1-1.855-2.333 5.67 5.67 0 0 1-.062-3.079 3.86 3.86 0 0 1 3.064-2.951 4.5 4.5 0 0 1 2.132-.014c.69.15 1.303.546 1.723 1.114.016.022.028.047.069.114.129-.394.029-.759.138-1.114h1.943c.058.212.074 8.153.019 8.527m-4.6-1.668a2.38 2.38 0 0 0 2.4-1.783q.07-.253.1-.514a2.506 2.506 0 0 0-2.706-2.9 2.39 2.39 0 0 0-2.212 1.737 3 3 0 0 0-.112.65 2.486 2.486 0 0 0 2.452 2.811z" style="fill:#00275e;fill-rule:nonzero" transform="translate(5.68 20.663)scale(.70525)"/><path d="M18.032 7.714h2.061c.031.283.012.565.015.845s0 .589 0 .883v5.177l.061.028q.095-.104.188-.212c.816-.973 1.636-1.942 2.444-2.921a.58.58 0 0 1 .515-.237c.635.014 1.27 0 1.9 0h.3c.019.155-.076.214-.139.284a2353 2353 0 0 1-3.016 3.376c-.1.116-.205.233-.318.362.077.088.142.164.209.238l3.581 3.943c.08.088.214.16.15.341-.088 0-.177.012-.266.012h-1.988a.5.5 0 0 1-.424-.19 456 456 0 0 0-2.941-3.4 5 5 0 0 0-.2-.218l-.06.02v3.773h-2.066c-.044-.204-.061-11.701-.006-12.104M12.311 11.104a4.4 4.4 0 0 1 3.259 1.315 4.28 4.28 0 0 1 1.183 2.585 4.7 4.7 0 0 1-.7 3.139 3.9 3.9 0 0 1-1.97 1.574 4.93 4.93 0 0 1-3.224.095 4.02 4.02 0 0 1-2.891-3.3 4.67 4.67 0 0 1 .429-3.137 4.1 4.1 0 0 1 3.364-2.236q.206-.02.413-.032c.045-.006.091-.003.137-.003m2.346 4.487a2.7 2.7 0 0 0-.668-1.821 2.253 2.253 0 0 0-3.654.406 2.85 2.85 0 0 0-.2 2.322c.227.853.961 1.48 1.839 1.571a2.23 2.23 0 0 0 2.5-1.453c.122-.328.184-.676.183-1.026zM51.666 11.101a4.47 4.47 0 0 1 3.268 1.229 4.43 4.43 0 0 1 1.3 3.484c-.018.59-.15 1.17-.389 1.71a3.99 3.99 0 0 1-2.5 2.261 5 5 0 0 1-3.069.018 3.89 3.89 0 0 1-2.564-2.331 4.72 4.72 0 0 1 .215-4.229 4.04 4.04 0 0 1 3.3-2.107c.173-.019.347-.028.439-.035m-2.237 4.347c.014.183.018.367.043.549a2.25 2.25 0 0 0 1.964 2.072 2.19 2.19 0 0 0 2.219-.924 2.82 2.82 0 0 0-.235-3.4 2.26 2.26 0 0 0-3.551.3 2.9 2.9 0 0 0-.44 1.403M.032 7.718H2.17c.01.673 0 1.331 0 1.989v8.018h4.764c.067.696.072 1.397.016 2.094H.045C-.003 19.613-.022 8.164.032 7.718M44.527 7.721V11.3h2.631c.063.598.071 1.201.023 1.8h-2.634c-.007.143-.017.258-.017.373v5.985c0 .116-.01.233-.016.364h-2.055c-.044-.567-.015-1.125-.02-1.681s0-1.1 0-1.655v-3.37h-1.731v-1.81h1.728V7.721zM36.906 7.715h2.048v12.1h-2.048z" style="fill:#00275e;fill-rule:nonzero" transform="translate(5.68 20.663)scale(.70525)"/></svg>