<svg xmlns="http://www.w3.org/2000/svg" xml:space="preserve" style="background-color:#fff;fill-rule:evenodd;clip-rule:evenodd;stroke-linejoin:round;stroke-miterlimit:2" viewBox="0 0 64 64"><path d="M16.5 47.3c0-8.6 6.9-15.5 15.4-15.5 2.3 0 4.5.6 6.4 1.4l12-12c-5.2-3.7-11.5-5.8-18.4-5.8C14.3 15.4 0 29.7 0 47.3c0 6.9 2.2 13.2 5.8 18.4l12-12c-.8-1.9-1.3-4.1-1.3-6.4M46.1 41c.9 1.9 1.4 4.1 1.4 6.3 0 8.6-6.9 15.5-15.5 15.5-2.2 0-4.4-.5-6.3-1.4l-12 12c5.2 3.7 11.5 5.8 18.3 5.8 17.7 0 32-14.3 32-32 0-6.8-2.2-13.1-5.8-18.3z" style="fill:#d72b13;fill-rule:nonzero" transform="translate(6 -6.431)scale(.8125)"/></svg>