<svg xmlns="http://www.w3.org/2000/svg" xml:space="preserve" style="background-color:#fff;fill-rule:evenodd;clip-rule:evenodd;stroke-linejoin:round;stroke-miterlimit:2" viewBox="0 0 64 64"><path d="M45.171 24.188c-1.639 0-2.644-.679-2.644-2.377 0-2.717 2.383-3.208 6.07-3.472v2.755c0 1.887-1.378 3.094-3.426 3.094m8.006-10.717c0-3.811-3.352-5.056-7.298-5.056-4.618 0-6.965 2.377-6.965 2.377l1.825 2.793s1.937-1.849 4.655-1.849c1.416 0 3.203.49 3.203 2.377v1.472l-4.134.641c-3.239.528-6.404 2.152-6.404 6.151 0 3.509 2.382 5.396 5.027 5.396 3.537 0 5.473-2.415 5.473-2.415l.224 2.075h4.394zm-33.18 13.962h4.581V2.641h-4.581zm9.683-9.886 6.665-8.717h-5.102l-6.666 8.943 6.554 9.66h5.586zM46.66 4.981c-1.08 0-1.825-.641-1.825-1.66S45.58 1.66 46.66 1.66s1.825.642 1.825 1.661-.745 1.66-1.825 1.66m0-4.981c-2.16 0-3.761 1.396-3.761 3.396S44.5 6.641 46.66 6.641s3.761-1.396 3.761-3.396S48.82 0 46.66 0M7.635 27.773c4.803 0 8.824-2.981 8.824-7.887 0-4.679-3.91-6.377-6.814-7.622-1.676-.717-3.538-1.472-3.538-3.396 0-1.887 1.937-2.755 3.389-2.755 2.271 0 3.389.981 4.208 1.736l2.309-2.83c-1.415-1.585-3.873-2.528-6.741-2.528-4.059 0-8.192 2.113-8.192 6.83 0 4.415 3.202 5.735 6.107 6.943 1.936.792 4.208 1.66 4.208 4.151 0 2.151-2.048 3.509-3.836 3.509-2.755 0-4.282-1.208-5.101-2.377L0 24.981c1.825 1.812 4.544 2.792 7.635 2.792" style="fill:#df0000" transform="translate(6.412 18.636)scale(.96239)"/></svg>