<svg xmlns="http://www.w3.org/2000/svg" xml:space="preserve" style="background-color:#1B8941;fill-rule:evenodd;clip-rule:evenodd;stroke-linejoin:round;stroke-miterlimit:2" viewBox="0 0 64 64"><path d="M638 878.395c-49.265-4.259-86.707-14.163-124-32.798-55.206-27.586-95.273-66.882-127.553-125.097-20.444-36.87-26.821-44.505-42.342-50.703-5.409-2.16-7.126-2.259-49.105-2.834-47.434-.65-47.576-.667-60-6.985-22.826-11.607-47.874-39.231-69.858-77.041-6.195-10.653-7.468-15.214-4.56-16.33 2.721-1.044 152.121-.658 166.918.432 43.662 3.214 75.116 13.253 100.69 32.136 20.183 14.903 33.642 32.825 54.314 72.325 14.118 26.976 23.406 39.384 39.768 53.13 28.867 24.251 66.915 41.314 109.228 48.986 15.524 2.815 50.882 2.59 67-.425 47.412-8.871 89.214-29.784 117.623-58.847 11.472-11.735 16.975-19.994 31.849-47.803 17.367-32.47 28.742-48.372 43.692-61.081 27.118-23.053 60.59-34.869 108.836-38.421 20.74-1.527 165.752-1.387 167.3.161 2.082 2.082 1.352 4.466-4.446 14.515-22.3 38.649-48.371 67.311-71.643 78.762-12.188 5.998-16.61 6.486-58.912 6.506-39.78.018-44.403.422-53.491 4.677-11.54 5.402-19.709 15.848-37.804 48.34-17.943 32.221-32.976 52.451-54.639 73.533-15.52 15.103-24.632 22.497-42.069 34.138-38.556 25.739-85.228 42.498-136.206 48.909-11.474 1.443-60.356 2.7-70.59 1.815m-98.148-215.411c-7.344-3.88-15.573-16.63-21.497-33.307-19.232-54.149-73.949-96.617-141.881-110.122-24.329-4.836-23.728-4.813-140.974-5.451l-111-.604-5.993-2.26c-14.67-5.531-33.352-20.417-47.774-38.067-13.777-16.86-31.838-46.85-30.428-50.525.611-1.594 11.851-1.682 178.924-1.395 176.725.303 178.384.324 191.271 2.446 68.339 11.252 116.445 42.668 140.998 92.082 11.502 23.148 15.394 42.165 16.22 79.252.84 37.769-1.577 55.533-8.732 64.182-4.772 5.768-12.478 7.286-19.134 3.769m234.648.604c-10.953-4.868-14.496-19.447-14.477-59.588.012-25.573.883-38.055 3.593-51.5 6.311-31.314 23.718-61.545 47.37-82.267 27.768-24.329 61.74-39.178 106.446-46.527 12.968-2.131 14.425-2.15 191.201-2.453 168.968-.29 178.167-.216 178.805 1.446.901 2.347-4.838 13.496-14.768 28.692-20.728 31.723-40.62 50.605-62.67 59.49l-6.5 2.619-111 .605c-119.094.648-117.415.578-144 6.034-13.18 2.704-36.582 10.461-48.742 16.155-42.964 20.119-76.088 54.144-89.765 92.206-4.171 11.606-10.122 23.122-14.733 28.509-6.013 7.025-14.036 9.568-20.76 6.579m-68.835-248.58c-9.02-1.134-9.665-1.453-9.665-4.777 0-2.386.744-3.194 4.72-5.126 13.31-6.466 30.367-19.831 41.26-32.328 13.094-15.021 21.474-31.175 26.307-50.713 2.099-8.485 2.122-9.864 2.446-148.814L771.06 33H861v138.539c0 91.956-.361 141.774-1.072 148.158-1.53 13.713-5.126 26.878-10.362 37.932-14.709 31.051-39.627 48.445-79.546 55.527-12.911 2.291-51.931 3.414-64.355 1.852M557 387.372c-29.263-1.5-57.383-7.127-77.75-15.558l-7.25-3.001v-28.906c0-15.899.23-28.907.511-28.907s5.794 1.608 12.25 3.573c24.383 7.422 52.641 13.256 72.239 14.914 9.554.808 30.79-1.004 40.317-3.44 15.864-4.058 25.22-11.207 28.234-21.576 3.455-11.883.383-22.494-9.322-32.199-10.899-10.898-27.381-19.582-63.229-33.313-31.502-12.066-44.256-18.786-60.309-31.774-13.834-11.192-26.076-30.198-30.715-47.685-3.234-12.19-3.822-35.869-1.205-48.505 9.383-45.297 45.403-73.068 106.383-82.018 41.458-6.084 84.859-1.995 118.596 11.174L696 44.152v29.424c0 16.183-.147 29.424-.328 29.424-.18 0-4.407-1.769-9.393-3.932-13.969-6.059-35.202-12.836-49.15-15.688-11.331-2.316-14.223-2.531-28.129-2.092-24.175.762-38.056 5.605-48.547 16.936-12.477 13.477-11.147 30.569 3.42 43.96 11.31 10.397 25.317 17.173 59.528 28.796 33.033 11.223 54.683 23.322 71.61 40.02C712.854 228.602 721 247.371 721 270.885c0 66.743-41.636 106.99-119 115.031-11.019 1.145-35.573 1.94-45 1.456" style="fill:#fff;fill-rule:nonzero" transform="translate(2.565 11.939)scale(.04434)"/></svg>