<svg xmlns="http://www.w3.org/2000/svg" xml:space="preserve" style="background-color:#fff;fill-rule:evenodd;clip-rule:evenodd;stroke-linejoin:round;stroke-miterlimit:2" viewBox="0 0 64 64"><path d="M242.87 315.97c-.5-15.02-6.77-29.88-21.96-29.88v-5.95c10.73 0 15.68 5.78 17.01 6.94 0 0 .66.99 2.31.99 1.98 0 2.64-1.82 2.64-3.96v-3.3h5.28v35.17h-5.28zm-45.57 62.9s-.49-.99-2.31-.99-3.47 1.32-3.47 3.96v3.3h-5.28v-36.98h5.28c0 15.69 7.1 31.7 22.95 31.7v5.94c-10.73.01-15.85-5.77-17.17-6.93m22.78 6.94v-5.94c9.74-.33 13.04-7.26 13.04-14.53 0-13.37-14.03-18.49-22.45-24.11-13.21-8.58-24.6-15.68-24.6-35.5 0-12.05 9.25-25.59 29.55-25.59v5.95c-7.26.33-11.89 5.28-11.89 11.23 0 13.04 12.22 18.16 20.64 23.44 13.04 8.09 26.09 14.69 26.09 34.67 0 14.86-10.73 30.38-30.38 30.38" style="fill:#f20000;fill-rule:nonzero" transform="translate(-74.726 -130.816)scale(.48897)"/></svg>