<svg xmlns="http://www.w3.org/2000/svg" xml:space="preserve" style="background-color:#fff;fill-rule:evenodd;clip-rule:evenodd;stroke-linejoin:round;stroke-miterlimit:2" viewBox="0 0 64 64"><path d="M84.721 588.667h658.096l61.906-338.166h155.756L767.001 100.32 398.04 250.467l203.759.034z" style="fill:#d60027" transform="translate(.916 12.073)scale(.05785)"/><path d="M144.279 250.483h79.046l-24.79 132.863h126.619l24.584-132.863h89.046l-59.746 338.123h-89.046l23.253-131.357H186.832l-23.254 131.357H84.532zm372.32 0h87.046l-46.044 272.22h112.382l-11.292 65.903H456.852zm347.307 134.901c14.098 0 25.117-7.925 33.056-15.776s9.908-14.646 9.908-28.386q0-13.362-8.315-20.382-8.316-7.021-23.919-7.021h-30.143l-10.729 71.565zM854.5 529.27q27.102 0 41.679-14.267 14.577-14.268 14.578-40.992c-.001-11.323-5.354-13.703-12.061-19.138q-10.06-8.153-30.797-8.153h-46.606l-13.604 82.55zm93.624-121.615q20.12 6.341 31.105 23.213 10.984 16.874 10.985 41.784 0 54.58-36.855 85.267-36.853 30.687-103.581 30.687H714.582l59.747-338.123h108.466q54.614 0 80.792 17.665 26.177 17.665 26.177 54.58 0 31.027-15.398 54.466-15.399 23.44-40.242 30.461z" style="fill-rule:nonzero" transform="translate(.916 12.073)scale(.05785)"/></svg>