<svg xmlns="http://www.w3.org/2000/svg" xml:space="preserve" style="background-color:#fff;fill-rule:evenodd;clip-rule:evenodd;stroke-linejoin:round;stroke-miterlimit:2" viewBox="0 0 64 64"><g transform="matrix(1.51995 0 0 -1.51995 -898.52 70.193)"><clipPath id="a"><path d="M594.398 17.233h35.613v15.788h-35.613z"/></clipPath><g clip-path="url(#a)"><path d="M0 0c-1.075-.233-2.128-.47-3.144-.703a35 35 0 0 0 5.309-2.745c.902.365 1.756.789 2.723 1.173A34 34 0 0 1 0 0" style="fill:#0faba4;fill-rule:nonzero" transform="translate(612.166 26.303)"/><path d="M0 0c1.292.599 3.448 1.48 3.448 1.48s-3.319-.049-5.683-.365C-1.627.847-.758.393 0 0" style="fill:#0faba4;fill-rule:nonzero" transform="translate(626.563 27.418)"/><path d="M0 0c1.148.479 2.392 1.044 3.789 1.615a35.4 35.4 0 0 1-5.745 2.791 319 319 0 0 1-4.046-.98C-4.403 2.72-2.091 1.544 0 0" style="fill:#0faba4;fill-rule:nonzero" transform="translate(609.658 20.884)"/><path d="M0 0c-2.739-.694-4.476-1.176-4.476-1.176l6.251-4.209s1.762.776 4.587 1.968C3.998-1.747 1.437-.583 0 0" style="fill:#0faba4;fill-rule:nonzero" transform="translate(602.144 23.813)"/><path d="M0 0q-.755-.112-1.526-.236C-.746-.568-.113-.798.958-1.369c.414.153.715.331 1.13.485C1.041-.371.608-.242 0 0" style="fill:#0faba4;fill-rule:nonzero" transform="translate(622.93 28.32)"/><path d="M0 0c-.976-.19-1.95-.39-2.911-.593a33.4 33.4 0 0 0 4.412-2.176c.82.322 1.542.684 2.392 1.013A31 31 0 0 1 0 0" style="fill:#d2d5d3;fill-rule:nonzero" transform="translate(616.44 27.187)"/><path d="M0 0q-1.046-.181-2.106-.381c.936-.387 2.002-.829 3.414-1.615.583.224 1.096.485 1.689.706C1.554-.559.648-.246 0 0" style="fill:#0faba4;fill-rule:nonzero" transform="translate(619.956 27.838)"/><path d="M0 0c.043-.233.166-.639.313-1.032l1.588-4.145 1.544 4.096c.157.415.246.746.301 1.081h1.431a3 3 0 0 1-.234-.442 39 39 0 0 1-.359-.835L2.413-6.552H1.296L-.918-1.286c-.304.706-.448 1-.639 1.286z" style="fill:#1360a2;fill-rule:nonzero" transform="translate(595.955 32.843)"/><path d="M0 0c-.043-.206-.068-.59-.068-.992V-5.57c0-.402.025-.776.068-.982h-1.376c.046.264.068.58.068.982v4.578c0 .412-.022.728-.068.992z" style="fill:#1360a2;fill-rule:nonzero" transform="translate(603.76 32.843)"/><path d="m0 0-1.13-2.831c.169.009.169.009.457.019.305 0 .572.012.639.012.034 0 .246 0 .516-.012.381-.01.445-.01.602-.019zm.605 1.118L2.84-4.117c.258-.599.368-.826.66-1.318H1.98a2 2 0 0 1-.079.354l-.034.098c-.132.393-.145.442-.166.491l-.326.844h-.033c-.102 0-.01 0-.28.013-.626.027-.706.027-1.074.027-.47 0-.356 0-1.296-.04h-.135l-.381-.933a7 7 0 0 1-.279-.854H-3.5c.212.326.347.599.614 1.201L-1.062-.11c.258.589.356.865.457 1.228z" style="fill:#1360a2;fill-rule:nonzero" transform="translate(608.681 31.725)"/><path d="M0 0c.602-.255 1.016-.344 1.566-.344.906 0 1.507.402 1.507 1.023 0 .5-.313.795-1.418 1.314C.301 2.631-.147 3.095-.147 3.859c0 1.103.961 1.849 2.373 1.849a5.8 5.8 0 0 0 1.575-.218l-.233-.832c-.516.196-.829.264-1.21.264-.749 0-1.274-.362-1.274-.894 0-.423.267-.647 1.421-1.2 1.33-.627 1.8-1.139 1.8-1.953 0-1.228-1.041-2.035-2.641-2.035-.614 0-1.24.098-1.913.294z" style="fill:#1360a2;fill-rule:nonzero" transform="translate(613.391 27.313)"/><path d="m0 0 .172-.368 23.992 11.071-.172.372z" style="fill:#0faba4;fill-rule:nonzero" transform="translate(604.386 17.602)"/></g></g></svg>