<svg xmlns="http://www.w3.org/2000/svg" xml:space="preserve" style="background-color:#fff;fill-rule:evenodd;clip-rule:evenodd;stroke-linejoin:round;stroke-miterlimit:2" viewBox="0 0 64 64"><path d="m0 0 .004-1.174-3.257-3.272v-.423L.486-8.537l-1.823-.01-.318.317v.326l-.328.002-2.704 2.705v3.284l-1.94-1.968-.002-2.841.655-.651-1.851.003v.666l.256.249-.256.25v3.331l2.794 2.836v3.346l-.956.956-2.059-2.059.742-.004-2.872-2.829-1.788.004-.009 1.417 1.242 1.26v1.733l2.866 2.858h1.658l1.029-1.03 1.397-1.138 3.668 3.668v2.174l-1.572 1.588.864.888-.938 1.022.522.534-.742.735L.77 17.883v1.88l1.029-1.029v.735l5.543-5.543-.993-1.002-.821.821-2.332-.002v-1.554l2.895-2.895 2.399 2.402 4.425-.002-1.129-1.136h-.028l-.284.291-.303-.291H8.98l-2.432-2.44.11.231 1.41 1.368.826-.001V7.161L7.497 5.764l-.551-.557v1.256l.042.042.354.005v.349l.633.633v.515l-1.784-1.79-.584-.003.022-.561z" style="fill:#00a3e2" transform="matrix(1.85934 0 0 -1.85561 31.124 42.406)"/></svg>